# MagicaVoxel @ Ephtracy

# group
o 

# material
mtllib InterruptoresProyector.mtl
usemtl palette

# normals
vn -1 0 0
vn 1 0 0
vn 0 0 1
vn 0 0 -1
vn 0 -1 0
vn 0 1 0

# texcoords
vt 0.958984 0.5
vt 0.974609 0.5
vt 0.982422 0.5

# verts
v 0 0 0
v 0 0 -0.1
v 0 0 -0.8
v 0 0 -0.9
v 0 0.1 0
v 0 0.1 -0.1
v 0 0.1 -0.2
v 0 0.1 -0.4
v 0 0.1 -0.5
v 0 0.1 -0.7
v 0 0.1 -0.8
v 0 0.1 -0.9
v 0 0.3 -0.2
v 0 0.3 -0.4
v 0 0.3 -0.5
v 0 0.3 -0.7
v 0 0.4 -0.2
v 0 0.4 -0.4
v 0 0.4 -0.5
v 0 0.4 -0.7
v 0 0.6 0
v 0 0.6 -0.1
v 0 0.6 -0.2
v 0 0.6 -0.4
v 0 0.6 -0.5
v 0 0.6 -0.7
v 0 0.6 -0.8
v 0 0.6 -0.9
v 0 0.7 0
v 0 0.7 -0.1
v 0 0.7 -0.8
v 0 0.7 -0.9
v 0.1 0 0
v 0.1 0 -0.1
v 0.1 0 -0.8
v 0.1 0 -0.9
v 0.1 0.1 0
v 0.1 0.1 -0.1
v 0.1 0.1 -0.2
v 0.1 0.1 -0.4
v 0.1 0.1 -0.5
v 0.1 0.1 -0.7
v 0.1 0.1 -0.8
v 0.1 0.1 -0.9
v 0.1 0.2 -0.2
v 0.1 0.2 -0.4
v 0.1 0.2 -0.5
v 0.1 0.2 -0.7
v 0.1 0.3 -0.2
v 0.1 0.3 -0.4
v 0.1 0.3 -0.5
v 0.1 0.3 -0.7
v 0.1 0.4 -0.2
v 0.1 0.4 -0.4
v 0.1 0.4 -0.5
v 0.1 0.4 -0.7
v 0.1 0.5 -0.2
v 0.1 0.5 -0.4
v 0.1 0.5 -0.5
v 0.1 0.5 -0.7
v 0.1 0.6 0
v 0.1 0.6 -0.1
v 0.1 0.6 -0.2
v 0.1 0.6 -0.4
v 0.1 0.6 -0.5
v 0.1 0.6 -0.7
v 0.1 0.6 -0.8
v 0.1 0.6 -0.9
v 0.1 0.7 0
v 0.1 0.7 -0.1
v 0.1 0.7 -0.8
v 0.1 0.7 -0.9
v 0.2 0.1 -0.2
v 0.2 0.1 -0.4
v 0.2 0.1 -0.5
v 0.2 0.1 -0.7
v 0.2 0.2 -0.2
v 0.2 0.2 -0.4
v 0.2 0.2 -0.5
v 0.2 0.2 -0.7
v 0.2 0.4 -0.5
v 0.2 0.4 -0.7
v 0.2 0.5 -0.2
v 0.2 0.5 -0.4
v 0.2 0.5 -0.5
v 0.2 0.5 -0.7
v 0.2 0.6 -0.2
v 0.2 0.6 -0.4
v 0 0 0
v 0 0.1 0
v 0 0.6 0
v 0 0.7 0
v 0.1 0 0
v 0.1 0.1 0
v 0.1 0.6 0
v 0.1 0.7 0
v 0.1 0.1 -0.2
v 0.1 0.2 -0.2
v 0.1 0.5 -0.2
v 0.1 0.6 -0.2
v 0.2 0.1 -0.2
v 0.2 0.2 -0.2
v 0.2 0.5 -0.2
v 0.2 0.6 -0.2
v 0.1 0.1 -0.5
v 0.1 0.2 -0.5
v 0.1 0.4 -0.5
v 0.1 0.5 -0.5
v 0.2 0.1 -0.5
v 0.2 0.2 -0.5
v 0.2 0.4 -0.5
v 0.2 0.5 -0.5
v 0.1 0.1 -0.4
v 0.1 0.2 -0.4
v 0.1 0.5 -0.4
v 0.1 0.6 -0.4
v 0.2 0.1 -0.4
v 0.2 0.2 -0.4
v 0.2 0.5 -0.4
v 0.2 0.6 -0.4
v 0.1 0.1 -0.7
v 0.1 0.2 -0.7
v 0.1 0.4 -0.7
v 0.1 0.5 -0.7
v 0.2 0.1 -0.7
v 0.2 0.2 -0.7
v 0.2 0.4 -0.7
v 0.2 0.5 -0.7
v 0 0 -0.9
v 0 0.1 -0.9
v 0 0.6 -0.9
v 0 0.7 -0.9
v 0.1 0 -0.9
v 0.1 0.1 -0.9
v 0.1 0.6 -0.9
v 0.1 0.7 -0.9
v 0 0 0
v 0.1 0 0
v 0 0 -0.1
v 0.1 0 -0.1
v 0 0 -0.8
v 0.1 0 -0.8
v 0 0 -0.9
v 0.1 0 -0.9
v 0.1 0.1 -0.2
v 0.2 0.1 -0.2
v 0.1 0.1 -0.4
v 0.2 0.1 -0.4
v 0.1 0.1 -0.5
v 0.2 0.1 -0.5
v 0.1 0.1 -0.7
v 0.2 0.1 -0.7
v 0.1 0.4 -0.5
v 0.2 0.4 -0.5
v 0.1 0.4 -0.7
v 0.2 0.4 -0.7
v 0.1 0.5 -0.2
v 0.2 0.5 -0.2
v 0.1 0.5 -0.4
v 0.2 0.5 -0.4
v 0.1 0.2 -0.2
v 0.2 0.2 -0.2
v 0.1 0.2 -0.4
v 0.2 0.2 -0.4
v 0.1 0.2 -0.5
v 0.2 0.2 -0.5
v 0.1 0.2 -0.7
v 0.2 0.2 -0.7
v 0.1 0.5 -0.5
v 0.2 0.5 -0.5
v 0.1 0.5 -0.7
v 0.2 0.5 -0.7
v 0.1 0.6 -0.2
v 0.2 0.6 -0.2
v 0.1 0.6 -0.4
v 0.2 0.6 -0.4
v 0 0.7 0
v 0.1 0.7 0
v 0 0.7 -0.1
v 0.1 0.7 -0.1
v 0 0.7 -0.8
v 0.1 0.7 -0.8
v 0 0.7 -0.9
v 0.1 0.7 -0.9

# faces
f 5/3/1 2/3/1 1/3/1
f 6/1/1 3/1/1 2/1/1
f 6/3/1 2/3/1 5/3/1
f 7/1/1 3/1/1 6/1/1
f 8/1/1 3/1/1 7/1/1
f 9/1/1 3/1/1 8/1/1
f 10/1/1 3/1/1 9/1/1
f 11/3/1 4/3/1 3/3/1
f 11/1/1 3/1/1 10/1/1
f 12/3/1 4/3/1 11/3/1
f 13/1/1 6/1/1 5/1/1
f 13/1/1 7/1/1 6/1/1
f 13/3/1 8/3/1 7/3/1
f 14/1/1 9/1/1 8/1/1
f 14/3/1 8/3/1 13/3/1
f 15/3/1 10/3/1 9/3/1
f 15/1/1 9/1/1 14/1/1
f 16/1/1 12/1/1 11/1/1
f 16/3/1 10/3/1 15/3/1
f 16/1/1 11/1/1 10/1/1
f 17/1/1 14/1/1 13/1/1
f 17/1/1 15/1/1 14/1/1
f 17/1/1 16/1/1 15/1/1
f 17/1/1 13/1/1 5/1/1
f 18/1/1 16/1/1 17/1/1
f 19/1/1 16/1/1 18/1/1
f 20/1/1 12/1/1 16/1/1
f 20/1/1 16/1/1 19/1/1
f 21/1/1 17/1/1 5/1/1
f 22/1/1 17/1/1 21/1/1
f 23/3/1 18/3/1 17/3/1
f 23/1/1 17/1/1 22/1/1
f 24/1/1 19/1/1 18/1/1
f 24/3/1 18/3/1 23/3/1
f 25/3/1 20/3/1 19/3/1
f 25/1/1 19/1/1 24/1/1
f 26/1/1 12/1/1 20/1/1
f 26/3/1 20/3/1 25/3/1
f 27/1/1 12/1/1 26/1/1
f 28/1/1 12/1/1 27/1/1
f 29/3/1 22/3/1 21/3/1
f 30/1/1 23/1/1 22/1/1
f 30/3/1 22/3/1 29/3/1
f 30/1/1 25/1/1 24/1/1
f 30/1/1 24/1/1 23/1/1
f 30/1/1 27/1/1 26/1/1
f 30/1/1 26/1/1 25/1/1
f 31/3/1 28/3/1 27/3/1
f 31/1/1 27/1/1 30/1/1
f 32/3/1 28/3/1 31/3/1
f 33/3/2 34/3/2 37/3/2
f 34/1/2 35/1/2 38/1/2
f 37/3/2 34/3/2 38/3/2
f 38/1/2 35/1/2 39/1/2
f 39/1/2 35/1/2 40/1/2
f 40/1/2 35/1/2 41/1/2
f 41/1/2 35/1/2 42/1/2
f 35/3/2 36/3/2 43/3/2
f 42/1/2 35/1/2 43/1/2
f 43/3/2 36/3/2 44/3/2
f 37/1/2 38/1/2 45/1/2
f 38/1/2 39/1/2 45/1/2
f 40/1/2 41/1/2 46/1/2
f 46/1/2 41/1/2 47/1/2
f 43/1/2 44/1/2 48/1/2
f 42/1/2 43/1/2 48/1/2
f 45/3/2 46/3/2 49/3/2
f 37/1/2 45/1/2 49/1/2
f 46/1/2 47/1/2 50/1/2
f 49/3/2 46/3/2 50/3/2
f 47/3/2 48/3/2 51/3/2
f 50/1/2 47/1/2 51/1/2
f 48/1/2 44/1/2 52/1/2
f 51/3/2 48/3/2 52/3/2
f 37/1/2 49/1/2 53/1/2
f 49/1/2 50/1/2 53/1/2
f 51/1/2 52/1/2 53/1/2
f 50/1/2 51/1/2 53/1/2
f 53/1/2 52/1/2 54/1/2
f 54/1/2 52/1/2 55/1/2
f 52/1/2 44/1/2 56/1/2
f 55/1/2 52/1/2 56/1/2
f 37/1/2 53/1/2 57/1/2
f 53/3/2 54/3/2 57/3/2
f 54/1/2 55/1/2 58/1/2
f 57/3/2 54/3/2 58/3/2
f 58/1/2 55/1/2 59/1/2
f 56/1/2 44/1/2 60/1/2
f 37/1/2 57/1/2 61/1/2
f 61/1/2 57/1/2 62/1/2
f 62/1/2 57/1/2 63/1/2
f 58/1/2 59/1/2 64/1/2
f 59/3/2 60/3/2 65/3/2
f 64/1/2 59/1/2 65/1/2
f 60/1/2 44/1/2 66/1/2
f 65/3/2 60/3/2 66/3/2
f 66/1/2 44/1/2 67/1/2
f 67/1/2 44/1/2 68/1/2
f 61/3/2 62/3/2 69/3/2
f 63/1/2 64/1/2 70/1/2
f 69/3/2 62/3/2 70/3/2
f 62/1/2 63/1/2 70/1/2
f 64/1/2 65/1/2 70/1/2
f 66/1/2 67/1/2 70/1/2
f 65/1/2 66/1/2 70/1/2
f 67/3/2 68/3/2 71/3/2
f 70/1/2 67/1/2 71/1/2
f 71/3/2 68/3/2 72/3/2
f 73/2/2 74/2/2 77/2/2
f 77/2/2 74/2/2 78/2/2
f 75/2/2 76/2/2 79/2/2
f 79/2/2 76/2/2 80/2/2
f 81/2/2 82/2/2 85/2/2
f 85/2/2 82/2/2 86/2/2
f 83/2/2 84/2/2 87/2/2
f 87/2/2 84/2/2 88/2/2
f 93/3/3 90/3/3 89/3/3
f 94/1/3 91/1/3 90/1/3
f 94/3/3 90/3/3 93/3/3
f 95/3/3 92/3/3 91/3/3
f 95/1/3 91/1/3 94/1/3
f 96/3/3 92/3/3 95/3/3
f 101/2/3 98/2/3 97/2/3
f 102/2/3 98/2/3 101/2/3
f 103/2/3 100/2/3 99/2/3
f 104/2/3 100/2/3 103/2/3
f 109/2/3 106/2/3 105/2/3
f 110/2/3 106/2/3 109/2/3
f 111/2/3 108/2/3 107/2/3
f 112/2/3 108/2/3 111/2/3
f 113/2/4 114/2/4 117/2/4
f 117/2/4 114/2/4 118/2/4
f 115/2/4 116/2/4 119/2/4
f 119/2/4 116/2/4 120/2/4
f 121/2/4 122/2/4 125/2/4
f 125/2/4 122/2/4 126/2/4
f 123/2/4 124/2/4 127/2/4
f 127/2/4 124/2/4 128/2/4
f 129/3/4 130/3/4 133/3/4
f 130/1/4 131/1/4 134/1/4
f 133/3/4 130/3/4 134/3/4
f 131/3/4 132/3/4 135/3/4
f 134/1/4 131/1/4 135/1/4
f 135/3/4 132/3/4 136/3/4
f 139/3/5 138/3/5 137/3/5
f 140/3/5 138/3/5 139/3/5
f 141/1/5 140/1/5 139/1/5
f 142/1/5 140/1/5 141/1/5
f 143/3/5 142/3/5 141/3/5
f 144/3/5 142/3/5 143/3/5
f 147/2/5 146/2/5 145/2/5
f 148/2/5 146/2/5 147/2/5
f 151/2/5 150/2/5 149/2/5
f 152/2/5 150/2/5 151/2/5
f 155/2/5 154/2/5 153/2/5
f 156/2/5 154/2/5 155/2/5
f 159/2/5 158/2/5 157/2/5
f 160/2/5 158/2/5 159/2/5
f 161/2/6 162/2/6 163/2/6
f 163/2/6 162/2/6 164/2/6
f 165/2/6 166/2/6 167/2/6
f 167/2/6 166/2/6 168/2/6
f 169/2/6 170/2/6 171/2/6
f 171/2/6 170/2/6 172/2/6
f 173/2/6 174/2/6 175/2/6
f 175/2/6 174/2/6 176/2/6
f 177/3/6 178/3/6 179/3/6
f 179/3/6 178/3/6 180/3/6
f 179/1/6 180/1/6 181/1/6
f 181/1/6 180/1/6 182/1/6
f 181/3/6 182/3/6 183/3/6
f 183/3/6 182/3/6 184/3/6
