# Blender v2.80 (sub 75) OBJ File: ''
# www.blender.org
mtllib ParedConBarra.mtl
o ParedConBarra
v -0.400000 0.400000 2.000000
v -0.400000 0.000000 -2.000000
v -0.400000 -0.000000 2.000000
v -0.400000 0.400000 0.100000
v -0.400000 0.400000 -0.100000
v -0.400000 0.400000 -2.000000
v -0.400000 4.000000 0.100001
v -0.400000 4.000000 -0.099999
v -0.300000 4.000000 2.000001
v -0.300000 0.400000 0.100000
v -0.300000 0.400000 2.000000
v -0.300000 4.000000 0.100001
v -0.300000 4.000000 -0.099999
v -0.300000 0.400000 -2.000000
v -0.300000 0.400000 -0.100000
v -0.300000 4.000000 -1.999999
v 0.300000 0.400000 2.000000
v 0.300000 0.400000 0.100000
v 0.300000 4.000000 2.000001
v 0.300000 4.000000 0.100001
v 0.300000 0.400000 -0.100000
v 0.300000 0.400000 -2.000000
v 0.300000 4.000000 -0.099999
v 0.300000 4.000000 -1.999999
v 0.400000 -0.000000 2.000000
v 0.400000 0.000000 -2.000000
v 0.400000 0.400000 2.000000
v 0.400000 0.400000 0.100000
v 0.400000 0.400000 -0.100000
v 0.400000 0.400000 -2.000000
v 0.400000 4.000000 0.100001
v 0.400000 4.000000 -0.099999
v -0.300000 0.400000 2.000000
v -0.400000 0.400000 2.000000
v -0.400000 -0.000000 2.000000
v 0.300000 0.400000 2.000000
v -0.300000 4.000000 2.000001
v 0.300000 4.000000 2.000001
v 0.400000 -0.000000 2.000000
v 0.400000 0.400000 2.000000
v -0.300000 0.400000 0.100000
v -0.400000 4.000000 0.100001
v -0.400000 0.400000 0.100000
v -0.300000 4.000000 0.100001
v 0.400000 0.400000 0.100000
v 0.300000 4.000000 0.100001
v 0.300000 0.400000 0.100000
v 0.400000 4.000000 0.100001
v -0.400000 0.400000 -0.100000
v -0.400000 4.000000 -0.099999
v -0.300000 0.400000 -0.100000
v -0.300000 4.000000 -0.099999
v 0.300000 0.400000 -0.100000
v 0.300000 4.000000 -0.099999
v 0.400000 0.400000 -0.100000
v 0.400000 4.000000 -0.099999
v -0.400000 0.000000 -2.000000
v -0.400000 0.400000 -2.000000
v -0.300000 0.400000 -2.000000
v 0.300000 0.400000 -2.000000
v -0.300000 4.000000 -1.999999
v 0.300000 4.000000 -1.999999
v 0.400000 0.000000 -2.000000
v 0.400000 0.400000 -2.000000
v -0.400000 0.000000 -2.000000
v 0.400000 -0.000000 2.000000
v -0.400000 -0.000000 2.000000
v 0.400000 0.000000 -2.000000
v -0.400000 0.400000 2.000000
v -0.300000 0.400000 2.000000
v -0.400000 0.400000 0.100000
v -0.300000 0.400000 0.100000
v 0.300000 0.400000 2.000000
v 0.400000 0.400000 2.000000
v 0.300000 0.400000 0.100000
v 0.400000 0.400000 0.100000
v -0.400000 0.400000 -0.100000
v -0.300000 0.400000 -0.100000
v -0.400000 0.400000 -2.000000
v -0.300000 0.400000 -2.000000
v 0.300000 0.400000 -0.100000
v 0.400000 0.400000 -0.100000
v 0.300000 0.400000 -2.000000
v 0.400000 0.400000 -2.000000
v -0.300000 4.000000 2.000001
v 0.300000 4.000000 2.000001
v -0.300000 4.000000 0.100001
v 0.300000 4.000000 0.100001
v -0.400000 4.000000 0.100001
v -0.400000 4.000000 -0.099999
v -0.300000 4.000000 -0.099999
v 0.400000 4.000000 0.100001
v 0.300000 4.000000 -0.099999
v 0.400000 4.000000 -0.099999
v -0.300000 4.000000 -1.999999
v 0.300000 4.000000 -1.999999
vt 0.791016 0.500000
vt 0.791016 0.500000
vt 0.791016 0.500000
vt 0.791016 0.500000
vt 0.791016 0.500000
vt 0.791016 0.500000
vt 0.791016 0.500000
vt 0.791016 0.500000
vt 0.814453 0.500000
vt 0.814453 0.500000
vt 0.814453 0.500000
vt 0.814453 0.500000
vt 0.814453 0.500000
vt 0.814453 0.500000
vt 0.814453 0.500000
vt 0.814453 0.500000
vt 0.814453 0.500000
vt 0.814453 0.500000
vt 0.814453 0.500000
vt 0.814453 0.500000
vt 0.814453 0.500000
vt 0.814453 0.500000
vt 0.814453 0.500000
vt 0.814453 0.500000
vt 0.791016 0.500000
vt 0.791016 0.500000
vt 0.791016 0.500000
vt 0.791016 0.500000
vt 0.791016 0.500000
vt 0.791016 0.500000
vt 0.791016 0.500000
vt 0.791016 0.500000
vt 0.791016 0.500000
vt 0.791016 0.500000
vt 0.791016 0.500000
vt 0.791016 0.500000
vt 0.814453 0.500000
vt 0.814453 0.500000
vt 0.814453 0.500000
vt 0.814453 0.500000
vt 0.791016 0.500000
vt 0.791016 0.500000
vt 0.791016 0.500000
vt 0.791016 0.500000
vt 0.791016 0.500000
vt 0.791016 0.500000
vt 0.791016 0.500000
vt 0.791016 0.500000
vt 0.791016 0.500000
vt 0.791016 0.500000
vt 0.791016 0.500000
vt 0.791016 0.500000
vt 0.791016 0.500000
vt 0.791016 0.500000
vt 0.791016 0.500000
vt 0.791016 0.500000
vt 0.791016 0.500000
vt 0.791016 0.500000
vt 0.791016 0.500000
vt 0.791016 0.500000
vt 0.791016 0.500000
vt 0.791016 0.500000
vt 0.814453 0.500000
vt 0.814453 0.500000
vt 0.814453 0.500000
vt 0.814453 0.500000
vt 0.791016 0.500000
vt 0.791016 0.500000
vt 0.791016 0.500000
vt 0.791016 0.500000
vt 0.791016 0.500000
vt 0.791016 0.500000
vt 0.791016 0.500000
vt 0.791016 0.500000
vt 0.791016 0.500000
vt 0.791016 0.500000
vt 0.791016 0.500000
vt 0.791016 0.500000
vt 0.791016 0.500000
vt 0.791016 0.500000
vt 0.791016 0.500000
vt 0.791016 0.500000
vt 0.791016 0.500000
vt 0.791016 0.500000
vt 0.791016 0.500000
vt 0.791016 0.500000
vt 0.791016 0.500000
vt 0.791016 0.500000
vt 0.814453 0.500000
vt 0.814453 0.500000
vt 0.814453 0.500000
vt 0.814453 0.500000
vt 0.791016 0.500000
vt 0.791016 0.500000
vt 0.791016 0.500000
vt 0.814453 0.500000
vt 0.791016 0.500000
vt 0.791016 0.500000
vt 0.791016 0.500000
vt 0.791016 0.500000
vt 0.814453 0.500000
vt 0.791016 0.500000
vt 0.814453 0.500000
vt 0.814453 0.500000
vn -1.0000 0.0000 0.0000
vn 1.0000 0.0000 0.0000
vn 0.0000 -0.0000 1.0000
vn 0.0000 0.0000 -1.0000
vn 0.0000 -1.0000 -0.0000
vn 0.0000 1.0000 0.0000
usemtl palette.001
s 1
f 1/1/1 2/2/1 3/3/1
f 4/4/1 2/2/1 1/1/1
f 5/5/1 2/2/1 4/4/1
f 6/6/1 2/2/1 5/5/1
f 7/7/1 5/5/1 4/4/1
f 8/8/1 5/5/1 7/7/1
f 9/9/1 10/10/1 11/11/1
f 12/12/1 10/10/1 9/9/1
f 13/13/1 14/14/1 15/15/1
f 16/16/1 14/14/1 13/13/1
f 17/17/2 18/18/2 19/19/2
f 19/19/2 18/18/2 20/20/2
f 21/21/2 22/22/2 23/23/2
f 23/23/2 22/22/2 24/24/2
f 25/25/2 26/26/2 27/27/2
f 27/27/2 26/26/2 28/28/2
f 28/28/2 26/26/2 29/29/2
f 29/29/2 26/26/2 30/30/2
f 28/28/2 29/29/2 31/31/2
f 31/31/2 29/29/2 32/32/2
f 33/33/3 34/34/3 35/35/3
f 36/36/3 33/33/3 35/35/3
f 36/37/3 37/38/3 33/39/3
f 38/40/3 37/38/3 36/37/3
f 39/41/3 36/36/3 35/35/3
f 40/42/3 36/36/3 39/41/3
f 41/43/3 42/44/3 43/45/3
f 44/46/3 42/44/3 41/43/3
f 45/47/3 46/48/3 47/49/3
f 48/50/3 46/48/3 45/47/3
f 49/51/4 50/52/4 51/53/4
f 51/53/4 50/52/4 52/54/4
f 53/55/4 54/56/4 55/57/4
f 55/57/4 54/56/4 56/58/4
f 57/59/4 58/60/4 59/61/4
f 57/59/4 59/61/4 60/62/4
f 59/63/4 61/64/4 60/65/4
f 60/65/4 61/64/4 62/66/4
f 57/59/4 60/62/4 63/67/4
f 63/67/4 60/62/4 64/68/4
f 65/69/5 66/70/5 67/71/5
f 68/72/5 66/70/5 65/69/5
f 69/73/6 70/74/6 71/75/6
f 71/75/6 70/74/6 72/76/6
f 73/77/6 74/78/6 75/79/6
f 75/79/6 74/78/6 76/80/6
f 77/81/6 78/82/6 79/83/6
f 79/83/6 78/82/6 80/84/6
f 81/85/6 82/86/6 83/87/6
f 83/87/6 82/86/6 84/88/6
f 85/89/6 86/90/6 87/91/6
f 87/91/6 86/90/6 88/92/6
f 89/93/6 87/94/6 90/95/6
f 87/91/6 88/92/6 91/96/6
f 90/95/6 87/94/6 91/97/6
f 88/98/6 92/99/6 93/100/6
f 91/96/6 88/92/6 93/101/6
f 93/100/6 92/99/6 94/102/6
f 91/96/6 93/101/6 95/103/6
f 95/103/6 93/101/6 96/104/6
