# MagicaVoxel @ Ephtracy

# group
o 

# material
mtllib ParedPuerta.mtl
usemtl palette

# normals
vn -1 0 0
vn 1 0 0
vn 0 0 1
vn 0 0 -1
vn 0 -1 0
vn 0 1 0

# texcoords
vt 0.00976563 0.5
vt 0.201172 0.5
vt 0.353516 0.5

# verts
v -0.4 0 2
v -0.4 0 1.8
v -0.4 0 1.6
v -0.4 0 -1.6
v -0.4 0 -1.8
v -0.4 0 -2
v -0.4 0.4 2
v -0.4 0.4 1.8
v -0.4 0.4 -1.8
v -0.4 0.4 -2
v -0.4 3.7 1.6
v -0.4 3.7 -1.6
v -0.4 3.9 1.8
v -0.4 3.9 -1.8
v -0.3 0.4 2
v -0.3 0.4 1.8
v -0.3 0.4 -1.8
v -0.3 0.4 -2
v -0.3 3.9 1.8
v -0.3 3.9 -1.8
v -0.3 4 2
v -0.3 4 -2
v 0.3 0.4 2
v 0.3 0.4 1.8
v 0.3 0.4 -1.8
v 0.3 0.4 -2
v 0.3 3.9 1.8
v 0.3 3.9 -1.8
v 0.3 4 2
v 0.3 4 -2
v 0.4 0 2
v 0.4 0 1.8
v 0.4 0 1.6
v 0.4 0 -1.6
v 0.4 0 -1.8
v 0.4 0 -2
v 0.4 0.4 2
v 0.4 0.4 1.8
v 0.4 0.4 -1.8
v 0.4 0.4 -2
v 0.4 3.7 1.6
v 0.4 3.7 -1.6
v 0.4 3.9 1.8
v 0.4 3.9 -1.8
v -0.4 0 2
v -0.4 0.4 2
v -0.3 0.4 2
v -0.3 4 2
v 0.3 0.4 2
v 0.3 4 2
v 0.4 0 2
v 0.4 0.4 2
v -0.4 0.4 1.8
v -0.4 3.9 1.8
v -0.3 0.4 1.8
v -0.3 3.9 1.8
v 0.3 0.4 1.8
v 0.3 3.9 1.8
v 0.4 0.4 1.8
v 0.4 3.9 1.8
v -0.4 0 -1.6
v -0.4 3.7 -1.6
v 0.4 0 -1.6
v 0.4 3.7 -1.6
v -0.4 0 1.6
v -0.4 3.7 1.6
v 0.4 0 1.6
v 0.4 3.7 1.6
v -0.4 0.4 -1.8
v -0.4 3.9 -1.8
v -0.3 0.4 -1.8
v -0.3 3.9 -1.8
v 0.3 0.4 -1.8
v 0.3 3.9 -1.8
v 0.4 0.4 -1.8
v 0.4 3.9 -1.8
v -0.4 0 -2
v -0.4 0.4 -2
v -0.3 0.4 -2
v -0.3 4 -2
v 0.3 0.4 -2
v 0.3 4 -2
v 0.4 0 -2
v 0.4 0.4 -2
v -0.4 0 2
v 0.4 0 2
v -0.4 0 1.8
v 0.4 0 1.8
v -0.4 0 1.6
v 0.4 0 1.6
v -0.4 0 -1.6
v 0.4 0 -1.6
v -0.4 0 -1.8
v 0.4 0 -1.8
v -0.4 0 -2
v 0.4 0 -2
v -0.4 3.7 1.6
v 0.4 3.7 1.6
v -0.4 3.7 -1.6
v 0.4 3.7 -1.6
v -0.4 0.4 2
v -0.3 0.4 2
v 0.3 0.4 2
v 0.4 0.4 2
v -0.4 0.4 1.8
v -0.3 0.4 1.8
v 0.3 0.4 1.8
v 0.4 0.4 1.8
v -0.4 0.4 -1.8
v -0.3 0.4 -1.8
v 0.3 0.4 -1.8
v 0.4 0.4 -1.8
v -0.4 0.4 -2
v -0.3 0.4 -2
v 0.3 0.4 -2
v 0.4 0.4 -2
v -0.4 3.9 1.8
v -0.3 3.9 1.8
v 0.3 3.9 1.8
v 0.4 3.9 1.8
v -0.4 3.9 -1.8
v -0.3 3.9 -1.8
v 0.3 3.9 -1.8
v 0.4 3.9 -1.8
v -0.3 4 2
v 0.3 4 2
v -0.3 4 -2
v 0.3 4 -2

# faces
f 7/2/1 2/2/1 1/2/1
f 8/3/1 3/3/1 2/3/1
f 8/2/1 2/2/1 7/2/1
f 9/2/1 6/2/1 5/2/1
f 9/3/1 5/3/1 4/3/1
f 10/2/1 6/2/1 9/2/1
f 11/3/1 3/3/1 8/3/1
f 12/3/1 9/3/1 4/3/1
f 13/3/1 11/3/1 8/3/1
f 13/3/1 12/3/1 11/3/1
f 14/3/1 9/3/1 12/3/1
f 14/3/1 12/3/1 13/3/1
f 19/1/1 16/1/1 15/1/1
f 20/1/1 18/1/1 17/1/1
f 21/1/1 19/1/1 15/1/1
f 21/1/1 20/1/1 19/1/1
f 22/1/1 18/1/1 20/1/1
f 22/1/1 20/1/1 21/1/1
f 23/1/2 24/1/2 27/1/2
f 25/1/2 26/1/2 28/1/2
f 23/1/2 27/1/2 29/1/2
f 27/1/2 28/1/2 29/1/2
f 28/1/2 26/1/2 30/1/2
f 29/1/2 28/1/2 30/1/2
f 31/2/2 32/2/2 37/2/2
f 32/3/2 33/3/2 38/3/2
f 37/2/2 32/2/2 38/2/2
f 35/2/2 36/2/2 39/2/2
f 34/3/2 35/3/2 39/3/2
f 39/2/2 36/2/2 40/2/2
f 38/3/2 33/3/2 41/3/2
f 34/3/2 39/3/2 42/3/2
f 38/3/2 41/3/2 43/3/2
f 41/3/2 42/3/2 43/3/2
f 42/3/2 39/3/2 44/3/2
f 43/3/2 42/3/2 44/3/2
f 47/2/3 46/2/3 45/2/3
f 49/2/3 47/2/3 45/2/3
f 49/1/3 48/1/3 47/1/3
f 50/1/3 48/1/3 49/1/3
f 51/2/3 49/2/3 45/2/3
f 52/2/3 49/2/3 51/2/3
f 55/3/3 54/3/3 53/3/3
f 56/3/3 54/3/3 55/3/3
f 59/3/3 58/3/3 57/3/3
f 60/3/3 58/3/3 59/3/3
f 63/3/3 62/3/3 61/3/3
f 64/3/3 62/3/3 63/3/3
f 65/3/4 66/3/4 67/3/4
f 67/3/4 66/3/4 68/3/4
f 69/3/4 70/3/4 71/3/4
f 71/3/4 70/3/4 72/3/4
f 73/3/4 74/3/4 75/3/4
f 75/3/4 74/3/4 76/3/4
f 77/2/4 78/2/4 79/2/4
f 77/2/4 79/2/4 81/2/4
f 79/1/4 80/1/4 81/1/4
f 81/1/4 80/1/4 82/1/4
f 77/2/4 81/2/4 83/2/4
f 83/2/4 81/2/4 84/2/4
f 87/2/5 86/2/5 85/2/5
f 88/2/5 86/2/5 87/2/5
f 89/3/5 88/3/5 87/3/5
f 90/3/5 88/3/5 89/3/5
f 93/3/5 92/3/5 91/3/5
f 94/3/5 92/3/5 93/3/5
f 95/2/5 94/2/5 93/2/5
f 96/2/5 94/2/5 95/2/5
f 99/3/5 98/3/5 97/3/5
f 100/3/5 98/3/5 99/3/5
f 101/2/6 102/2/6 105/2/6
f 105/2/6 102/2/6 106/2/6
f 103/2/6 104/2/6 107/2/6
f 107/2/6 104/2/6 108/2/6
f 109/2/6 110/2/6 113/2/6
f 113/2/6 110/2/6 114/2/6
f 111/2/6 112/2/6 115/2/6
f 115/2/6 112/2/6 116/2/6
f 117/3/6 118/3/6 121/3/6
f 121/3/6 118/3/6 122/3/6
f 119/3/6 120/3/6 123/3/6
f 123/3/6 120/3/6 124/3/6
f 125/1/6 126/1/6 127/1/6
f 127/1/6 126/1/6 128/1/6
