# MagicaVoxel @ Ephtracy

# group
o 

# material
mtllib PizarraSinProyector.mtl
usemtl palette

# normals
vn -1 0 0
vn 1 0 0
vn 0 0 1
vn 0 0 -1
vn 0 -1 0
vn 0 1 0

# texcoords
vt 0.736328 0.5
vt 0.748047 0.5
vt 0.818359 0.5
vt 0.962891 0.5
vt 0.974609 0.5
vt 0.978516 0.5
vt 0.982422 0.5
vt 0.986328 0.5

# verts
v -0.1 0 1.2
v -0.1 0 -4.4
v -0.1 0.2 1.1
v -0.1 0.2 -4.3
v -0.1 2.9 1.1
v -0.1 2.9 -4.3
v -0.1 3 1.2
v -0.1 3 -4.4
v -0.1 3.4 3.9
v -0.1 3.4 -1
v -0.1 3.5 3.9
v -0.1 3.5 2
v -0.1 3.5 0.9
v -0.1 3.5 -1
v -0.1 3.6 2
v -0.1 3.6 0.9
v 0 3.3 3.9
v 0 3.3 -1
v 0 3.4 3.9
v 0 3.4 -1
v 0.1 0.2 -0.8
v 0.1 0.2 -1.3
v 0.1 0.3 -0.8
v 0.1 0.3 -1.3
v 0.1 3.1 3.8
v 0.1 3.1 -0.9
v 0.1 3.2 3.9
v 0.1 3.2 3.8
v 0.1 3.2 -0.9
v 0.1 3.2 -1
v 0.1 3.3 3.9
v 0.1 3.3 -1
v 0.2 0.1 0.6
v 0.2 0.1 0.4
v 0.2 0.1 -3.3
v 0.2 0.1 -3.4
v 0.2 0.2 0.6
v 0.2 0.2 0.4
v 0.2 0.2 -3.3
v 0.2 0.2 -3.4
v 0 0.2 1.1
v 0 0.2 -4.3
v 0 2.9 1.1
v 0 2.9 -4.3
v 0 3.5 2
v 0 3.5 0.9
v 0 3.6 2
v 0 3.6 0.9
v 0.1 0.1 0.6
v 0.1 0.1 0.4
v 0.1 0.1 0.0999999
v 0.1 0.1 0
v 0.1 0.1 -0.4
v 0.1 0.1 -0.8
v 0.1 0.1 -1.3
v 0.1 0.1 -2
v 0.1 0.1 -2.3
v 0.1 0.1 -2.8
v 0.1 0.1 -3
v 0.1 0.1 -3.7
v 0.1 0.1 -3.8
v 0.1 0.1 -4.3
v 0.1 0.2 1.2
v 0.1 0.2 1.1
v 0.1 0.2 0.6
v 0.1 0.2 0.4
v 0.1 0.2 0.0999999
v 0.1 0.2 0
v 0.1 0.2 -0.4
v 0.1 0.2 -0.8
v 0.1 0.2 -1.3
v 0.1 0.2 -2
v 0.1 0.2 -2.3
v 0.1 0.2 -2.8
v 0.1 0.2 -3
v 0.1 0.2 -3.7
v 0.1 0.2 -3.8
v 0.1 0.2 -4.3
v 0.1 0.2 -4.4
v 0.1 2.9 1.1
v 0.1 2.9 -4.3
v 0.1 3 1.2
v 0.1 3 -4.4
v 0.1 3.4 3.9
v 0.1 3.4 -1
v 0.1 3.5 3.9
v 0.1 3.5 -1
v 0.2 0 1.2
v 0.2 0 1.1
v 0.2 0 -4.3
v 0.2 0 -4.4
v 0.2 0.1 1.2
v 0.2 0.1 1.1
v 0.2 0.1 0.7
v 0.2 0.1 0.3
v 0.2 0.1 0.0999999
v 0.2 0.1 0
v 0.2 0.1 -0.4
v 0.2 0.1 -2.8
v 0.2 0.1 -3
v 0.2 0.1 -3.7
v 0.2 0.1 -3.8
v 0.2 0.1 -4.3
v 0.2 0.1 -4.4
v 0.2 0.2 1.1
v 0.2 0.2 0.7
v 0.2 0.2 0.3
v 0.2 0.2 0.0999999
v 0.2 0.2 0
v 0.2 0.2 -0.4
v 0.2 0.2 -2.8
v 0.2 0.2 -3
v 0.2 0.2 -3.7
v 0.2 0.2 -3.8
v 0.2 3.1 3.8
v 0.2 3.1 -0.9
v 0.2 3.2 3.8
v 0.2 3.2 -0.9
v 0.2 3.3 3.9
v 0.2 3.3 -1
v 0.2 3.4 3.9
v 0.2 3.4 -1
v 0.3 0 1.1
v 0.3 0 -4.3
v 0.3 0.1 1.2
v 0.3 0.1 1.1
v 0.3 0.1 0.7
v 0.3 0.1 0.3
v 0.3 0.1 -0.8
v 0.3 0.1 -1.3
v 0.3 0.1 -2
v 0.3 0.1 -2.3
v 0.3 0.1 -3.3
v 0.3 0.1 -3.4
v 0.3 0.1 -4.3
v 0.3 0.1 -4.4
v 0.3 0.2 1.2
v 0.3 0.2 1.1
v 0.3 0.2 0.7
v 0.3 0.2 0.3
v 0.3 0.2 -0.8
v 0.3 0.2 -1.3
v 0.3 0.2 -2
v 0.3 0.2 -2.3
v 0.3 0.2 -3.3
v 0.3 0.2 -3.4
v 0.3 0.2 -4.3
v 0.3 0.2 -4.4
v 0.3 0.3 -0.8
v 0.3 0.3 -1.3
v 0.3 3.2 3.9
v 0.3 3.2 -1
v 0.3 3.3 3.9
v 0.3 3.3 -1
v -0.1 3.4 3.9
v -0.1 3.5 3.9
v 0 3.3 3.9
v 0 3.4 3.9
v 0.1 3.2 3.9
v 0.1 3.3 3.9
v 0.1 3.4 3.9
v 0.1 3.5 3.9
v 0.2 3.3 3.9
v 0.2 3.4 3.9
v 0.3 3.2 3.9
v 0.3 3.3 3.9
v 0.1 3.1 3.8
v 0.1 3.2 3.8
v 0.2 3.1 3.8
v 0.2 3.2 3.8
v -0.1 3.5 2
v -0.1 3.6 2
v 0 3.5 2
v 0 3.6 2
v -0.1 0 1.2
v -0.1 3 1.2
v 0.1 0.2 1.2
v 0.1 3 1.2
v 0.2 0 1.2
v 0.2 0.1 1.2
v 0.3 0.1 1.2
v 0.3 0.2 1.2
v 0.2 0 1.1
v 0.2 0.1 1.1
v 0.3 0 1.1
v 0.3 0.1 1.1
v 0.2 0.1 0.7
v 0.2 0.2 0.7
v 0.3 0.1 0.7
v 0.3 0.2 0.7
v 0.1 0.1 0.4
v 0.1 0.2 0.4
v 0.2 0.1 0.4
v 0.2 0.2 0.4
v 0.1 0.1 0
v 0.1 0.2 0
v 0.2 0.1 0
v 0.2 0.2 0
v 0.1 0.1 -0.8
v 0.1 0.2 -0.8
v 0.1 0.3 -0.8
v 0.3 0.1 -0.8
v 0.3 0.2 -0.8
v 0.3 0.3 -0.8
v 0.1 0.1 -2
v 0.1 0.2 -2
v 0.3 0.1 -2
v 0.3 0.2 -2
v 0.1 0.1 -2.8
v 0.1 0.2 -2.8
v 0.2 0.1 -2.8
v 0.2 0.2 -2.8
v 0.2 0.1 -3.3
v 0.2 0.2 -3.3
v 0.3 0.1 -3.3
v 0.3 0.2 -3.3
v 0.1 0.1 -3.7
v 0.1 0.2 -3.7
v 0.2 0.1 -3.7
v 0.2 0.2 -3.7
v 0 0.2 -4.3
v 0 2.9 -4.3
v 0.1 0.1 -4.3
v 0.1 0.2 -4.3
v 0.1 2.9 -4.3
v 0.3 0.1 -4.3
v 0.3 0.2 -4.3
v 0 0.2 1.1
v 0 2.9 1.1
v 0.1 0.2 1.1
v 0.1 2.9 1.1
v 0.2 0.1 1.1
v 0.2 0.2 1.1
v 0.3 0.1 1.1
v 0.3 0.2 1.1
v -0.1 3.5 0.9
v -0.1 3.6 0.9
v 0 3.5 0.9
v 0 3.6 0.9
v 0.1 0.1 0.6
v 0.1 0.2 0.6
v 0.2 0.1 0.6
v 0.2 0.2 0.6
v 0.2 0.1 0.3
v 0.2 0.2 0.3
v 0.3 0.1 0.3
v 0.3 0.2 0.3
v 0.1 0.1 0.0999999
v 0.1 0.2 0.0999999
v 0.2 0.1 0.0999999
v 0.2 0.2 0.0999999
v 0.1 0.1 -0.4
v 0.1 0.2 -0.4
v 0.2 0.1 -0.4
v 0.2 0.2 -0.4
v 0.1 3.1 -0.9
v 0.1 3.2 -0.9
v 0.2 3.1 -0.9
v 0.2 3.2 -0.9
v -0.1 3.4 -1
v -0.1 3.5 -1
v 0 3.3 -1
v 0 3.4 -1
v 0.1 3.2 -1
v 0.1 3.3 -1
v 0.1 3.4 -1
v 0.1 3.5 -1
v 0.2 3.3 -1
v 0.2 3.4 -1
v 0.3 3.2 -1
v 0.3 3.3 -1
v 0.1 0.1 -1.3
v 0.1 0.2 -1.3
v 0.1 0.3 -1.3
v 0.3 0.1 -1.3
v 0.3 0.2 -1.3
v 0.3 0.3 -1.3
v 0.1 0.1 -2.3
v 0.1 0.2 -2.3
v 0.3 0.1 -2.3
v 0.3 0.2 -2.3
v 0.1 0.1 -3
v 0.1 0.2 -3
v 0.2 0.1 -3
v 0.2 0.2 -3
v 0.2 0.1 -3.4
v 0.2 0.2 -3.4
v 0.3 0.1 -3.4
v 0.3 0.2 -3.4
v 0.1 0.1 -3.8
v 0.1 0.2 -3.8
v 0.2 0.1 -3.8
v 0.2 0.2 -3.8
v 0.2 0 -4.3
v 0.2 0.1 -4.3
v 0.3 0 -4.3
v 0.3 0.1 -4.3
v -0.1 0 -4.4
v -0.1 3 -4.4
v 0.1 0.2 -4.4
v 0.1 3 -4.4
v 0.2 0 -4.4
v 0.2 0.1 -4.4
v 0.3 0.1 -4.4
v 0.3 0.2 -4.4
v -0.1 0 1.2
v 0.2 0 1.2
v 0.2 0 1.1
v 0.3 0 1.1
v 0.2 0 -4.3
v 0.3 0 -4.3
v -0.1 0 -4.4
v 0.2 0 -4.4
v 0.2 0.1 1.2
v 0.3 0.1 1.2
v 0.2 0.1 1.1
v 0.3 0.1 1.1
v 0.2 0.1 -4.3
v 0.3 0.1 -4.3
v 0.2 0.1 -4.4
v 0.3 0.1 -4.4
v 0 2.9 1.1
v 0.1 2.9 1.1
v 0 2.9 -4.3
v 0.1 2.9 -4.3
v 0.1 3.1 3.8
v 0.2 3.1 3.8
v 0.1 3.1 -0.9
v 0.2 3.1 -0.9
v 0.1 3.2 3.9
v 0.3 3.2 3.9
v 0.1 3.2 3.8
v 0.2 3.2 3.8
v 0.1 3.2 -0.9
v 0.2 3.2 -0.9
v 0.1 3.2 -1
v 0.3 3.2 -1
v 0 3.3 3.9
v 0.1 3.3 3.9
v 0 3.3 -1
v 0.1 3.3 -1
v -0.1 3.4 3.9
v 0 3.4 3.9
v -0.1 3.4 -1
v 0 3.4 -1
v 0.2 0.1 1.1
v 0.3 0.1 1.1
v 0.2 0.1 0.7
v 0.3 0.1 0.7
v 0.1 0.1 0.6
v 0.2 0.1 0.6
v 0.1 0.1 0.4
v 0.2 0.1 0.4
v 0.2 0.1 0.3
v 0.3 0.1 0.3
v 0.1 0.1 0.0999999
v 0.2 0.1 0.0999999
v 0.1 0.1 0
v 0.2 0.1 0
v 0.1 0.1 -0.4
v 0.2 0.1 -0.4
v 0.1 0.1 -0.8
v 0.3 0.1 -0.8
v 0.1 0.1 -1.3
v 0.3 0.1 -1.3
v 0.1 0.1 -2
v 0.3 0.1 -2
v 0.1 0.1 -2.3
v 0.3 0.1 -2.3
v 0.1 0.1 -2.8
v 0.2 0.1 -2.8
v 0.1 0.1 -3
v 0.2 0.1 -3
v 0.2 0.1 -3.3
v 0.3 0.1 -3.3
v 0.2 0.1 -3.4
v 0.3 0.1 -3.4
v 0.1 0.1 -3.7
v 0.2 0.1 -3.7
v 0.1 0.1 -3.8
v 0.2 0.1 -3.8
v 0.1 0.1 -4.3
v 0.3 0.1 -4.3
v 0.1 0.2 1.2
v 0.3 0.2 1.2
v 0 0.2 1.1
v 0.1 0.2 1.1
v 0.2 0.2 1.1
v 0.3 0.2 1.1
v 0.2 0.2 0.7
v 0.3 0.2 0.7
v 0.1 0.2 0.6
v 0.2 0.2 0.6
v 0.1 0.2 0.4
v 0.2 0.2 0.4
v 0.2 0.2 0.3
v 0.3 0.2 0.3
v 0.1 0.2 0.0999999
v 0.2 0.2 0.0999999
v 0.1 0.2 0
v 0.2 0.2 0
v 0.1 0.2 -0.4
v 0.2 0.2 -0.4
v 0.1 0.2 -0.8
v 0.1 0.2 -1.3
v 0.1 0.2 -2
v 0.3 0.2 -2
v 0.1 0.2 -2.3
v 0.3 0.2 -2.3
v 0.1 0.2 -2.8
v 0.2 0.2 -2.8
v 0.1 0.2 -3
v 0.2 0.2 -3
v 0.2 0.2 -3.3
v 0.3 0.2 -3.3
v 0.2 0.2 -3.4
v 0.3 0.2 -3.4
v 0.1 0.2 -3.7
v 0.2 0.2 -3.7
v 0.1 0.2 -3.8
v 0.2 0.2 -3.8
v 0 0.2 -4.3
v 0.1 0.2 -4.3
v 0.3 0.2 -4.3
v 0.1 0.2 -4.4
v 0.3 0.2 -4.4
v 0.1 0.3 -0.8
v 0.3 0.3 -0.8
v 0.1 0.3 -1.3
v 0.3 0.3 -1.3
v -0.1 3 1.2
v 0.1 3 1.2
v -0.1 3 -4.4
v 0.1 3 -4.4
v 0.2 3.3 3.9
v 0.3 3.3 3.9
v 0.2 3.3 -1
v 0.3 3.3 -1
v 0.1 3.4 3.9
v 0.2 3.4 3.9
v 0.1 3.4 -1
v 0.2 3.4 -1
v -0.1 3.5 3.9
v 0.1 3.5 3.9
v -0.1 3.5 2
v 0 3.5 2
v -0.1 3.5 0.9
v 0 3.5 0.9
v -0.1 3.5 -1
v 0.1 3.5 -1
v -0.1 3.6 2
v 0 3.6 2
v -0.1 3.6 0.9
v 0 3.6 0.9

# faces
f 3/6/1 2/6/1 1/6/1
f 4/6/1 2/6/1 3/6/1
f 5/6/1 3/6/1 1/6/1
f 5/2/1 4/2/1 3/2/1
f 6/6/1 2/6/1 4/6/1
f 6/2/1 4/2/1 5/2/1
f 7/6/1 5/6/1 1/6/1
f 7/6/1 6/6/1 5/6/1
f 8/6/1 2/6/1 6/6/1
f 8/6/1 6/6/1 7/6/1
f 11/6/1 10/6/1 9/6/1
f 12/6/1 10/6/1 11/6/1
f 13/6/1 10/6/1 12/6/1
f 14/6/1 10/6/1 13/6/1
f 15/6/1 13/6/1 12/6/1
f 16/6/1 13/6/1 15/6/1
f 19/6/1 18/6/1 17/6/1
f 20/6/1 18/6/1 19/6/1
f 23/3/1 22/3/1 21/3/1
f 24/3/1 22/3/1 23/3/1
f 28/7/1 26/7/1 25/7/1
f 29/7/1 26/7/1 28/7/1
f 31/6/1 28/6/1 27/6/1
f 31/6/1 30/6/1 29/6/1
f 31/6/1 29/6/1 28/6/1
f 32/6/1 30/6/1 31/6/1
f 37/1/1 34/1/1 33/1/1
f 38/1/1 34/1/1 37/1/1
f 39/7/1 36/7/1 35/7/1
f 40/7/1 36/7/1 39/7/1
f 41/2/2 42/2/2 43/2/2
f 43/2/2 42/2/2 44/2/2
f 45/6/2 46/6/2 47/6/2
f 47/6/2 46/6/2 48/6/2
f 49/6/2 50/6/2 65/6/2
f 65/6/2 50/6/2 66/6/2
f 51/6/2 52/6/2 67/6/2
f 67/6/2 52/6/2 68/6/2
f 53/6/2 54/6/2 69/6/2
f 69/6/2 54/6/2 70/6/2
f 55/6/2 56/6/2 71/6/2
f 71/6/2 56/6/2 72/6/2
f 57/6/2 58/6/2 73/6/2
f 73/6/2 58/6/2 74/6/2
f 59/6/2 60/6/2 75/6/2
f 75/6/2 60/6/2 76/6/2
f 61/6/2 62/6/2 77/6/2
f 77/6/2 62/6/2 78/6/2
f 63/6/2 64/6/2 80/6/2
f 78/6/2 79/6/2 81/6/2
f 63/6/2 80/6/2 82/6/2
f 80/6/2 81/6/2 82/6/2
f 81/6/2 79/6/2 83/6/2
f 82/6/2 81/6/2 83/6/2
f 84/6/2 85/6/2 86/6/2
f 86/6/2 85/6/2 87/6/2
f 88/6/2 89/6/2 92/6/2
f 92/6/2 89/6/2 93/6/2
f 90/6/2 91/6/2 103/6/2
f 103/6/2 91/6/2 104/6/2
f 93/8/2 94/8/2 105/8/2
f 105/8/2 94/8/2 106/8/2
f 95/7/2 96/7/2 107/7/2
f 107/7/2 96/7/2 108/7/2
f 97/4/2 98/4/2 109/4/2
f 109/4/2 98/4/2 110/4/2
f 99/4/2 100/4/2 111/4/2
f 111/4/2 100/4/2 112/4/2
f 101/4/2 102/4/2 113/4/2
f 113/4/2 102/4/2 114/4/2
f 115/7/2 116/7/2 117/7/2
f 117/7/2 116/7/2 118/7/2
f 119/6/2 120/6/2 121/6/2
f 121/6/2 120/6/2 122/6/2
f 123/6/2 124/6/2 126/6/2
f 126/6/2 124/6/2 127/6/2
f 127/6/2 124/6/2 128/6/2
f 128/6/2 124/6/2 129/6/2
f 129/6/2 124/6/2 130/6/2
f 130/6/2 124/6/2 131/6/2
f 131/6/2 124/6/2 132/6/2
f 132/6/2 124/6/2 133/6/2
f 133/6/2 124/6/2 134/6/2
f 134/6/2 124/6/2 135/6/2
f 125/6/2 126/6/2 137/6/2
f 137/6/2 126/6/2 138/6/2
f 127/1/2 128/1/2 139/1/2
f 139/1/2 128/1/2 140/1/2
f 129/5/2 130/5/2 141/5/2
f 141/5/2 130/5/2 142/5/2
f 131/7/2 132/7/2 143/7/2
f 143/7/2 132/7/2 144/7/2
f 133/7/2 134/7/2 145/7/2
f 145/7/2 134/7/2 146/7/2
f 135/6/2 136/6/2 147/6/2
f 147/6/2 136/6/2 148/6/2
f 141/3/2 142/3/2 149/3/2
f 149/3/2 142/3/2 150/3/2
f 151/6/2 152/6/2 153/6/2
f 153/6/2 152/6/2 154/6/2
f 158/6/3 156/6/3 155/6/3
f 160/6/3 158/6/3 157/6/3
f 161/6/3 156/6/3 158/6/3
f 161/6/3 158/6/3 160/6/3
f 162/6/3 156/6/3 161/6/3
f 163/6/3 160/6/3 159/6/3
f 163/6/3 161/6/3 160/6/3
f 164/6/3 161/6/3 163/6/3
f 165/6/3 163/6/3 159/6/3
f 166/6/3 163/6/3 165/6/3
f 169/7/3 168/7/3 167/7/3
f 170/7/3 168/7/3 169/7/3
f 173/6/3 172/6/3 171/6/3
f 174/6/3 172/6/3 173/6/3
f 177/6/3 176/6/3 175/6/3
f 178/6/3 176/6/3 177/6/3
f 179/6/3 177/6/3 175/6/3
f 180/6/3 177/6/3 179/6/3
f 181/6/3 177/6/3 180/6/3
f 182/6/3 177/6/3 181/6/3
f 185/6/3 184/6/3 183/6/3
f 186/6/3 184/6/3 185/6/3
f 189/1/3 188/1/3 187/1/3
f 190/1/3 188/1/3 189/1/3
f 193/7/3 192/7/3 191/7/3
f 194/7/3 192/7/3 193/7/3
f 197/4/3 196/4/3 195/4/3
f 198/4/3 196/4/3 197/4/3
f 202/5/3 200/5/3 199/5/3
f 203/3/3 201/3/3 200/3/3
f 203/5/3 200/5/3 202/5/3
f 204/3/3 201/3/3 203/3/3
f 207/7/3 206/7/3 205/7/3
f 208/7/3 206/7/3 207/7/3
f 211/4/3 210/4/3 209/4/3
f 212/4/3 210/4/3 211/4/3
f 215/7/3 214/7/3 213/7/3
f 216/7/3 214/7/3 215/7/3
f 219/4/3 218/4/3 217/4/3
f 220/4/3 218/4/3 219/4/3
f 224/6/3 222/6/3 221/6/3
f 225/6/3 222/6/3 224/6/3
f 226/6/3 224/6/3 223/6/3
f 227/6/3 224/6/3 226/6/3
f 228/6/4 229/6/4 230/6/4
f 230/6/4 229/6/4 231/6/4
f 232/6/4 233/6/4 234/6/4
f 234/6/4 233/6/4 235/6/4
f 236/6/4 237/6/4 238/6/4
f 238/6/4 237/6/4 239/6/4
f 240/8/4 241/8/4 242/8/4
f 242/8/4 241/8/4 243/8/4
f 244/1/4 245/1/4 246/1/4
f 246/1/4 245/1/4 247/1/4
f 248/7/4 249/7/4 250/7/4
f 250/7/4 249/7/4 251/7/4
f 252/4/4 253/4/4 254/4/4
f 254/4/4 253/4/4 255/4/4
f 256/7/4 257/7/4 258/7/4
f 258/7/4 257/7/4 259/7/4
f 260/6/4 261/6/4 263/6/4
f 262/6/4 263/6/4 265/6/4
f 263/6/4 261/6/4 266/6/4
f 265/6/4 263/6/4 266/6/4
f 266/6/4 261/6/4 267/6/4
f 264/6/4 265/6/4 268/6/4
f 265/6/4 266/6/4 268/6/4
f 268/6/4 266/6/4 269/6/4
f 264/6/4 268/6/4 270/6/4
f 270/6/4 268/6/4 271/6/4
f 272/5/4 273/5/4 275/5/4
f 273/3/4 274/3/4 276/3/4
f 275/5/4 273/5/4 276/5/4
f 276/3/4 274/3/4 277/3/4
f 278/7/4 279/7/4 280/7/4
f 280/7/4 279/7/4 281/7/4
f 282/4/4 283/4/4 284/4/4
f 284/4/4 283/4/4 285/4/4
f 286/7/4 287/7/4 288/7/4
f 288/7/4 287/7/4 289/7/4
f 290/4/4 291/4/4 292/4/4
f 292/4/4 291/4/4 293/4/4
f 294/6/4 295/6/4 296/6/4
f 296/6/4 295/6/4 297/6/4
f 298/6/4 299/6/4 300/6/4
f 300/6/4 299/6/4 301/6/4
f 298/6/4 300/6/4 302/6/4
f 302/6/4 300/6/4 303/6/4
f 303/6/4 300/6/4 304/6/4
f 304/6/4 300/6/4 305/6/4
f 308/6/5 307/6/5 306/6/5
f 310/6/5 308/6/5 306/6/5
f 310/6/5 309/6/5 308/6/5
f 311/6/5 309/6/5 310/6/5
f 312/6/5 310/6/5 306/6/5
f 313/6/5 310/6/5 312/6/5
f 316/6/5 315/6/5 314/6/5
f 317/6/5 315/6/5 316/6/5
f 320/6/5 319/6/5 318/6/5
f 321/6/5 319/6/5 320/6/5
f 324/6/5 323/6/5 322/6/5
f 325/6/5 323/6/5 324/6/5
f 328/7/5 327/7/5 326/7/5
f 329/7/5 327/7/5 328/7/5
f 332/6/5 331/6/5 330/6/5
f 333/6/5 331/6/5 332/6/5
f 335/6/5 331/6/5 333/6/5
f 336/6/5 335/6/5 334/6/5
f 337/6/5 331/6/5 335/6/5
f 337/6/5 335/6/5 336/6/5
f 340/6/5 339/6/5 338/6/5
f 341/6/5 339/6/5 340/6/5
f 344/6/5 343/6/5 342/6/5
f 345/6/5 343/6/5 344/6/5
f 346/6/6 347/6/6 348/6/6
f 348/6/6 347/6/6 349/6/6
f 350/6/6 351/6/6 352/6/6
f 352/6/6 351/6/6 353/6/6
f 354/6/6 355/6/6 357/6/6
f 356/6/6 357/6/6 358/6/6
f 357/6/6 355/6/6 359/6/6
f 358/6/6 357/6/6 359/6/6
f 359/6/6 355/6/6 361/6/6
f 360/6/6 361/6/6 362/6/6
f 361/6/6 355/6/6 363/6/6
f 362/6/6 361/6/6 363/6/6
f 364/6/6 365/6/6 366/6/6
f 366/6/6 365/6/6 367/6/6
f 368/6/6 369/6/6 370/6/6
f 370/6/6 369/6/6 371/6/6
f 371/6/6 369/6/6 373/6/6
f 373/6/6 369/6/6 374/6/6
f 372/6/6 373/6/6 374/6/6
f 374/6/6 369/6/6 375/6/6
f 372/6/6 374/6/6 376/6/6
f 372/6/6 376/6/6 378/6/6
f 376/6/6 377/6/6 378/6/6
f 378/6/6 377/6/6 379/6/6
f 379/6/6 377/6/6 381/6/6
f 380/6/6 381/6/6 382/6/6
f 381/6/6 377/6/6 383/6/6
f 382/6/6 381/6/6 383/6/6
f 384/6/6 385/6/6 387/6/6
f 387/6/6 385/6/6 388/6/6
f 388/6/6 385/6/6 389/6/6
f 387/8/6 388/8/6 390/8/6
f 386/6/6 387/6/6 392/6/6
f 387/8/6 390/8/6 392/8/6
f 390/1/6 391/1/6 393/1/6
f 392/8/6 390/8/6 393/8/6
f 386/6/6 392/6/6 394/6/6
f 393/1/6 391/1/6 395/1/6
f 395/1/6 391/1/6 396/1/6
f 394/7/6 395/7/6 396/7/6
f 396/1/6 391/1/6 397/1/6
f 386/6/6 394/6/6 398/6/6
f 394/7/6 396/7/6 398/7/6
f 398/7/6 396/7/6 399/7/6
f 386/6/6 398/6/6 400/6/6
f 386/6/6 400/6/6 402/6/6
f 400/4/6 401/4/6 402/4/6
f 402/4/6 401/4/6 403/4/6
f 386/6/6 402/6/6 404/6/6
f 386/6/6 404/6/6 405/6/6
f 386/6/6 405/6/6 406/6/6
f 386/6/6 406/6/6 408/6/6
f 406/7/6 407/7/6 408/7/6
f 408/7/6 407/7/6 409/7/6
f 386/6/6 408/6/6 410/6/6
f 386/6/6 410/6/6 412/6/6
f 410/4/6 411/4/6 412/4/6
f 412/4/6 411/4/6 413/4/6
f 414/7/6 415/7/6 416/7/6
f 416/7/6 415/7/6 417/7/6
f 386/6/6 412/6/6 418/6/6
f 386/6/6 418/6/6 420/6/6
f 418/4/6 419/4/6 420/4/6
f 420/4/6 419/4/6 421/4/6
f 386/6/6 420/6/6 422/6/6
f 422/6/6 420/6/6 423/6/6
f 423/6/6 424/6/6 425/6/6
f 425/6/6 424/6/6 426/6/6
f 427/3/6 428/3/6 429/3/6
f 429/3/6 428/3/6 430/3/6
f 431/6/6 432/6/6 433/6/6
f 433/6/6 432/6/6 434/6/6
f 435/6/6 436/6/6 437/6/6
f 437/6/6 436/6/6 438/6/6
f 439/6/6 440/6/6 441/6/6
f 441/6/6 440/6/6 442/6/6
f 443/6/6 444/6/6 445/6/6
f 445/6/6 444/6/6 446/6/6
f 446/6/6 444/6/6 448/6/6
f 447/6/6 448/6/6 449/6/6
f 448/6/6 444/6/6 450/6/6
f 449/6/6 448/6/6 450/6/6
f 451/6/6 452/6/6 453/6/6
f 453/6/6 452/6/6 454/6/6
