# Blender v2.83.18 OBJ File: ''
# www.blender.org
mtllib Silla.mtl
o ObjObject.001
v -0.404424 0.317843 0.400000
v -0.404424 0.217843 0.300000
v -0.404424 0.217843 0.400000
v -0.404424 0.317843 0.300000
v -0.404424 0.317843 -0.300000
v -0.404424 0.217843 -0.400000
v -0.404424 0.217843 -0.300000
v -0.404424 0.317843 -0.400000
v -0.404424 0.417843 0.400000
v -0.404424 0.417843 -0.400000
v -0.304424 0.217843 0.400000
v -0.304424 0.117843 0.300000
v -0.304424 0.117843 0.400000
v -0.304424 0.217843 0.300000
v -0.304424 0.217843 -0.300000
v -0.304424 0.117843 -0.400000
v -0.304424 0.117843 -0.300000
v -0.304424 0.217843 -0.400000
v -0.204424 0.117843 0.400000
v -0.204424 0.017843 0.300000
v -0.204424 0.017843 0.400000
v -0.204424 0.117843 0.300000
v -0.204424 0.117843 -0.300000
v -0.204424 0.017843 -0.400000
v -0.204424 0.017843 -0.300000
v -0.204424 0.117843 -0.400000
v 0.295576 0.317843 0.400000
v 0.295576 0.017843 0.300000
v 0.295576 0.017843 0.400000
v 0.295576 0.317843 0.300000
v 0.295576 0.317843 -0.300000
v 0.295576 0.017843 -0.400000
v 0.295576 0.017843 -0.300000
v 0.295576 0.317843 -0.400000
v 0.295576 0.517843 0.300000
v 0.295576 0.417843 0.300000
v 0.295576 0.417843 0.400000
v 0.295576 0.517843 -0.300000
v 0.295576 0.417843 -0.400000
v 0.295576 0.417843 -0.300000
v 0.295576 0.617843 0.300000
v 0.295576 0.617843 -0.300000
v 0.295576 0.817843 0.300000
v 0.295576 0.817843 -0.300000
v 0.295576 0.917843 0.400000
v 0.295576 0.917843 -0.400000
v -0.204424 0.217843 0.400000
v -0.204424 0.217843 0.300000
v -0.204424 0.317843 0.400000
v -0.204424 0.317843 0.300000
v -0.204424 0.217843 -0.300000
v -0.204424 0.217843 -0.400000
v -0.204424 0.317843 -0.300000
v -0.204424 0.317843 -0.400000
v -0.104424 0.017843 0.400000
v -0.104424 0.017843 0.300000
v -0.104424 0.217843 0.400000
v -0.104424 0.217843 0.300000
v -0.104424 0.017843 -0.300000
v -0.104424 0.017843 -0.400000
v -0.104424 0.217843 -0.300000
v -0.104424 0.217843 -0.400000
v 0.395576 0.017843 0.400000
v 0.395576 0.017843 0.300000
v 0.395576 0.317843 0.400000
v 0.395576 0.317843 0.300000
v 0.395576 0.017843 -0.300000
v 0.395576 0.017843 -0.400000
v 0.395576 0.317843 -0.300000
v 0.395576 0.317843 -0.400000
v 0.395576 0.417843 0.300000
v 0.395576 0.417843 -0.300000
v 0.395576 0.517843 0.300000
v 0.395576 0.517843 -0.300000
v 0.395576 0.617843 0.300000
v 0.395576 0.617843 -0.300000
v 0.395576 0.817843 0.300000
v 0.395576 0.817843 -0.300000
v 0.395576 0.917843 0.400000
v 0.395576 0.917843 -0.400000
v -0.304424 0.217843 0.400000
v -0.404424 0.317843 0.400000
v -0.404424 0.217843 0.400000
v -0.204424 0.117843 0.400000
v -0.304424 0.117843 0.400000
v -0.204424 0.217843 0.400000
v -0.204424 0.317843 0.400000
v -0.404424 0.417843 0.400000
v -0.104424 0.017843 0.400000
v -0.204424 0.017843 0.400000
v -0.104424 0.217843 0.400000
v 0.295576 0.317843 0.400000
v 0.295576 0.417843 0.400000
v 0.395576 0.017843 0.400000
v 0.295576 0.017843 0.400000
v 0.395576 0.317843 0.400000
v 0.295576 0.917843 0.400000
v 0.395576 0.917843 0.400000
v -0.304424 0.217843 -0.300000
v -0.404424 0.317843 -0.300000
v -0.404424 0.217843 -0.300000
v -0.304424 0.317843 -0.300000
v -0.204424 0.117843 -0.300000
v -0.304424 0.117843 -0.300000
v -0.204424 0.217843 -0.300000
v -0.204424 0.317843 -0.300000
v -0.104424 0.017843 -0.300000
v -0.204424 0.017843 -0.300000
v -0.104424 0.217843 -0.300000
v 0.395576 0.017843 -0.300000
v 0.295576 0.317843 -0.300000
v 0.295576 0.017843 -0.300000
v 0.395576 0.317843 -0.300000
v 0.395576 0.417843 -0.300000
v 0.295576 0.517843 -0.300000
v 0.295576 0.417843 -0.300000
v 0.395576 0.517843 -0.300000
v -0.404424 0.217843 0.300000
v -0.404424 0.317843 0.300000
v -0.304424 0.217843 0.300000
v -0.304424 0.317843 0.300000
v -0.304424 0.117843 0.300000
v -0.204424 0.117843 0.300000
v -0.204424 0.217843 0.300000
v -0.204424 0.317843 0.300000
v -0.204424 0.017843 0.300000
v -0.104424 0.017843 0.300000
v -0.104424 0.217843 0.300000
v 0.295576 0.017843 0.300000
v 0.295576 0.317843 0.300000
v 0.395576 0.017843 0.300000
v 0.395576 0.317843 0.300000
v 0.295576 0.417843 0.300000
v 0.295576 0.517843 0.300000
v 0.395576 0.417843 0.300000
v 0.395576 0.517843 0.300000
v -0.404424 0.217843 -0.400000
v -0.404424 0.317843 -0.400000
v -0.304424 0.217843 -0.400000
v -0.304424 0.117843 -0.400000
v -0.204424 0.117843 -0.400000
v -0.204424 0.217843 -0.400000
v -0.404424 0.417843 -0.400000
v -0.204424 0.317843 -0.400000
v -0.104424 0.017843 -0.400000
v -0.204424 0.017843 -0.400000
v -0.104424 0.217843 -0.400000
v 0.295576 0.317843 -0.400000
v 0.295576 0.417843 -0.400000
v 0.295576 0.017843 -0.400000
v 0.395576 0.017843 -0.400000
v 0.295576 0.917843 -0.400000
v 0.395576 0.317843 -0.400000
v 0.395576 0.917843 -0.400000
v -0.204424 0.017843 0.300000
v -0.104424 0.017843 0.400000
v -0.204424 0.017843 0.400000
v -0.104424 0.017843 0.300000
v 0.295576 0.017843 0.300000
v 0.395576 0.017843 0.400000
v 0.295576 0.017843 0.400000
v 0.395576 0.017843 0.300000
v -0.204424 0.017843 -0.400000
v -0.104424 0.017843 -0.300000
v -0.204424 0.017843 -0.300000
v -0.104424 0.017843 -0.400000
v 0.295576 0.017843 -0.400000
v 0.395576 0.017843 -0.300000
v 0.295576 0.017843 -0.300000
v 0.395576 0.017843 -0.400000
v -0.304424 0.117843 0.300000
v -0.204424 0.117843 0.400000
v -0.304424 0.117843 0.400000
v -0.204424 0.117843 0.300000
v -0.304424 0.117843 -0.400000
v -0.204424 0.117843 -0.300000
v -0.304424 0.117843 -0.300000
v -0.204424 0.117843 -0.400000
v -0.404424 0.217843 0.300000
v -0.304424 0.217843 0.400000
v -0.404424 0.217843 0.400000
v -0.304424 0.217843 0.300000
v -0.404424 0.217843 -0.400000
v -0.304424 0.217843 -0.300000
v -0.404424 0.217843 -0.300000
v -0.304424 0.217843 -0.400000
v -0.204424 0.317843 0.300000
v 0.295576 0.317843 0.400000
v -0.204424 0.317843 0.400000
v 0.295576 0.317843 0.300000
v -0.404424 0.317843 -0.300000
v -0.304424 0.317843 0.300000
v -0.404424 0.317843 0.300000
v -0.304424 0.317843 -0.300000
v -0.204424 0.317843 -0.300000
v 0.295576 0.317843 -0.300000
v 0.395576 0.317843 0.300000
v 0.395576 0.317843 -0.300000
v -0.204424 0.317843 -0.400000
v 0.295576 0.317843 -0.400000
v 0.295576 0.517843 -0.300000
v 0.395576 0.517843 0.300000
v 0.295576 0.517843 0.300000
v 0.395576 0.517843 -0.300000
v -0.204424 0.217843 0.400000
v -0.104424 0.217843 0.400000
v -0.204424 0.217843 0.300000
v -0.104424 0.217843 0.300000
v -0.204424 0.217843 -0.300000
v -0.104424 0.217843 -0.300000
v -0.204424 0.217843 -0.400000
v -0.104424 0.217843 -0.400000
v -0.404424 0.417843 0.400000
v 0.295576 0.417843 0.400000
v -0.304424 0.417843 0.300000
v 0.295576 0.417843 0.300000
v -0.304424 0.417843 -0.300000
v 0.395576 0.417843 0.300000
v 0.295576 0.417843 -0.300000
v 0.395576 0.417843 -0.300000
v -0.404424 0.417843 -0.400000
v 0.295576 0.417843 -0.400000
v 0.295576 0.917843 0.400000
v 0.395576 0.917843 0.400000
v 0.295576 0.917843 -0.400000
v 0.395576 0.917843 -0.400000
vt 0.880859 0.500000
vt 0.880859 0.500000
vt 0.880859 0.500000
vt 0.880859 0.500000
vt 0.880859 0.500000
vt 0.880859 0.500000
vt 0.880859 0.500000
vt 0.880859 0.500000
vt 0.755859 0.500000
vt 0.755859 0.500000
vt 0.755859 0.500000
vt 0.755859 0.500000
vt 0.755859 0.500000
vt 0.755859 0.500000
vt 0.880859 0.500000
vt 0.880859 0.500000
vt 0.880859 0.500000
vt 0.880859 0.500000
vt 0.880859 0.500000
vt 0.880859 0.500000
vt 0.880859 0.500000
vt 0.880859 0.500000
vt 0.880859 0.500000
vt 0.880859 0.500000
vt 0.880859 0.500000
vt 0.880859 0.500000
vt 0.880859 0.500000
vt 0.880859 0.500000
vt 0.880859 0.500000
vt 0.880859 0.500000
vt 0.880859 0.500000
vt 0.880859 0.500000
vt 0.880859 0.500000
vt 0.880859 0.500000
vt 0.880859 0.500000
vt 0.880859 0.500000
vt 0.880859 0.500000
vt 0.880859 0.500000
vt 0.755859 0.500000
vt 0.755859 0.500000
vt 0.755859 0.500000
vt 0.755859 0.500000
vt 0.755859 0.500000
vt 0.755859 0.500000
vt 0.755859 0.500000
vt 0.755859 0.500000
vt 0.755859 0.500000
vt 0.912109 0.500000
vt 0.912109 0.500000
vt 0.912109 0.500000
vt 0.755859 0.500000
vt 0.912109 0.500000
vt 0.755859 0.500000
vt 0.755859 0.500000
vt 0.880859 0.500000
vt 0.880859 0.500000
vt 0.880859 0.500000
vt 0.880859 0.500000
vt 0.880859 0.500000
vt 0.880859 0.500000
vt 0.880859 0.500000
vt 0.880859 0.500000
vt 0.880859 0.500000
vt 0.880859 0.500000
vt 0.880859 0.500000
vt 0.880859 0.500000
vt 0.880859 0.500000
vt 0.880859 0.500000
vt 0.880859 0.500000
vt 0.880859 0.500000
vt 0.880859 0.500000
vt 0.880859 0.500000
vt 0.880859 0.500000
vt 0.880859 0.500000
vt 0.880859 0.500000
vt 0.880859 0.500000
vt 0.880859 0.500000
vt 0.880859 0.500000
vt 0.755859 0.500000
vt 0.755859 0.500000
vt 0.755859 0.500000
vt 0.755859 0.500000
vt 0.755859 0.500000
vt 0.755859 0.500000
vt 0.755859 0.500000
vt 0.755859 0.500000
vt 0.755859 0.500000
vt 0.755859 0.500000
vt 0.755859 0.500000
vt 0.912109 0.500000
vt 0.912109 0.500000
vt 0.912109 0.500000
vt 0.755859 0.500000
vt 0.912109 0.500000
vt 0.755859 0.500000
vt 0.755859 0.500000
vt 0.880859 0.500000
vt 0.880859 0.500000
vt 0.880859 0.500000
vt 0.880859 0.500000
vt 0.880859 0.500000
vt 0.880859 0.500000
vt 0.755859 0.500000
vt 0.755859 0.500000
vt 0.755859 0.500000
vt 0.880859 0.500000
vt 0.880859 0.500000
vt 0.880859 0.500000
vt 0.880859 0.500000
vt 0.755859 0.500000
vt 0.755859 0.500000
vt 0.880859 0.500000
vt 0.880859 0.500000
vt 0.880859 0.500000
vt 0.755859 0.500000
vt 0.755859 0.500000
vt 0.880859 0.500000
vt 0.755859 0.500000
vt 0.880859 0.500000
vt 0.880859 0.500000
vt 0.880859 0.500000
vt 0.880859 0.500000
vt 0.880859 0.500000
vt 0.880859 0.500000
vt 0.880859 0.500000
vt 0.880859 0.500000
vt 0.880859 0.500000
vt 0.880859 0.500000
vt 0.880859 0.500000
vt 0.880859 0.500000
vt 0.880859 0.500000
vt 0.880859 0.500000
vt 0.880859 0.500000
vt 0.755859 0.500000
vt 0.755859 0.500000
vt 0.755859 0.500000
vt 0.755859 0.500000
vt 0.880859 0.500000
vt 0.880859 0.500000
vt 0.880859 0.500000
vt 0.880859 0.500000
vt 0.880859 0.500000
vt 0.880859 0.500000
vt 0.880859 0.500000
vt 0.880859 0.500000
vt 0.880859 0.500000
vt 0.880859 0.500000
vt 0.880859 0.500000
vt 0.880859 0.500000
vt 0.880859 0.500000
vt 0.880859 0.500000
vt 0.880859 0.500000
vt 0.755859 0.500000
vt 0.755859 0.500000
vt 0.755859 0.500000
vt 0.755859 0.500000
vt 0.880859 0.500000
vt 0.880859 0.500000
vt 0.880859 0.500000
vt 0.880859 0.500000
vt 0.880859 0.500000
vt 0.880859 0.500000
vt 0.755859 0.500000
vt 0.755859 0.500000
vt 0.755859 0.500000
vt 0.880859 0.500000
vt 0.880859 0.500000
vt 0.880859 0.500000
vt 0.880859 0.500000
vt 0.755859 0.500000
vt 0.755859 0.500000
vt 0.880859 0.500000
vt 0.880859 0.500000
vt 0.880859 0.500000
vt 0.755859 0.500000
vt 0.755859 0.500000
vt 0.880859 0.500000
vt 0.755859 0.500000
vt 0.880859 0.500000
vt 0.880859 0.500000
vt 0.880859 0.500000
vt 0.880859 0.500000
vt 0.880859 0.500000
vt 0.880859 0.500000
vt 0.880859 0.500000
vt 0.880859 0.500000
vt 0.880859 0.500000
vt 0.880859 0.500000
vt 0.880859 0.500000
vt 0.880859 0.500000
vt 0.880859 0.500000
vt 0.880859 0.500000
vt 0.880859 0.500000
vt 0.880859 0.500000
vt 0.880859 0.500000
vt 0.880859 0.500000
vt 0.880859 0.500000
vt 0.880859 0.500000
vt 0.880859 0.500000
vt 0.880859 0.500000
vt 0.880859 0.500000
vt 0.880859 0.500000
vt 0.880859 0.500000
vt 0.880859 0.500000
vt 0.880859 0.500000
vt 0.880859 0.500000
vt 0.880859 0.500000
vt 0.880859 0.500000
vt 0.880859 0.500000
vt 0.880859 0.500000
vt 0.755859 0.500000
vt 0.755859 0.500000
vt 0.755859 0.500000
vt 0.755859 0.500000
vt 0.755859 0.500000
vt 0.755859 0.500000
vt 0.755859 0.500000
vt 0.912109 0.500000
vt 0.912109 0.500000
vt 0.912109 0.500000
vt 0.755859 0.500000
vt 0.912109 0.500000
vt 0.912109 0.500000
vt 0.755859 0.500000
vt 0.755859 0.500000
vt 0.912109 0.500000
vt 0.755859 0.500000
vt 0.755859 0.500000
vt 0.755859 0.500000
vt 0.755859 0.500000
vt 0.755859 0.500000
vt 0.755859 0.500000
vt 0.755859 0.500000
vt 0.755859 0.500000
vt 0.880859 0.500000
vt 0.880859 0.500000
vt 0.880859 0.500000
vt 0.880859 0.500000
vt 0.880859 0.500000
vt 0.880859 0.500000
vt 0.880859 0.500000
vt 0.880859 0.500000
vt 0.755859 0.500000
vt 0.755859 0.500000
vt 0.755859 0.500000
vt 0.755859 0.500000
vt 0.755859 0.500000
vt 0.912109 0.500000
vt 0.912109 0.500000
vt 0.912109 0.500000
vt 0.755859 0.500000
vt 0.755859 0.500000
vt 0.912109 0.500000
vt 0.755859 0.500000
vt 0.755859 0.500000
vt 0.755859 0.500000
vt 0.755859 0.500000
vt 0.755859 0.500000
vt 0.755859 0.500000
vt 0.755859 0.500000
vn -1.0000 0.0000 0.0000
vn 1.0000 0.0000 0.0000
vn 0.0000 -0.0000 1.0000
vn 0.0000 0.0000 -1.0000
vn 0.0000 -1.0000 0.0000
vn 0.0000 1.0000 0.0000
usemtl palette.001
s 1
f 1/1/1 2/2/1 3/3/1
f 4/4/1 2/2/1 1/1/1
f 5/5/1 6/6/1 7/7/1
f 8/8/1 6/6/1 5/5/1
f 9/9/1 4/10/1 1/11/1
f 9/9/1 5/12/1 4/10/1
f 9/9/1 8/13/1 5/12/1
f 10/14/1 8/13/1 9/9/1
f 11/15/1 12/16/1 13/17/1
f 14/18/1 12/16/1 11/15/1
f 15/19/1 16/20/1 17/21/1
f 18/22/1 16/20/1 15/19/1
f 19/23/1 20/24/1 21/25/1
f 22/26/1 20/24/1 19/23/1
f 23/27/1 24/28/1 25/29/1
f 26/30/1 24/28/1 23/27/1
f 27/31/1 28/32/1 29/33/1
f 30/34/1 28/32/1 27/31/1
f 31/35/1 32/36/1 33/37/1
f 34/38/1 32/36/1 31/35/1
f 35/39/1 36/40/1 37/41/1
f 38/42/1 39/43/1 40/44/1
f 41/45/1 35/39/1 37/41/1
f 41/45/1 38/42/1 35/39/1
f 42/46/1 39/43/1 38/42/1
f 42/46/1 38/42/1 41/45/1
f 43/47/1 41/45/1 37/41/1
f 43/48/1 42/49/1 41/50/1
f 44/51/1 39/43/1 42/46/1
f 44/52/1 42/49/1 43/48/1
f 45/53/1 43/47/1 37/41/1
f 45/53/1 44/51/1 43/47/1
f 46/54/1 39/43/1 44/51/1
f 46/54/1 44/51/1 45/53/1
f 47/55/2 48/56/2 49/57/2
f 49/57/2 48/56/2 50/58/2
f 51/59/2 52/60/2 53/61/2
f 53/61/2 52/60/2 54/62/2
f 55/63/2 56/64/2 57/65/2
f 57/65/2 56/64/2 58/66/2
f 59/67/2 60/68/2 61/69/2
f 61/69/2 60/68/2 62/70/2
f 63/71/2 64/72/2 65/73/2
f 65/73/2 64/72/2 66/74/2
f 67/75/2 68/76/2 69/77/2
f 69/77/2 68/76/2 70/78/2
f 65/79/2 66/80/2 71/81/2
f 66/80/2 69/82/2 71/81/2
f 69/82/2 70/83/2 71/81/2
f 71/81/2 70/83/2 72/84/2
f 65/79/2 71/81/2 73/85/2
f 72/84/2 70/83/2 74/86/2
f 65/79/2 73/85/2 75/87/2
f 73/85/2 74/86/2 75/87/2
f 74/86/2 70/83/2 76/88/2
f 75/87/2 74/86/2 76/88/2
f 65/79/2 75/87/2 77/89/2
f 75/90/2 76/91/2 77/92/2
f 76/88/2 70/83/2 78/93/2
f 77/92/2 76/91/2 78/94/2
f 65/79/2 77/89/2 79/95/2
f 77/89/2 78/93/2 79/95/2
f 78/93/2 70/83/2 80/96/2
f 79/95/2 78/93/2 80/96/2
f 81/97/3 82/98/3 83/99/3
f 84/100/3 81/97/3 85/101/3
f 86/102/3 82/98/3 81/97/3
f 86/102/3 81/97/3 84/100/3
f 87/103/3 88/104/3 82/105/3
f 87/106/3 82/98/3 86/102/3
f 89/107/3 86/102/3 84/100/3
f 89/107/3 84/100/3 90/108/3
f 91/109/3 86/102/3 89/107/3
f 92/110/3 88/104/3 87/103/3
f 93/111/3 88/104/3 92/110/3
f 94/112/3 92/113/3 95/114/3
f 96/115/3 97/116/3 93/111/3
f 96/117/3 92/113/3 94/112/3
f 96/115/3 93/111/3 92/110/3
f 98/118/3 97/116/3 96/115/3
f 99/119/3 100/120/3 101/121/3
f 102/122/3 100/120/3 99/119/3
f 103/123/3 99/119/3 104/124/3
f 103/123/3 102/122/3 99/119/3
f 105/125/3 102/122/3 103/123/3
f 106/126/3 102/122/3 105/125/3
f 107/127/3 103/123/3 108/128/3
f 107/127/3 105/125/3 103/123/3
f 109/129/3 105/125/3 107/127/3
f 110/130/3 111/131/3 112/132/3
f 113/133/3 111/131/3 110/130/3
f 114/134/3 115/135/3 116/136/3
f 117/137/3 115/135/3 114/134/3
f 118/138/4 119/139/4 120/140/4
f 120/140/4 119/139/4 121/141/4
f 122/142/4 120/140/4 123/143/4
f 120/140/4 121/141/4 123/143/4
f 123/143/4 121/141/4 124/144/4
f 124/144/4 121/141/4 125/145/4
f 126/146/4 123/143/4 127/147/4
f 123/143/4 124/144/4 127/147/4
f 127/147/4 124/144/4 128/148/4
f 129/149/4 130/150/4 131/151/4
f 131/151/4 130/150/4 132/152/4
f 133/153/4 134/154/4 135/155/4
f 135/155/4 134/154/4 136/156/4
f 137/157/4 138/158/4 139/159/4
f 140/160/4 139/159/4 141/161/4
f 139/159/4 138/158/4 142/162/4
f 141/161/4 139/159/4 142/162/4
f 138/163/4 143/164/4 144/165/4
f 142/162/4 138/158/4 144/166/4
f 141/161/4 142/162/4 145/167/4
f 146/168/4 141/161/4 145/167/4
f 145/167/4 142/162/4 147/169/4
f 144/165/4 143/164/4 148/170/4
f 148/170/4 143/164/4 149/171/4
f 150/172/4 148/173/4 151/174/4
f 149/171/4 152/175/4 153/176/4
f 151/174/4 148/173/4 153/177/4
f 148/170/4 149/171/4 153/176/4
f 153/176/4 152/175/4 154/178/4
f 155/179/5 156/180/5 157/181/5
f 158/182/5 156/180/5 155/179/5
f 159/183/5 160/184/5 161/185/5
f 162/186/5 160/184/5 159/183/5
f 163/187/5 164/188/5 165/189/5
f 166/190/5 164/188/5 163/187/5
f 167/191/5 168/192/5 169/193/5
f 170/194/5 168/192/5 167/191/5
f 171/195/5 172/196/5 173/197/5
f 174/198/5 172/196/5 171/195/5
f 175/199/5 176/200/5 177/201/5
f 178/202/5 176/200/5 175/199/5
f 179/203/5 180/204/5 181/205/5
f 182/206/5 180/204/5 179/203/5
f 183/207/5 184/208/5 185/209/5
f 186/210/5 184/208/5 183/207/5
f 187/211/5 188/212/5 189/213/5
f 190/214/5 188/212/5 187/211/5
f 191/215/5 192/216/5 193/217/5
f 194/218/5 187/219/5 192/220/5
f 194/221/5 192/216/5 191/215/5
f 194/218/5 190/222/5 187/219/5
f 195/223/5 190/222/5 194/218/5
f 196/224/5 197/225/5 190/214/5
f 196/226/5 190/222/5 195/223/5
f 198/227/5 197/225/5 196/224/5
f 199/228/5 196/224/5 195/229/5
f 200/230/5 196/224/5 199/228/5
f 201/231/5 202/232/5 203/233/5
f 204/234/5 202/232/5 201/231/5
f 205/235/6 206/236/6 207/237/6
f 207/237/6 206/236/6 208/238/6
f 209/239/6 210/240/6 211/241/6
f 211/241/6 210/240/6 212/242/6
f 213/243/6 214/244/6 215/245/6
f 215/245/6 214/244/6 216/246/6
f 213/243/6 215/245/6 217/247/6
f 215/248/6 216/249/6 217/250/6
f 216/246/6 218/251/6 219/252/6
f 217/250/6 216/249/6 219/253/6
f 219/252/6 218/251/6 220/254/6
f 213/243/6 217/247/6 221/255/6
f 217/247/6 219/252/6 221/255/6
f 221/255/6 219/252/6 222/256/6
f 223/257/6 224/258/6 225/259/6
f 225/259/6 224/258/6 226/260/6
