# MagicaVoxel @ Ephtracy

# group
o 

# material
mtllib SuperPC.mtl
usemtl palette

# normals
vn -1 0 0
vn 1 0 0
vn 0 0 1
vn 0 0 -1
vn 0 -1 0
vn 0 1 0

# texcoords
vt 0.541016 0.5
vt 0.583984 0.5
vt 0.638672 0.5
vt 0.982422 0.5
vt 0.990234 0.5

# verts
v 0 2 -0.1
v 0 2 -0.5
v 0 2.1 -0.2
v 0 2.1 -0.4
v 0 2.9 -0.2
v 0 2.9 -0.4
v 0 3 -0.1
v 0 3 -0.5
v 0.1 2.2 0
v 0.1 2.2 -0.1
v 0.1 2.3 0
v 0.1 2.3 -0.1
v 0.1 2.5 0
v 0.1 2.5 -0.1
v 0.1 2.6 0
v 0.1 2.6 -0.1
v 0.1 2.8 0
v 0.1 2.8 -0.1
v 0.1 2.9 0
v 0.1 2.9 -0.1
v 0.4 2.2 0
v 0.4 2.2 -0.1
v 0.4 2.3 0
v 0.4 2.3 -0.1
v 0.4 2.5 0
v 0.4 2.5 -0.1
v 0.4 2.6 0
v 0.4 2.6 -0.1
v 0.4 2.8 0
v 0.4 2.8 -0.1
v 0.4 2.9 0
v 0.4 2.9 -0.1
v 0.5 2 -0.1
v 0.5 2 -0.5
v 0.5 2.1 -0.2
v 0.5 2.1 -0.4
v 0.5 2.9 -0.2
v 0.5 2.9 -0.4
v 0.5 3 -0.1
v 0.5 3 -0.5
v 0.1 2.2 0
v 0.1 2.3 0
v 0.1 2.5 0
v 0.1 2.6 0
v 0.1 2.8 0
v 0.1 2.9 0
v 0.2 2.2 0
v 0.2 2.3 0
v 0.2 2.5 0
v 0.2 2.6 0
v 0.2 2.8 0
v 0.2 2.9 0
v 0.3 2.2 0
v 0.3 2.3 0
v 0.3 2.5 0
v 0.3 2.6 0
v 0.3 2.8 0
v 0.3 2.9 0
v 0.4 2.2 0
v 0.4 2.3 0
v 0.4 2.5 0
v 0.4 2.6 0
v 0.4 2.8 0
v 0.4 2.9 0
v 0 2 -0.1
v 0 3 -0.1
v 0.1 2.1 -0.1
v 0.1 2.2 -0.1
v 0.1 2.3 -0.1
v 0.1 2.4 -0.1
v 0.1 2.5 -0.1
v 0.1 2.6 -0.1
v 0.1 2.7 -0.1
v 0.1 2.8 -0.1
v 0.1 2.9 -0.1
v 0.2 2.2 -0.1
v 0.2 2.3 -0.1
v 0.2 2.5 -0.1
v 0.2 2.6 -0.1
v 0.2 2.8 -0.1
v 0.2 2.9 -0.1
v 0.3 2.2 -0.1
v 0.3 2.3 -0.1
v 0.3 2.5 -0.1
v 0.3 2.6 -0.1
v 0.3 2.8 -0.1
v 0.3 2.9 -0.1
v 0.4 2.1 -0.1
v 0.4 2.2 -0.1
v 0.4 2.3 -0.1
v 0.4 2.4 -0.1
v 0.4 2.5 -0.1
v 0.4 2.6 -0.1
v 0.4 2.7 -0.1
v 0.4 2.8 -0.1
v 0.4 2.9 -0.1
v 0.5 2 -0.1
v 0.5 3 -0.1
v 0 2 -0.5
v 0 3 -0.5
v 0.1 2.1 -0.5
v 0.1 2.2 -0.5
v 0.1 2.8 -0.5
v 0.1 2.9 -0.5
v 0.2 2.1 -0.5
v 0.2 2.2 -0.5
v 0.2 2.8 -0.5
v 0.2 2.9 -0.5
v 0.3 2.1 -0.5
v 0.3 2.2 -0.5
v 0.3 2.8 -0.5
v 0.3 2.9 -0.5
v 0.4 2.1 -0.5
v 0.4 2.2 -0.5
v 0.4 2.8 -0.5
v 0.4 2.9 -0.5
v 0.5 2 -0.5
v 0.5 3 -0.5
v 0 2 -0.1
v 0.5 2 -0.1
v 0 2 -0.5
v 0.5 2 -0.5
v 0.1 2.2 0
v 0.2 2.2 0
v 0.3 2.2 0
v 0.4 2.2 0
v 0.1 2.2 -0.1
v 0.2 2.2 -0.1
v 0.3 2.2 -0.1
v 0.4 2.2 -0.1
v 0.1 2.5 0
v 0.2 2.5 0
v 0.3 2.5 0
v 0.4 2.5 0
v 0.1 2.5 -0.1
v 0.2 2.5 -0.1
v 0.3 2.5 -0.1
v 0.4 2.5 -0.1
v 0.1 2.8 0
v 0.2 2.8 0
v 0.3 2.8 0
v 0.4 2.8 0
v 0.1 2.8 -0.1
v 0.2 2.8 -0.1
v 0.3 2.8 -0.1
v 0.4 2.8 -0.1
v 0.1 2.3 0
v 0.2 2.3 0
v 0.3 2.3 0
v 0.4 2.3 0
v 0.1 2.3 -0.1
v 0.2 2.3 -0.1
v 0.3 2.3 -0.1
v 0.4 2.3 -0.1
v 0.1 2.6 0
v 0.2 2.6 0
v 0.3 2.6 0
v 0.4 2.6 0
v 0.1 2.6 -0.1
v 0.2 2.6 -0.1
v 0.3 2.6 -0.1
v 0.4 2.6 -0.1
v 0.1 2.9 0
v 0.2 2.9 0
v 0.3 2.9 0
v 0.4 2.9 0
v 0.1 2.9 -0.1
v 0.2 2.9 -0.1
v 0.3 2.9 -0.1
v 0.4 2.9 -0.1
v 0 3 -0.1
v 0.5 3 -0.1
v 0.1 3 -0.2
v 0.2 3 -0.2
v 0.3 3 -0.2
v 0.4 3 -0.2
v 0.1 3 -0.4
v 0.2 3 -0.4
v 0.3 3 -0.4
v 0.4 3 -0.4
v 0 3 -0.5
v 0.5 3 -0.5

# faces
f 3/5/1 2/5/1 1/5/1
f 4/5/1 2/5/1 3/5/1
f 5/5/1 3/5/1 1/5/1
f 5/1/1 4/1/1 3/1/1
f 6/5/1 2/5/1 4/5/1
f 6/1/1 4/1/1 5/1/1
f 7/5/1 5/5/1 1/5/1
f 7/5/1 6/5/1 5/5/1
f 8/5/1 2/5/1 6/5/1
f 8/5/1 6/5/1 7/5/1
f 11/2/1 10/2/1 9/2/1
f 12/2/1 10/2/1 11/2/1
f 15/1/1 14/1/1 13/1/1
f 16/1/1 14/1/1 15/1/1
f 19/2/1 18/2/1 17/2/1
f 20/2/1 18/2/1 19/2/1
f 21/2/2 22/2/2 23/2/2
f 23/2/2 22/2/2 24/2/2
f 25/1/2 26/1/2 27/1/2
f 27/1/2 26/1/2 28/1/2
f 29/2/2 30/2/2 31/2/2
f 31/2/2 30/2/2 32/2/2
f 33/5/2 34/5/2 35/5/2
f 35/5/2 34/5/2 36/5/2
f 33/5/2 35/5/2 37/5/2
f 35/1/2 36/1/2 37/1/2
f 36/5/2 34/5/2 38/5/2
f 37/1/2 36/1/2 38/1/2
f 33/5/2 37/5/2 39/5/2
f 37/5/2 38/5/2 39/5/2
f 38/5/2 34/5/2 40/5/2
f 39/5/2 38/5/2 40/5/2
f 47/2/3 42/2/3 41/2/3
f 48/2/3 42/2/3 47/2/3
f 49/1/3 44/1/3 43/1/3
f 50/1/3 44/1/3 49/1/3
f 51/2/3 46/2/3 45/2/3
f 52/2/3 46/2/3 51/2/3
f 53/1/3 48/1/3 47/1/3
f 54/1/3 48/1/3 53/1/3
f 55/2/3 50/2/3 49/2/3
f 56/2/3 50/2/3 55/2/3
f 57/1/3 52/1/3 51/1/3
f 58/1/3 52/1/3 57/1/3
f 59/2/3 54/2/3 53/2/3
f 60/2/3 54/2/3 59/2/3
f 61/1/3 56/1/3 55/1/3
f 62/1/3 56/1/3 61/1/3
f 63/2/3 58/2/3 57/2/3
f 64/2/3 58/2/3 63/2/3
f 67/5/3 66/5/3 65/5/3
f 68/5/3 66/5/3 67/5/3
f 69/5/3 66/5/3 68/5/3
f 70/5/3 66/5/3 69/5/3
f 71/5/3 66/5/3 70/5/3
f 72/5/3 66/5/3 71/5/3
f 73/5/3 66/5/3 72/5/3
f 74/5/3 66/5/3 73/5/3
f 75/5/3 66/5/3 74/5/3
f 76/4/3 68/4/3 67/4/3
f 77/5/3 70/5/3 69/5/3
f 78/4/3 71/4/3 70/4/3
f 79/5/3 73/5/3 72/5/3
f 80/4/3 74/4/3 73/4/3
f 81/5/3 66/5/3 75/5/3
f 82/4/3 76/4/3 67/4/3
f 83/5/3 70/5/3 77/5/3
f 84/4/3 78/4/3 70/4/3
f 85/5/3 73/5/3 79/5/3
f 86/4/3 80/4/3 73/4/3
f 87/5/3 66/5/3 81/5/3
f 88/5/3 67/5/3 65/5/3
f 88/4/3 82/4/3 67/4/3
f 89/4/3 82/4/3 88/4/3
f 90/5/3 70/5/3 83/5/3
f 91/4/3 84/4/3 70/4/3
f 91/5/3 70/5/3 90/5/3
f 92/4/3 84/4/3 91/4/3
f 93/5/3 73/5/3 85/5/3
f 94/4/3 86/4/3 73/4/3
f 94/5/3 73/5/3 93/5/3
f 95/4/3 86/4/3 94/4/3
f 96/5/3 66/5/3 87/5/3
f 97/5/3 95/5/3 94/5/3
f 97/5/3 96/5/3 95/5/3
f 97/5/3 92/5/3 91/5/3
f 97/5/3 90/5/3 89/5/3
f 97/5/3 94/5/3 93/5/3
f 97/5/3 93/5/3 92/5/3
f 97/5/3 91/5/3 90/5/3
f 97/5/3 89/5/3 88/5/3
f 97/5/3 88/5/3 65/5/3
f 98/5/3 66/5/3 96/5/3
f 98/5/3 96/5/3 97/5/3
f 99/5/4 100/5/4 101/5/4
f 101/5/4 100/5/4 102/5/4
f 102/5/4 100/5/4 103/5/4
f 103/5/4 100/5/4 104/5/4
f 99/5/4 101/5/4 105/5/4
f 101/3/4 102/3/4 105/3/4
f 102/5/4 103/5/4 106/5/4
f 105/3/4 102/3/4 106/3/4
f 103/3/4 104/3/4 107/3/4
f 106/5/4 103/5/4 107/5/4
f 104/5/4 100/5/4 108/5/4
f 107/3/4 104/3/4 108/3/4
f 106/5/4 107/5/4 109/5/4
f 105/5/4 106/5/4 109/5/4
f 107/5/4 108/5/4 109/5/4
f 99/5/4 105/5/4 109/5/4
f 109/5/4 108/5/4 110/5/4
f 110/5/4 108/5/4 111/5/4
f 108/5/4 100/5/4 112/5/4
f 111/5/4 108/5/4 112/5/4
f 99/5/4 109/5/4 113/5/4
f 109/3/4 110/3/4 113/3/4
f 110/5/4 111/5/4 114/5/4
f 113/3/4 110/3/4 114/3/4
f 111/3/4 112/3/4 115/3/4
f 114/5/4 111/5/4 115/5/4
f 112/5/4 100/5/4 116/5/4
f 115/3/4 112/3/4 116/3/4
f 99/5/4 113/5/4 117/5/4
f 114/5/4 115/5/4 117/5/4
f 115/5/4 116/5/4 117/5/4
f 113/5/4 114/5/4 117/5/4
f 116/5/4 100/5/4 118/5/4
f 117/5/4 116/5/4 118/5/4
f 121/5/5 120/5/5 119/5/5
f 122/5/5 120/5/5 121/5/5
f 127/2/5 124/2/5 123/2/5
f 128/1/5 125/1/5 124/1/5
f 128/2/5 124/2/5 127/2/5
f 129/2/5 126/2/5 125/2/5
f 129/1/5 125/1/5 128/1/5
f 130/2/5 126/2/5 129/2/5
f 135/1/5 132/1/5 131/1/5
f 136/2/5 133/2/5 132/2/5
f 136/1/5 132/1/5 135/1/5
f 137/1/5 134/1/5 133/1/5
f 137/2/5 133/2/5 136/2/5
f 138/1/5 134/1/5 137/1/5
f 143/2/5 140/2/5 139/2/5
f 144/1/5 141/1/5 140/1/5
f 144/2/5 140/2/5 143/2/5
f 145/2/5 142/2/5 141/2/5
f 145/1/5 141/1/5 144/1/5
f 146/2/5 142/2/5 145/2/5
f 147/2/6 148/2/6 151/2/6
f 148/1/6 149/1/6 152/1/6
f 151/2/6 148/2/6 152/2/6
f 149/2/6 150/2/6 153/2/6
f 152/1/6 149/1/6 153/1/6
f 153/2/6 150/2/6 154/2/6
f 155/1/6 156/1/6 159/1/6
f 156/2/6 157/2/6 160/2/6
f 159/1/6 156/1/6 160/1/6
f 157/1/6 158/1/6 161/1/6
f 160/2/6 157/2/6 161/2/6
f 161/1/6 158/1/6 162/1/6
f 163/2/6 164/2/6 167/2/6
f 164/1/6 165/1/6 168/1/6
f 167/2/6 164/2/6 168/2/6
f 165/2/6 166/2/6 169/2/6
f 168/1/6 165/1/6 169/1/6
f 169/2/6 166/2/6 170/2/6
f 171/5/6 172/5/6 173/5/6
f 173/5/6 172/5/6 174/5/6
f 174/5/6 172/5/6 175/5/6
f 175/5/6 172/5/6 176/5/6
f 171/5/6 173/5/6 177/5/6
f 173/1/6 174/1/6 177/1/6
f 174/2/6 175/2/6 178/2/6
f 177/1/6 174/1/6 178/1/6
f 175/1/6 176/1/6 179/1/6
f 178/2/6 175/2/6 179/2/6
f 176/5/6 172/5/6 180/5/6
f 179/1/6 176/1/6 180/1/6
f 178/5/6 179/5/6 181/5/6
f 177/5/6 178/5/6 181/5/6
f 179/5/6 180/5/6 181/5/6
f 171/5/6 177/5/6 181/5/6
f 180/5/6 172/5/6 182/5/6
f 181/5/6 180/5/6 182/5/6
