# MagicaVoxel @ Ephtracy

# group
o 

# material
mtllib SuperPCAzul.mtl
usemtl palette

# normals
vn -1 0 0
vn 1 0 0
vn 0 0 1
vn 0 0 -1
vn 0 -1 0
vn 0 1 0

# texcoords
vt 0.638672 0.5
vt 0.728516 0.5
vt 0.771484 0.5
vt 0.982422 0.5
vt 0.990234 0.5

# verts
v 0 2 -0.1
v 0 2 -0.5
v 0 2.1 -0.2
v 0 2.1 -0.4
v 0 2.9 -0.2
v 0 2.9 -0.4
v 0 3 -0.1
v 0 3 -0.5
v 0.1 2.2 0
v 0.1 2.2 -0.1
v 0.1 2.3 0
v 0.1 2.3 -0.1
v 0.1 2.5 0
v 0.1 2.5 -0.1
v 0.1 2.6 0
v 0.1 2.6 -0.1
v 0.1 2.8 0
v 0.1 2.8 -0.1
v 0.1 2.9 0
v 0.1 2.9 -0.1
v 0.4 2.2 0
v 0.4 2.2 -0.1
v 0.4 2.3 0
v 0.4 2.3 -0.1
v 0.4 2.5 0
v 0.4 2.5 -0.1
v 0.4 2.6 0
v 0.4 2.6 -0.1
v 0.4 2.8 0
v 0.4 2.8 -0.1
v 0.4 2.9 0
v 0.4 2.9 -0.1
v 0.5 2 -0.1
v 0.5 2 -0.5
v 0.5 2.1 -0.2
v 0.5 2.1 -0.4
v 0.5 2.9 -0.2
v 0.5 2.9 -0.4
v 0.5 3 -0.1
v 0.5 3 -0.5
v 0.1 2.2 0
v 0.1 2.3 0
v 0.1 2.5 0
v 0.1 2.6 0
v 0.1 2.8 0
v 0.1 2.9 0
v 0.2 2.2 0
v 0.2 2.3 0
v 0.2 2.5 0
v 0.2 2.6 0
v 0.2 2.8 0
v 0.2 2.9 0
v 0.3 2.2 0
v 0.3 2.3 0
v 0.3 2.5 0
v 0.3 2.6 0
v 0.3 2.8 0
v 0.3 2.9 0
v 0.4 2.2 0
v 0.4 2.3 0
v 0.4 2.5 0
v 0.4 2.6 0
v 0.4 2.8 0
v 0.4 2.9 0
v 0 2 -0.1
v 0 3 -0.1
v 0.1 2.1 -0.1
v 0.1 2.2 -0.1
v 0.1 2.3 -0.1
v 0.1 2.4 -0.1
v 0.1 2.5 -0.1
v 0.1 2.6 -0.1
v 0.1 2.7 -0.1
v 0.1 2.8 -0.1
v 0.1 2.9 -0.1
v 0.2 2.2 -0.1
v 0.2 2.3 -0.1
v 0.2 2.5 -0.1
v 0.2 2.6 -0.1
v 0.2 2.8 -0.1
v 0.2 2.9 -0.1
v 0.3 2.2 -0.1
v 0.3 2.3 -0.1
v 0.3 2.5 -0.1
v 0.3 2.6 -0.1
v 0.3 2.8 -0.1
v 0.3 2.9 -0.1
v 0.4 2.1 -0.1
v 0.4 2.2 -0.1
v 0.4 2.3 -0.1
v 0.4 2.4 -0.1
v 0.4 2.5 -0.1
v 0.4 2.6 -0.1
v 0.4 2.7 -0.1
v 0.4 2.8 -0.1
v 0.4 2.9 -0.1
v 0.5 2 -0.1
v 0.5 3 -0.1
v 0 2 -0.5
v 0 3 -0.5
v 0.1 2.1 -0.5
v 0.1 2.2 -0.5
v 0.1 2.8 -0.5
v 0.1 2.9 -0.5
v 0.2 2.1 -0.5
v 0.2 2.2 -0.5
v 0.2 2.8 -0.5
v 0.2 2.9 -0.5
v 0.3 2.1 -0.5
v 0.3 2.2 -0.5
v 0.3 2.8 -0.5
v 0.3 2.9 -0.5
v 0.4 2.1 -0.5
v 0.4 2.2 -0.5
v 0.4 2.8 -0.5
v 0.4 2.9 -0.5
v 0.5 2 -0.5
v 0.5 3 -0.5
v 0 2 -0.1
v 0.5 2 -0.1
v 0 2 -0.5
v 0.5 2 -0.5
v 0.1 2.2 0
v 0.2 2.2 0
v 0.3 2.2 0
v 0.4 2.2 0
v 0.1 2.2 -0.1
v 0.2 2.2 -0.1
v 0.3 2.2 -0.1
v 0.4 2.2 -0.1
v 0.1 2.5 0
v 0.2 2.5 0
v 0.3 2.5 0
v 0.4 2.5 0
v 0.1 2.5 -0.1
v 0.2 2.5 -0.1
v 0.3 2.5 -0.1
v 0.4 2.5 -0.1
v 0.1 2.8 0
v 0.2 2.8 0
v 0.3 2.8 0
v 0.4 2.8 0
v 0.1 2.8 -0.1
v 0.2 2.8 -0.1
v 0.3 2.8 -0.1
v 0.4 2.8 -0.1
v 0.1 2.3 0
v 0.2 2.3 0
v 0.3 2.3 0
v 0.4 2.3 0
v 0.1 2.3 -0.1
v 0.2 2.3 -0.1
v 0.3 2.3 -0.1
v 0.4 2.3 -0.1
v 0.1 2.6 0
v 0.2 2.6 0
v 0.3 2.6 0
v 0.4 2.6 0
v 0.1 2.6 -0.1
v 0.2 2.6 -0.1
v 0.3 2.6 -0.1
v 0.4 2.6 -0.1
v 0.1 2.9 0
v 0.2 2.9 0
v 0.3 2.9 0
v 0.4 2.9 0
v 0.1 2.9 -0.1
v 0.2 2.9 -0.1
v 0.3 2.9 -0.1
v 0.4 2.9 -0.1
v 0 3 -0.1
v 0.5 3 -0.1
v 0.1 3 -0.2
v 0.2 3 -0.2
v 0.3 3 -0.2
v 0.4 3 -0.2
v 0.1 3 -0.4
v 0.2 3 -0.4
v 0.3 3 -0.4
v 0.4 3 -0.4
v 0 3 -0.5
v 0.5 3 -0.5

# faces
f 3/5/1 2/5/1 1/5/1
f 4/5/1 2/5/1 3/5/1
f 5/5/1 3/5/1 1/5/1
f 5/2/1 4/2/1 3/2/1
f 6/5/1 2/5/1 4/5/1
f 6/2/1 4/2/1 5/2/1
f 7/5/1 5/5/1 1/5/1
f 7/5/1 6/5/1 5/5/1
f 8/5/1 2/5/1 6/5/1
f 8/5/1 6/5/1 7/5/1
f 11/3/1 10/3/1 9/3/1
f 12/3/1 10/3/1 11/3/1
f 15/2/1 14/2/1 13/2/1
f 16/2/1 14/2/1 15/2/1
f 19/3/1 18/3/1 17/3/1
f 20/3/1 18/3/1 19/3/1
f 21/3/2 22/3/2 23/3/2
f 23/3/2 22/3/2 24/3/2
f 25/2/2 26/2/2 27/2/2
f 27/2/2 26/2/2 28/2/2
f 29/3/2 30/3/2 31/3/2
f 31/3/2 30/3/2 32/3/2
f 33/5/2 34/5/2 35/5/2
f 35/5/2 34/5/2 36/5/2
f 33/5/2 35/5/2 37/5/2
f 35/2/2 36/2/2 37/2/2
f 36/5/2 34/5/2 38/5/2
f 37/2/2 36/2/2 38/2/2
f 33/5/2 37/5/2 39/5/2
f 37/5/2 38/5/2 39/5/2
f 38/5/2 34/5/2 40/5/2
f 39/5/2 38/5/2 40/5/2
f 47/3/3 42/3/3 41/3/3
f 48/3/3 42/3/3 47/3/3
f 49/2/3 44/2/3 43/2/3
f 50/2/3 44/2/3 49/2/3
f 51/3/3 46/3/3 45/3/3
f 52/3/3 46/3/3 51/3/3
f 53/2/3 48/2/3 47/2/3
f 54/2/3 48/2/3 53/2/3
f 55/3/3 50/3/3 49/3/3
f 56/3/3 50/3/3 55/3/3
f 57/2/3 52/2/3 51/2/3
f 58/2/3 52/2/3 57/2/3
f 59/3/3 54/3/3 53/3/3
f 60/3/3 54/3/3 59/3/3
f 61/2/3 56/2/3 55/2/3
f 62/2/3 56/2/3 61/2/3
f 63/3/3 58/3/3 57/3/3
f 64/3/3 58/3/3 63/3/3
f 67/5/3 66/5/3 65/5/3
f 68/5/3 66/5/3 67/5/3
f 69/5/3 66/5/3 68/5/3
f 70/5/3 66/5/3 69/5/3
f 71/5/3 66/5/3 70/5/3
f 72/5/3 66/5/3 71/5/3
f 73/5/3 66/5/3 72/5/3
f 74/5/3 66/5/3 73/5/3
f 75/5/3 66/5/3 74/5/3
f 76/4/3 68/4/3 67/4/3
f 77/5/3 70/5/3 69/5/3
f 78/4/3 71/4/3 70/4/3
f 79/5/3 73/5/3 72/5/3
f 80/4/3 74/4/3 73/4/3
f 81/5/3 66/5/3 75/5/3
f 82/4/3 76/4/3 67/4/3
f 83/5/3 70/5/3 77/5/3
f 84/4/3 78/4/3 70/4/3
f 85/5/3 73/5/3 79/5/3
f 86/4/3 80/4/3 73/4/3
f 87/5/3 66/5/3 81/5/3
f 88/5/3 67/5/3 65/5/3
f 88/4/3 82/4/3 67/4/3
f 89/4/3 82/4/3 88/4/3
f 90/5/3 70/5/3 83/5/3
f 91/4/3 84/4/3 70/4/3
f 91/5/3 70/5/3 90/5/3
f 92/4/3 84/4/3 91/4/3
f 93/5/3 73/5/3 85/5/3
f 94/4/3 86/4/3 73/4/3
f 94/5/3 73/5/3 93/5/3
f 95/4/3 86/4/3 94/4/3
f 96/5/3 66/5/3 87/5/3
f 97/5/3 95/5/3 94/5/3
f 97/5/3 96/5/3 95/5/3
f 97/5/3 92/5/3 91/5/3
f 97/5/3 90/5/3 89/5/3
f 97/5/3 94/5/3 93/5/3
f 97/5/3 93/5/3 92/5/3
f 97/5/3 91/5/3 90/5/3
f 97/5/3 89/5/3 88/5/3
f 97/5/3 88/5/3 65/5/3
f 98/5/3 66/5/3 96/5/3
f 98/5/3 96/5/3 97/5/3
f 99/5/4 100/5/4 101/5/4
f 101/5/4 100/5/4 102/5/4
f 102/5/4 100/5/4 103/5/4
f 103/5/4 100/5/4 104/5/4
f 99/5/4 101/5/4 105/5/4
f 101/1/4 102/1/4 105/1/4
f 102/5/4 103/5/4 106/5/4
f 105/1/4 102/1/4 106/1/4
f 103/1/4 104/1/4 107/1/4
f 106/5/4 103/5/4 107/5/4
f 104/5/4 100/5/4 108/5/4
f 107/1/4 104/1/4 108/1/4
f 106/5/4 107/5/4 109/5/4
f 105/5/4 106/5/4 109/5/4
f 107/5/4 108/5/4 109/5/4
f 99/5/4 105/5/4 109/5/4
f 109/5/4 108/5/4 110/5/4
f 110/5/4 108/5/4 111/5/4
f 108/5/4 100/5/4 112/5/4
f 111/5/4 108/5/4 112/5/4
f 99/5/4 109/5/4 113/5/4
f 109/1/4 110/1/4 113/1/4
f 110/5/4 111/5/4 114/5/4
f 113/1/4 110/1/4 114/1/4
f 111/1/4 112/1/4 115/1/4
f 114/5/4 111/5/4 115/5/4
f 112/5/4 100/5/4 116/5/4
f 115/1/4 112/1/4 116/1/4
f 99/5/4 113/5/4 117/5/4
f 114/5/4 115/5/4 117/5/4
f 115/5/4 116/5/4 117/5/4
f 113/5/4 114/5/4 117/5/4
f 116/5/4 100/5/4 118/5/4
f 117/5/4 116/5/4 118/5/4
f 121/5/5 120/5/5 119/5/5
f 122/5/5 120/5/5 121/5/5
f 127/3/5 124/3/5 123/3/5
f 128/2/5 125/2/5 124/2/5
f 128/3/5 124/3/5 127/3/5
f 129/3/5 126/3/5 125/3/5
f 129/2/5 125/2/5 128/2/5
f 130/3/5 126/3/5 129/3/5
f 135/2/5 132/2/5 131/2/5
f 136/3/5 133/3/5 132/3/5
f 136/2/5 132/2/5 135/2/5
f 137/2/5 134/2/5 133/2/5
f 137/3/5 133/3/5 136/3/5
f 138/2/5 134/2/5 137/2/5
f 143/3/5 140/3/5 139/3/5
f 144/2/5 141/2/5 140/2/5
f 144/3/5 140/3/5 143/3/5
f 145/3/5 142/3/5 141/3/5
f 145/2/5 141/2/5 144/2/5
f 146/3/5 142/3/5 145/3/5
f 147/3/6 148/3/6 151/3/6
f 148/2/6 149/2/6 152/2/6
f 151/3/6 148/3/6 152/3/6
f 149/3/6 150/3/6 153/3/6
f 152/2/6 149/2/6 153/2/6
f 153/3/6 150/3/6 154/3/6
f 155/2/6 156/2/6 159/2/6
f 156/3/6 157/3/6 160/3/6
f 159/2/6 156/2/6 160/2/6
f 157/2/6 158/2/6 161/2/6
f 160/3/6 157/3/6 161/3/6
f 161/2/6 158/2/6 162/2/6
f 163/3/6 164/3/6 167/3/6
f 164/2/6 165/2/6 168/2/6
f 167/3/6 164/3/6 168/3/6
f 165/3/6 166/3/6 169/3/6
f 168/2/6 165/2/6 169/2/6
f 169/3/6 166/3/6 170/3/6
f 171/5/6 172/5/6 173/5/6
f 173/5/6 172/5/6 174/5/6
f 174/5/6 172/5/6 175/5/6
f 175/5/6 172/5/6 176/5/6
f 171/5/6 173/5/6 177/5/6
f 173/2/6 174/2/6 177/2/6
f 174/3/6 175/3/6 178/3/6
f 177/2/6 174/2/6 178/2/6
f 175/2/6 176/2/6 179/2/6
f 178/3/6 175/3/6 179/3/6
f 176/5/6 172/5/6 180/5/6
f 179/2/6 176/2/6 180/2/6
f 178/5/6 179/5/6 181/5/6
f 177/5/6 178/5/6 181/5/6
f 179/5/6 180/5/6 181/5/6
f 171/5/6 177/5/6 181/5/6
f 180/5/6 172/5/6 182/5/6
f 181/5/6 180/5/6 182/5/6
