# MagicaVoxel @ Ephtracy

# group
o 

# material
mtllib Ascensor.mtl
usemtl palette

# normals
vn -1 0 0
vn 1 0 0
vn 0 0 1
vn 0 0 -1
vn 0 -1 0
vn 0 1 0

# texcoords
vt 0.00976563 0.5
vt 0.201172 0.5
vt 0.349609 0.5
vt 0.353516 0.5
vt 0.357422 0.5
vt 0.978516 0.5
vt 0.986328 0.5

# verts
v -2 0 2
v -2 0 -2.1
v -2 0.4 2
v -2 0.4 -2.1
v -2 4 2
v -2 4 -2.1
v 1.8 0 1.3
v 1.8 0 -2.38419e-07
v 1.8 0 -0.1
v 1.8 0 -1.4
v 1.8 3.7 1.3
v 1.8 3.7 -2.38419e-07
v 1.8 3.7 -0.1
v 1.8 3.7 -1.4
v -1.3 0 1.3
v -1.3 0 -1.4
v -1.3 0.4 1.3
v -1.3 0.4 -1.4
v -1.3 3.7 1.3
v -1.3 3.7 -1.4
v 1.9 0 1.3
v 1.9 0 -2.38419e-07
v 1.9 0 -0.1
v 1.9 0 -1.4
v 1.9 3.7 1.3
v 1.9 3.7 -2.38419e-07
v 1.9 3.7 -0.1
v 1.9 3.7 -1.4
v 2 0.4 2
v 2 0.4 1.5
v 2 0.4 -1.6
v 2 0.4 -2.1
v 2 1.4 -1.7
v 2 1.4 -2
v 2 1.5 -1.6
v 2 1.5 -1.7
v 2 1.5 -2
v 2 1.5 -2.1
v 2 2.1 -1.6
v 2 2.1 -1.7
v 2 2.1 -2
v 2 2.1 -2.1
v 2 2.2 -1.7
v 2 2.2 -2
v 2 3.9 1.5
v 2 3.9 -1.6
v 2 4 2
v 2 4 -2.1
v 2.1 0 2
v 2.1 0 1.5
v 2.1 0 1.3
v 2.1 0 -1.4
v 2.1 0 -1.6
v 2.1 0 -2.1
v 2.1 0.4 2
v 2.1 0.4 1.5
v 2.1 0.4 -1.6
v 2.1 0.4 -2.1
v 2.1 1.4 -1.7
v 2.1 1.4 -2
v 2.1 1.5 -1.6
v 2.1 1.5 -1.7
v 2.1 1.5 -1.8
v 2.1 1.5 -1.9
v 2.1 1.5 -2
v 2.1 1.5 -2.1
v 2.1 1.6 -1.7
v 2.1 1.6 -1.8
v 2.1 1.6 -1.9
v 2.1 1.6 -2
v 2.1 1.7 -1.7
v 2.1 1.7 -1.8
v 2.1 1.7 -1.9
v 2.1 1.7 -2
v 2.1 1.9 -1.7
v 2.1 1.9 -1.8
v 2.1 1.9 -1.9
v 2.1 1.9 -2
v 2.1 2 -1.7
v 2.1 2 -1.8
v 2.1 2 -1.9
v 2.1 2 -2
v 2.1 2.1 -1.6
v 2.1 2.1 -1.7
v 2.1 2.1 -1.8
v 2.1 2.1 -1.9
v 2.1 2.1 -2
v 2.1 2.1 -2.1
v 2.1 2.2 -1.7
v 2.1 2.2 -2
v 2.1 3.7 1.3
v 2.1 3.7 -1.4
v 2.1 3.9 1.5
v 2.1 3.9 -1.6
v -2 0 2
v -2 0.4 2
v -2 4 2
v 2 0.4 2
v 2 4 2
v 2.1 0 2
v 2.1 0.4 2
v 2 0.4 1.5
v 2 3.9 1.5
v 2.1 0.4 1.5
v 2.1 3.9 1.5
v -1.3 0 -1.4
v -1.3 0.4 -1.4
v -1.3 3.7 -1.4
v 1.7 0 -1.4
v 1.7 0.4 -1.4
v 1.7 3.7 -1.4
v 1.8 0 -1.4
v 1.8 3.7 -1.4
v 1.9 0 -1.4
v 1.9 3.7 -1.4
v 2.1 0 -1.4
v 2.1 3.7 -1.4
v 2 1.4 -1.7
v 2 1.5 -1.7
v 2 2.1 -1.7
v 2 2.2 -1.7
v 2.1 1.4 -1.7
v 2.1 1.5 -1.7
v 2.1 2.1 -1.7
v 2.1 2.2 -1.7
v -1.3 0 1.3
v -1.3 0.4 1.3
v -1.3 3.7 1.3
v 1.7 0 1.3
v 1.7 0.4 1.3
v 1.7 3.7 1.3
v 1.8 0 1.3
v 1.8 3.7 1.3
v 1.9 0 1.3
v 1.9 3.7 1.3
v 2.1 0 1.3
v 2.1 3.7 1.3
v 2 0.4 -1.6
v 2 1.5 -1.6
v 2 2.1 -1.6
v 2 3.9 -1.6
v 2.1 0.4 -1.6
v 2.1 1.5 -1.6
v 2.1 2.1 -1.6
v 2.1 3.9 -1.6
v 2 1.4 -2
v 2 1.5 -2
v 2 2.1 -2
v 2 2.2 -2
v 2.1 1.4 -2
v 2.1 1.5 -2
v 2.1 2.1 -2
v 2.1 2.2 -2
v -2 0 -2.1
v -2 0.4 -2.1
v -2 4 -2.1
v 2 0.4 -2.1
v 2 1.5 -2.1
v 2 2.1 -2.1
v 2 4 -2.1
v 2.1 0 -2.1
v 2.1 0.4 -2.1
v 2.1 1.5 -2.1
v 2.1 2.1 -2.1
v -2 0 2
v 2.1 0 2
v 2 0 1.5
v 2.1 0 1.5
v 1.7 0 1.4
v 2 0 1.4
v -1.3 0 1.3
v 1.7 0 1.3
v 1.8 0 1.3
v 1.9 0 1.3
v 2.1 0 1.3
v 1.8 0 -2.38419e-07
v 1.9 0 -2.38419e-07
v 1.8 0 -0.1
v 1.9 0 -0.1
v -1.3 0 -1.4
v 1.7 0 -1.4
v 1.8 0 -1.4
v 1.9 0 -1.4
v 2.1 0 -1.4
v 1.7 0 -1.5
v 2 0 -1.5
v 2 0 -1.6
v 2.1 0 -1.6
v -2 0 -2.1
v 2.1 0 -2.1
v 2 1.4 -1.7
v 2.1 1.4 -1.7
v 2 1.4 -2
v 2.1 1.4 -2
v 2 1.5 -1.6
v 2.1 1.5 -1.6
v 2 1.5 -1.7
v 2.1 1.5 -1.7
v 2 1.5 -2
v 2.1 1.5 -2
v 2 1.5 -2.1
v 2.1 1.5 -2.1
v -1.3 3.7 1.3
v 1.7 3.7 1.3
v 1.8 3.7 1.3
v 1.9 3.7 1.3
v 2.1 3.7 1.3
v 1.8 3.7 -2.38419e-07
v 1.9 3.7 -2.38419e-07
v 1.8 3.7 -0.1
v 1.9 3.7 -0.1
v -1.3 3.7 -1.4
v 1.7 3.7 -1.4
v 1.8 3.7 -1.4
v 1.9 3.7 -1.4
v 2.1 3.7 -1.4
v 2 0.4 2
v 2.1 0.4 2
v 2 0.4 1.5
v 2.1 0.4 1.5
v 2 0.4 -1.6
v 2.1 0.4 -1.6
v 2 0.4 -2.1
v 2.1 0.4 -2.1
v 2 2.1 -1.6
v 2.1 2.1 -1.6
v 2 2.1 -1.7
v 2.1 2.1 -1.7
v 2 2.1 -2
v 2.1 2.1 -2
v 2 2.1 -2.1
v 2.1 2.1 -2.1
v 2 2.2 -1.7
v 2.1 2.2 -1.7
v 2 2.2 -2
v 2.1 2.2 -2
v 2 3.9 1.5
v 2.1 3.9 1.5
v 2 3.9 -1.6
v 2.1 3.9 -1.6
v -2 4 2
v 2 4 2
v -2 4 -2.1
v 2 4 -2.1

# faces
f 3/2/1 2/2/1 1/2/1
f 4/2/1 2/2/1 3/2/1
f 5/1/1 4/1/1 3/1/1
f 6/1/1 4/1/1 5/1/1
f 11/3/1 8/3/1 7/3/1
f 12/5/1 9/5/1 8/5/1
f 12/3/1 8/3/1 11/3/1
f 13/3/1 10/3/1 9/3/1
f 13/5/1 9/5/1 12/5/1
f 14/3/1 10/3/1 13/3/1
f 15/2/2 16/2/2 17/2/2
f 17/2/2 16/2/2 18/2/2
f 17/1/2 18/1/2 19/1/2
f 19/1/2 18/1/2 20/1/2
f 21/3/2 22/3/2 25/3/2
f 22/5/2 23/5/2 26/5/2
f 25/3/2 22/3/2 26/3/2
f 23/3/2 24/3/2 27/3/2
f 26/5/2 23/5/2 27/5/2
f 27/3/2 24/3/2 28/3/2
f 31/1/2 32/1/2 33/1/2
f 33/1/2 32/1/2 34/1/2
f 31/1/2 33/1/2 35/1/2
f 35/1/2 33/1/2 36/1/2
f 34/1/2 32/1/2 37/1/2
f 37/1/2 32/1/2 38/1/2
f 39/1/2 40/1/2 43/1/2
f 41/1/2 42/1/2 44/1/2
f 29/1/2 30/1/2 45/1/2
f 43/1/2 44/1/2 46/1/2
f 39/1/2 43/1/2 46/1/2
f 29/1/2 45/1/2 47/1/2
f 45/1/2 46/1/2 47/1/2
f 46/1/2 44/1/2 48/1/2
f 47/1/2 46/1/2 48/1/2
f 44/1/2 42/1/2 48/1/2
f 49/2/2 50/2/2 55/2/2
f 50/4/2 51/4/2 56/4/2
f 55/2/2 50/2/2 56/2/2
f 53/2/2 54/2/2 57/2/2
f 52/4/2 53/4/2 57/4/2
f 57/2/2 54/2/2 58/2/2
f 52/4/2 57/4/2 61/4/2
f 59/6/2 60/6/2 62/6/2
f 62/6/2 60/6/2 63/6/2
f 63/6/2 60/6/2 64/6/2
f 64/6/2 60/6/2 65/6/2
f 61/6/2 62/6/2 67/6/2
f 62/6/2 63/6/2 67/6/2
f 63/7/2 64/7/2 68/7/2
f 67/6/2 63/6/2 68/6/2
f 65/6/2 66/6/2 69/6/2
f 68/7/2 64/7/2 69/7/2
f 64/6/2 65/6/2 69/6/2
f 69/6/2 66/6/2 70/6/2
f 67/7/2 68/7/2 71/7/2
f 61/6/2 67/6/2 71/6/2
f 68/6/2 69/6/2 72/6/2
f 71/7/2 68/7/2 72/7/2
f 69/7/2 70/7/2 73/7/2
f 72/6/2 69/6/2 73/6/2
f 70/6/2 66/6/2 74/6/2
f 73/7/2 70/7/2 74/7/2
f 72/6/2 73/6/2 75/6/2
f 71/6/2 72/6/2 75/6/2
f 73/6/2 74/6/2 75/6/2
f 61/6/2 71/6/2 75/6/2
f 75/6/2 74/6/2 76/6/2
f 76/6/2 74/6/2 77/6/2
f 74/6/2 66/6/2 78/6/2
f 77/6/2 74/6/2 78/6/2
f 61/6/2 75/6/2 79/6/2
f 75/7/2 76/7/2 79/7/2
f 76/6/2 77/6/2 80/6/2
f 79/7/2 76/7/2 80/7/2
f 77/7/2 78/7/2 81/7/2
f 80/6/2 77/6/2 81/6/2
f 78/6/2 66/6/2 82/6/2
f 81/7/2 78/7/2 82/7/2
f 52/4/2 61/4/2 83/4/2
f 61/6/2 79/6/2 83/6/2
f 79/6/2 80/6/2 83/6/2
f 83/6/2 80/6/2 84/6/2
f 80/7/2 81/7/2 85/7/2
f 84/6/2 80/6/2 85/6/2
f 81/6/2 82/6/2 86/6/2
f 85/7/2 81/7/2 86/7/2
f 82/6/2 66/6/2 87/6/2
f 86/6/2 82/6/2 87/6/2
f 87/6/2 66/6/2 88/6/2
f 85/6/2 86/6/2 89/6/2
f 84/6/2 85/6/2 89/6/2
f 86/6/2 87/6/2 89/6/2
f 89/6/2 87/6/2 90/6/2
f 56/4/2 51/4/2 91/4/2
f 52/4/2 83/4/2 92/4/2
f 56/4/2 91/4/2 93/4/2
f 91/4/2 92/4/2 93/4/2
f 92/4/2 83/4/2 94/4/2
f 93/4/2 92/4/2 94/4/2
f 98/2/3 96/2/3 95/2/3
f 98/1/3 97/1/3 96/1/3
f 99/1/3 97/1/3 98/1/3
f 100/2/3 98/2/3 95/2/3
f 101/2/3 98/2/3 100/2/3
f 104/4/3 103/4/3 102/4/3
f 105/4/3 103/4/3 104/4/3
f 109/2/3 107/2/3 106/2/3
f 110/1/3 108/1/3 107/1/3
f 110/2/3 107/2/3 109/2/3
f 111/1/3 108/1/3 110/1/3
f 112/4/3 110/4/3 109/4/3
f 112/4/3 111/4/3 110/4/3
f 113/4/3 111/4/3 112/4/3
f 116/4/3 115/4/3 114/4/3
f 117/4/3 115/4/3 116/4/3
f 122/6/3 119/6/3 118/6/3
f 123/6/3 119/6/3 122/6/3
f 124/6/3 121/6/3 120/6/3
f 125/6/3 121/6/3 124/6/3
f 126/2/4 127/2/4 129/2/4
f 127/1/4 128/1/4 130/1/4
f 129/2/4 127/2/4 130/2/4
f 130/1/4 128/1/4 131/1/4
f 129/4/4 130/4/4 132/4/4
f 130/4/4 131/4/4 132/4/4
f 132/4/4 131/4/4 133/4/4
f 134/4/4 135/4/4 136/4/4
f 136/4/4 135/4/4 137/4/4
f 138/4/4 139/4/4 142/4/4
f 142/4/4 139/4/4 143/4/4
f 140/4/4 141/4/4 144/4/4
f 144/4/4 141/4/4 145/4/4
f 146/6/4 147/6/4 150/6/4
f 150/6/4 147/6/4 151/6/4
f 148/6/4 149/6/4 152/6/4
f 152/6/4 149/6/4 153/6/4
f 154/2/4 155/2/4 157/2/4
f 155/1/4 156/1/4 157/1/4
f 157/1/4 156/1/4 158/1/4
f 158/1/4 156/1/4 159/1/4
f 159/1/4 156/1/4 160/1/4
f 154/2/4 157/2/4 161/2/4
f 161/2/4 157/2/4 162/2/4
f 158/6/4 159/6/4 163/6/4
f 163/6/4 159/6/4 164/6/4
f 167/2/5 166/2/5 165/2/5
f 168/2/5 166/2/5 167/2/5
f 169/2/5 167/2/5 165/2/5
f 170/4/5 168/4/5 167/4/5
f 170/2/5 167/2/5 169/2/5
f 171/2/5 169/2/5 165/2/5
f 172/4/5 170/4/5 169/4/5
f 172/2/5 169/2/5 171/2/5
f 173/4/5 170/4/5 172/4/5
f 174/4/5 170/4/5 173/4/5
f 175/4/5 168/4/5 170/4/5
f 175/4/5 170/4/5 174/4/5
f 176/3/5 174/3/5 173/3/5
f 177/3/5 174/3/5 176/3/5
f 178/5/5 177/5/5 176/5/5
f 179/5/5 177/5/5 178/5/5
f 180/2/5 171/2/5 165/2/5
f 182/3/5 179/3/5 178/3/5
f 183/3/5 179/3/5 182/3/5
f 185/4/5 183/4/5 182/4/5
f 185/4/5 184/4/5 183/4/5
f 185/4/5 182/4/5 181/4/5
f 185/2/5 181/2/5 180/2/5
f 186/4/5 184/4/5 185/4/5
f 187/2/5 186/2/5 185/2/5
f 187/4/5 184/4/5 186/4/5
f 188/4/5 184/4/5 187/4/5
f 189/2/5 180/2/5 165/2/5
f 189/2/5 185/2/5 180/2/5
f 189/2/5 188/2/5 187/2/5
f 189/2/5 187/2/5 185/2/5
f 190/2/5 188/2/5 189/2/5
f 193/6/5 192/6/5 191/6/5
f 194/6/5 192/6/5 193/6/5
f 197/6/5 196/6/5 195/6/5
f 198/6/5 196/6/5 197/6/5
f 201/6/5 200/6/5 199/6/5
f 202/6/5 200/6/5 201/6/5
f 208/4/5 205/4/5 204/4/5
f 209/4/5 207/4/5 206/4/5
f 210/4/5 208/4/5 204/4/5
f 211/4/5 207/4/5 209/4/5
f 212/1/5 204/1/5 203/1/5
f 213/4/5 210/4/5 204/4/5
f 213/1/5 204/1/5 212/1/5
f 214/4/5 210/4/5 213/4/5
f 215/4/5 207/4/5 211/4/5
f 216/4/5 207/4/5 215/4/5
f 217/2/6 218/2/6 219/2/6
f 219/2/6 218/2/6 220/2/6
f 221/2/6 222/2/6 223/2/6
f 223/2/6 222/2/6 224/2/6
f 225/6/6 226/6/6 227/6/6
f 227/6/6 226/6/6 228/6/6
f 229/6/6 230/6/6 231/6/6
f 231/6/6 230/6/6 232/6/6
f 233/6/6 234/6/6 235/6/6
f 235/6/6 234/6/6 236/6/6
f 237/4/6 238/4/6 239/4/6
f 239/4/6 238/4/6 240/4/6
f 241/1/6 242/1/6 243/1/6
f 243/1/6 242/1/6 244/1/6
