# MagicaVoxel @ Ephtracy

# group
o 

# material
mtllib banco.mtl
usemtl palette

# normals
vn -1 0 0
vn 1 0 0
vn 0 0 1
vn 0 0 -1
vn 0 -1 0
vn 0 1 0

# texcoords
vt 0.369141 0.5
vt 0.982422 0.5

# verts
v -1.4 1.7 0.3
v -1.4 1.7 -0.1
v -1.4 1.8 0.3
v -1.4 1.8 -0.1
v -1.4 1.8 -0.2
v -1.4 2 -0.2
v -1.4 2 -0.3
v -1.4 2.1 -0.1
v -1.4 2.1 -0.3
v -1.3 1.5 0.1
v -1.3 1.5 -0.1
v -1.3 1.6 0.2
v -1.3 1.6 0.1
v -1.3 1.6 -0.1
v -1.3 1.6 -0.2
v -1.3 1.7 0.2
v -1.3 1.7 -0.1
v -1.3 1.7 -0.2
v -1.3 1.7 -0.3
v -1.3 1.8 -0.1
v -1.3 1.8 -0.2
v -1.3 2 -0.2
v -1.3 2 -0.3
v -0.2 1.5 0.1
v -0.2 1.5 -0.1
v -0.2 1.6 0.2
v -0.2 1.6 0.1
v -0.2 1.6 -0.1
v -0.2 1.6 -0.2
v -0.2 1.7 0.2
v -0.2 1.7 -0.1
v -0.2 1.7 -0.2
v -0.2 1.7 -0.3
v -0.2 1.8 -0.1
v -0.2 1.8 -0.2
v -0.2 2 -0.2
v -0.2 2 -0.3
v 1 1.5 0.1
v 1 1.5 -0.1
v 1 1.6 0.2
v 1 1.6 0.1
v 1 1.6 -0.1
v 1 1.6 -0.2
v 1 1.7 0.2
v 1 1.7 -0.1
v 1 1.7 -0.2
v 1 1.7 -0.3
v 1 1.8 -0.1
v 1 1.8 -0.2
v 1 2 -0.2
v 1 2 -0.3
v -1 1.5 0.1
v -1 1.5 -0.1
v -1 1.6 0.2
v -1 1.6 0.1
v -1 1.6 -0.1
v -1 1.6 -0.2
v -1 1.7 0.2
v -1 1.7 -0.1
v -1 1.7 -0.2
v -1 1.7 -0.3
v -1 1.8 -0.1
v -1 1.8 -0.2
v -1 2 -0.2
v -1 2 -0.3
v 0.2 1.5 0.1
v 0.2 1.5 -0.1
v 0.2 1.6 0.2
v 0.2 1.6 0.1
v 0.2 1.6 -0.1
v 0.2 1.6 -0.2
v 0.2 1.7 0.2
v 0.2 1.7 -0.1
v 0.2 1.7 -0.2
v 0.2 1.7 -0.3
v 0.2 1.8 -0.1
v 0.2 1.8 -0.2
v 0.2 2 -0.2
v 0.2 2 -0.3
v 1.3 1.5 0.1
v 1.3 1.5 -0.1
v 1.3 1.6 0.2
v 1.3 1.6 0.1
v 1.3 1.6 -0.1
v 1.3 1.6 -0.2
v 1.3 1.7 0.2
v 1.3 1.7 -0.1
v 1.3 1.7 -0.2
v 1.3 1.7 -0.3
v 1.3 1.8 -0.1
v 1.3 1.8 -0.2
v 1.3 2 -0.2
v 1.3 2 -0.3
v 1.4 1.7 0.3
v 1.4 1.7 -0.1
v 1.4 1.8 0.3
v 1.4 1.8 -0.1
v 1.4 1.8 -0.2
v 1.4 2 -0.2
v 1.4 2 -0.3
v 1.4 2.1 -0.1
v 1.4 2.1 -0.3
v -1.4 1.7 0.3
v -1.4 1.8 0.3
v 1.4 1.7 0.3
v 1.4 1.8 0.3
v -1.3 1.6 0.2
v -1.3 1.7 0.2
v -1 1.6 0.2
v -1 1.7 0.2
v -0.2 1.6 0.2
v -0.2 1.7 0.2
v 0.2 1.6 0.2
v 0.2 1.7 0.2
v 1 1.6 0.2
v 1 1.7 0.2
v 1.3 1.6 0.2
v 1.3 1.7 0.2
v -1.3 1.5 0.1
v -1.3 1.6 0.1
v -1 1.5 0.1
v -1 1.6 0.1
v -0.2 1.5 0.1
v -0.2 1.6 0.1
v 0.2 1.5 0.1
v 0.2 1.6 0.1
v 1 1.5 0.1
v 1 1.6 0.1
v 1.3 1.5 0.1
v 1.3 1.6 0.1
v -1.4 1.8 -0.1
v -1.4 2.1 -0.1
v 1.4 1.8 -0.1
v 1.4 2.1 -0.1
v -1.4 1.7 -0.1
v -1.4 1.8 -0.1
v -1.3 1.5 -0.1
v -1.3 1.6 -0.1
v -1.3 1.7 -0.1
v -1.3 1.8 -0.1
v -1 1.5 -0.1
v -1 1.6 -0.1
v -1 1.7 -0.1
v -1 1.8 -0.1
v -0.2 1.5 -0.1
v -0.2 1.6 -0.1
v -0.2 1.7 -0.1
v -0.2 1.8 -0.1
v 0.2 1.5 -0.1
v 0.2 1.6 -0.1
v 0.2 1.7 -0.1
v 0.2 1.8 -0.1
v 1 1.5 -0.1
v 1 1.6 -0.1
v 1 1.7 -0.1
v 1 1.8 -0.1
v 1.3 1.5 -0.1
v 1.3 1.6 -0.1
v 1.3 1.7 -0.1
v 1.3 1.8 -0.1
v 1.4 1.7 -0.1
v 1.4 1.8 -0.1
v -1.4 1.8 -0.2
v -1.4 2 -0.2
v -1.3 1.6 -0.2
v -1.3 1.7 -0.2
v -1.3 1.8 -0.2
v -1.3 2 -0.2
v -1 1.6 -0.2
v -1 1.7 -0.2
v -1 1.8 -0.2
v -1 2 -0.2
v -0.2 1.6 -0.2
v -0.2 1.7 -0.2
v -0.2 1.8 -0.2
v -0.2 2 -0.2
v 0.2 1.6 -0.2
v 0.2 1.7 -0.2
v 0.2 1.8 -0.2
v 0.2 2 -0.2
v 1 1.6 -0.2
v 1 1.7 -0.2
v 1 1.8 -0.2
v 1 2 -0.2
v 1.3 1.6 -0.2
v 1.3 1.7 -0.2
v 1.3 1.8 -0.2
v 1.3 2 -0.2
v 1.4 1.8 -0.2
v 1.4 2 -0.2
v -1.4 2 -0.3
v -1.4 2.1 -0.3
v -1.3 1.7 -0.3
v -1.3 2 -0.3
v -1 1.7 -0.3
v -1 2 -0.3
v -0.2 1.7 -0.3
v -0.2 2 -0.3
v 0.2 1.7 -0.3
v 0.2 2 -0.3
v 1 1.7 -0.3
v 1 2 -0.3
v 1.3 1.7 -0.3
v 1.3 2 -0.3
v 1.4 2 -0.3
v 1.4 2.1 -0.3
v -1.3 1.5 0.1
v -1 1.5 0.1
v -0.2 1.5 0.1
v 0.2 1.5 0.1
v 1 1.5 0.1
v 1.3 1.5 0.1
v -1.3 1.5 -0.1
v -1 1.5 -0.1
v -0.2 1.5 -0.1
v 0.2 1.5 -0.1
v 1 1.5 -0.1
v 1.3 1.5 -0.1
v -1.3 1.6 0.2
v -1 1.6 0.2
v -0.2 1.6 0.2
v 0.2 1.6 0.2
v 1 1.6 0.2
v 1.3 1.6 0.2
v -1.3 1.6 0.1
v -1 1.6 0.1
v -0.2 1.6 0.1
v 0.2 1.6 0.1
v 1 1.6 0.1
v 1.3 1.6 0.1
v -1.3 1.6 -0.1
v -1 1.6 -0.1
v -0.2 1.6 -0.1
v 0.2 1.6 -0.1
v 1 1.6 -0.1
v 1.3 1.6 -0.1
v -1.3 1.6 -0.2
v -1 1.6 -0.2
v -0.2 1.6 -0.2
v 0.2 1.6 -0.2
v 1 1.6 -0.2
v 1.3 1.6 -0.2
v -1.4 1.7 0.3
v 1.4 1.7 0.3
v -1.3 1.7 0.2
v -1 1.7 0.2
v -0.2 1.7 0.2
v 0.2 1.7 0.2
v 1 1.7 0.2
v 1.3 1.7 0.2
v -1.4 1.7 -0.1
v -1.3 1.7 -0.1
v -1 1.7 -0.1
v -0.2 1.7 -0.1
v 0.2 1.7 -0.1
v 1 1.7 -0.1
v 1.3 1.7 -0.1
v 1.4 1.7 -0.1
v -1.3 1.7 -0.2
v -1 1.7 -0.2
v -0.2 1.7 -0.2
v 0.2 1.7 -0.2
v 1 1.7 -0.2
v 1.3 1.7 -0.2
v -1.3 1.7 -0.3
v -1 1.7 -0.3
v -0.2 1.7 -0.3
v 0.2 1.7 -0.3
v 1 1.7 -0.3
v 1.3 1.7 -0.3
v -1.4 1.8 -0.1
v -1.3 1.8 -0.1
v -1 1.8 -0.1
v -0.2 1.8 -0.1
v 0.2 1.8 -0.1
v 1 1.8 -0.1
v 1.3 1.8 -0.1
v 1.4 1.8 -0.1
v -1.4 1.8 -0.2
v -1.3 1.8 -0.2
v -1 1.8 -0.2
v -0.2 1.8 -0.2
v 0.2 1.8 -0.2
v 1 1.8 -0.2
v 1.3 1.8 -0.2
v 1.4 1.8 -0.2
v -1.4 2 -0.2
v -1.3 2 -0.2
v -1 2 -0.2
v -0.2 2 -0.2
v 0.2 2 -0.2
v 1 2 -0.2
v 1.3 2 -0.2
v 1.4 2 -0.2
v -1.4 2 -0.3
v -1.3 2 -0.3
v -1 2 -0.3
v -0.2 2 -0.3
v 0.2 2 -0.3
v 1 2 -0.3
v 1.3 2 -0.3
v 1.4 2 -0.3
v -1.4 1.8 0.3
v 1.4 1.8 0.3
v -1.4 1.8 -0.1
v 1.4 1.8 -0.1
v -1.4 2.1 -0.1
v 1.4 2.1 -0.1
v -1.4 2.1 -0.3
v 1.4 2.1 -0.3

# faces
f 3/1/1 2/1/1 1/1/1
f 4/1/1 2/1/1 3/1/1
f 6/1/1 5/1/1 4/1/1
f 8/1/1 6/1/1 4/1/1
f 8/1/1 7/1/1 6/1/1
f 9/1/1 7/1/1 8/1/1
f 13/2/1 11/2/1 10/2/1
f 14/2/1 11/2/1 13/2/1
f 16/2/1 13/2/1 12/2/1
f 16/2/1 15/2/1 14/2/1
f 16/2/1 14/2/1 13/2/1
f 17/2/1 15/2/1 16/2/1
f 18/2/1 15/2/1 17/2/1
f 20/2/1 19/2/1 18/2/1
f 20/2/1 18/2/1 17/2/1
f 21/2/1 19/2/1 20/2/1
f 22/2/1 19/2/1 21/2/1
f 23/2/1 19/2/1 22/2/1
f 27/2/1 25/2/1 24/2/1
f 28/2/1 25/2/1 27/2/1
f 30/2/1 27/2/1 26/2/1
f 30/2/1 29/2/1 28/2/1
f 30/2/1 28/2/1 27/2/1
f 31/2/1 29/2/1 30/2/1
f 32/2/1 29/2/1 31/2/1
f 34/2/1 33/2/1 32/2/1
f 34/2/1 32/2/1 31/2/1
f 35/2/1 33/2/1 34/2/1
f 36/2/1 33/2/1 35/2/1
f 37/2/1 33/2/1 36/2/1
f 41/2/1 39/2/1 38/2/1
f 42/2/1 39/2/1 41/2/1
f 44/2/1 41/2/1 40/2/1
f 44/2/1 43/2/1 42/2/1
f 44/2/1 42/2/1 41/2/1
f 45/2/1 43/2/1 44/2/1
f 46/2/1 43/2/1 45/2/1
f 48/2/1 47/2/1 46/2/1
f 48/2/1 46/2/1 45/2/1
f 49/2/1 47/2/1 48/2/1
f 50/2/1 47/2/1 49/2/1
f 51/2/1 47/2/1 50/2/1
f 52/2/2 53/2/2 55/2/2
f 55/2/2 53/2/2 56/2/2
f 54/2/2 55/2/2 58/2/2
f 56/2/2 57/2/2 58/2/2
f 55/2/2 56/2/2 58/2/2
f 58/2/2 57/2/2 59/2/2
f 59/2/2 57/2/2 60/2/2
f 60/2/2 61/2/2 62/2/2
f 59/2/2 60/2/2 62/2/2
f 62/2/2 61/2/2 63/2/2
f 63/2/2 61/2/2 64/2/2
f 64/2/2 61/2/2 65/2/2
f 66/2/2 67/2/2 69/2/2
f 69/2/2 67/2/2 70/2/2
f 68/2/2 69/2/2 72/2/2
f 70/2/2 71/2/2 72/2/2
f 69/2/2 70/2/2 72/2/2
f 72/2/2 71/2/2 73/2/2
f 73/2/2 71/2/2 74/2/2
f 74/2/2 75/2/2 76/2/2
f 73/2/2 74/2/2 76/2/2
f 76/2/2 75/2/2 77/2/2
f 77/2/2 75/2/2 78/2/2
f 78/2/2 75/2/2 79/2/2
f 80/2/2 81/2/2 83/2/2
f 83/2/2 81/2/2 84/2/2
f 82/2/2 83/2/2 86/2/2
f 84/2/2 85/2/2 86/2/2
f 83/2/2 84/2/2 86/2/2
f 86/2/2 85/2/2 87/2/2
f 87/2/2 85/2/2 88/2/2
f 88/2/2 89/2/2 90/2/2
f 87/2/2 88/2/2 90/2/2
f 90/2/2 89/2/2 91/2/2
f 91/2/2 89/2/2 92/2/2
f 92/2/2 89/2/2 93/2/2
f 94/1/2 95/1/2 96/1/2
f 96/1/2 95/1/2 97/1/2
f 97/1/2 98/1/2 99/1/2
f 97/1/2 99/1/2 101/1/2
f 99/1/2 100/1/2 101/1/2
f 101/1/2 100/1/2 102/1/2
f 105/1/3 104/1/3 103/1/3
f 106/1/3 104/1/3 105/1/3
f 109/2/3 108/2/3 107/2/3
f 110/2/3 108/2/3 109/2/3
f 113/2/3 112/2/3 111/2/3
f 114/2/3 112/2/3 113/2/3
f 117/2/3 116/2/3 115/2/3
f 118/2/3 116/2/3 117/2/3
f 121/2/3 120/2/3 119/2/3
f 122/2/3 120/2/3 121/2/3
f 125/2/3 124/2/3 123/2/3
f 126/2/3 124/2/3 125/2/3
f 129/2/3 128/2/3 127/2/3
f 130/2/3 128/2/3 129/2/3
f 133/1/3 132/1/3 131/1/3
f 134/1/3 132/1/3 133/1/3
f 135/1/4 136/1/4 139/1/4
f 139/1/4 136/1/4 140/1/4
f 137/2/4 138/2/4 141/2/4
f 141/2/4 138/2/4 142/2/4
f 143/1/4 144/1/4 147/1/4
f 147/1/4 144/1/4 148/1/4
f 145/2/4 146/2/4 149/2/4
f 149/2/4 146/2/4 150/2/4
f 151/1/4 152/1/4 155/1/4
f 155/1/4 152/1/4 156/1/4
f 153/2/4 154/2/4 157/2/4
f 157/2/4 154/2/4 158/2/4
f 159/1/4 160/1/4 161/1/4
f 161/1/4 160/1/4 162/1/4
f 163/1/4 164/1/4 167/1/4
f 167/1/4 164/1/4 168/1/4
f 165/2/4 166/2/4 169/2/4
f 169/2/4 166/2/4 170/2/4
f 171/1/4 172/1/4 175/1/4
f 175/1/4 172/1/4 176/1/4
f 173/2/4 174/2/4 177/2/4
f 177/2/4 174/2/4 178/2/4
f 179/1/4 180/1/4 183/1/4
f 183/1/4 180/1/4 184/1/4
f 181/2/4 182/2/4 185/2/4
f 185/2/4 182/2/4 186/2/4
f 187/1/4 188/1/4 189/1/4
f 189/1/4 188/1/4 190/1/4
f 191/1/4 192/1/4 194/1/4
f 193/2/4 194/2/4 195/2/4
f 194/1/4 192/1/4 196/1/4
f 195/2/4 194/2/4 196/2/4
f 196/1/4 192/1/4 198/1/4
f 197/2/4 198/2/4 199/2/4
f 198/1/4 192/1/4 200/1/4
f 199/2/4 198/2/4 200/2/4
f 200/1/4 192/1/4 202/1/4
f 201/2/4 202/2/4 203/2/4
f 202/1/4 192/1/4 204/1/4
f 203/2/4 202/2/4 204/2/4
f 204/1/4 192/1/4 205/1/4
f 205/1/4 192/1/4 206/1/4
f 213/2/5 208/2/5 207/2/5
f 214/2/5 208/2/5 213/2/5
f 215/2/5 210/2/5 209/2/5
f 216/2/5 210/2/5 215/2/5
f 217/2/5 212/2/5 211/2/5
f 218/2/5 212/2/5 217/2/5
f 225/2/5 220/2/5 219/2/5
f 226/2/5 220/2/5 225/2/5
f 227/2/5 222/2/5 221/2/5
f 228/2/5 222/2/5 227/2/5
f 229/2/5 224/2/5 223/2/5
f 230/2/5 224/2/5 229/2/5
f 237/2/5 232/2/5 231/2/5
f 238/2/5 232/2/5 237/2/5
f 239/2/5 234/2/5 233/2/5
f 240/2/5 234/2/5 239/2/5
f 241/2/5 236/2/5 235/2/5
f 242/2/5 236/2/5 241/2/5
f 245/1/5 244/1/5 243/1/5
f 246/1/5 244/1/5 245/1/5
f 247/1/5 244/1/5 246/1/5
f 248/1/5 244/1/5 247/1/5
f 249/1/5 244/1/5 248/1/5
f 250/1/5 244/1/5 249/1/5
f 251/1/5 245/1/5 243/1/5
f 252/1/5 245/1/5 251/1/5
f 253/1/5 247/1/5 246/1/5
f 254/1/5 247/1/5 253/1/5
f 255/1/5 249/1/5 248/1/5
f 256/1/5 249/1/5 255/1/5
f 257/1/5 244/1/5 250/1/5
f 258/1/5 244/1/5 257/1/5
f 265/2/5 260/2/5 259/2/5
f 266/2/5 260/2/5 265/2/5
f 267/2/5 262/2/5 261/2/5
f 268/2/5 262/2/5 267/2/5
f 269/2/5 264/2/5 263/2/5
f 270/2/5 264/2/5 269/2/5
f 279/1/5 272/1/5 271/1/5
f 280/1/5 272/1/5 279/1/5
f 281/1/5 274/1/5 273/1/5
f 282/1/5 274/1/5 281/1/5
f 283/1/5 276/1/5 275/1/5
f 284/1/5 276/1/5 283/1/5
f 285/1/5 278/1/5 277/1/5
f 286/1/5 278/1/5 285/1/5
f 295/1/5 288/1/5 287/1/5
f 296/1/5 288/1/5 295/1/5
f 297/1/5 290/1/5 289/1/5
f 298/1/5 290/1/5 297/1/5
f 299/1/5 292/1/5 291/1/5
f 300/1/5 292/1/5 299/1/5
f 301/1/5 294/1/5 293/1/5
f 302/1/5 294/1/5 301/1/5
f 303/1/6 304/1/6 305/1/6
f 305/1/6 304/1/6 306/1/6
f 307/1/6 308/1/6 309/1/6
f 309/1/6 308/1/6 310/1/6
