# MagicaVoxel @ Ephtracy

# group
o 

# material
mtllib baño.mtl
usemtl palette

# normals
vn -1 0 0
vn 1 0 0
vn 0 0 1
vn 0 0 -1
vn 0 -1 0
vn 0 1 0

# texcoords
vt 0.353516 0.5
vt 0.357422 0.5
vt 0.974609 0.5

# verts
v -1.4 0 1.3
v -1.4 0 1.2
v -1.4 0 -1.2
v -1.4 0 -1.3
v -1.4 3.8 1.2
v -1.4 3.8 -1.2
v -1.4 3.9 1.3
v -1.4 3.9 -1.3
v -1.3 0 1.4
v -1.3 0 1.3
v -1.3 0 1.2
v -1.3 0 -1.2
v -1.3 0 -1.3
v -1.3 0 -1.4
v -1.3 3.8 1.2
v -1.3 3.8 -1.2
v -1.3 3.9 1.4
v -1.3 3.9 1.3
v -1.3 3.9 -1.3
v -1.3 3.9 -1.4
v -1.3 4 1.3
v -1.3 4 -1.3
v 1.2 0 1.4
v 1.2 0 1.2
v 1.2 0 -1.2
v 1.2 0 -1.4
v 1.2 3.8 1.4
v 1.2 3.8 1.2
v 1.2 3.8 -1.2
v 1.2 3.8 -1.4
v 1.2 3.9 1.2
v 1.2 3.9 -1.2
v 1.2 4 1.2
v 1.2 4 -1.2
v -1.2 0 1.4
v -1.2 0 1.2
v -1.2 0 -1.2
v -1.2 0 -1.4
v -1.2 3.8 1.4
v -1.2 3.8 1.2
v -1.2 3.8 -1.2
v -1.2 3.8 -1.4
v -1.2 3.9 1.2
v -1.2 3.9 -1.2
v -1.2 4 1.2
v -1.2 4 -1.2
v 1.3 0 1.4
v 1.3 0 1.3
v 1.3 0 1.2
v 1.3 0 -1.2
v 1.3 0 -1.3
v 1.3 0 -1.4
v 1.3 1.6 -0.9
v 1.3 1.6 -1
v 1.3 2.4 -0.9
v 1.3 2.4 -1
v 1.3 3.8 1.2
v 1.3 3.8 -1.2
v 1.3 3.9 1.4
v 1.3 3.9 1.3
v 1.3 3.9 -1.3
v 1.3 3.9 -1.4
v 1.3 4 1.3
v 1.3 4 -1.3
v 1.4 0 1.3
v 1.4 0 1.2
v 1.4 0 -1.2
v 1.4 0 -1.3
v 1.4 1.6 -0.9
v 1.4 1.6 -1
v 1.4 2.4 -0.9
v 1.4 2.4 -1
v 1.4 3.8 1.2
v 1.4 3.8 -1.2
v 1.4 3.9 1.3
v 1.4 3.9 -1.3
v -1.3 0 1.4
v -1.3 3.9 1.4
v -1.2 0 1.4
v -1.2 3.8 1.4
v 1.2 0 1.4
v 1.2 3.8 1.4
v 1.3 0 1.4
v 1.3 3.9 1.4
v -1.4 0 1.3
v -1.4 3.9 1.3
v -1.3 0 1.3
v -1.3 3.9 1.3
v -1.3 4 1.3
v 1.3 0 1.3
v 1.3 3.9 1.3
v 1.3 4 1.3
v 1.4 0 1.3
v 1.4 3.9 1.3
v -1.2 0 1.2
v -1.2 3.8 1.2
v 1.2 0 1.2
v 1.2 3.8 1.2
v 1.3 1.6 -0.9
v 1.3 2.4 -0.9
v 1.4 1.6 -0.9
v 1.4 2.4 -0.9
v -1.4 0 -1.2
v -1.4 3.8 -1.2
v -1.3 0 -1.2
v -1.3 3.8 -1.2
v -1.2 3.9 -1.2
v -1.2 4 -1.2
v 1.2 3.9 -1.2
v 1.2 4 -1.2
v 1.3 0 -1.2
v 1.3 3.8 -1.2
v 1.4 0 -1.2
v 1.4 3.8 -1.2
v -1.4 0 1.2
v -1.4 3.8 1.2
v -1.3 0 1.2
v -1.3 3.8 1.2
v -1.2 3.9 1.2
v -1.2 4 1.2
v 1.2 3.9 1.2
v 1.2 4 1.2
v 1.3 0 1.2
v 1.3 3.8 1.2
v 1.4 0 1.2
v 1.4 3.8 1.2
v 1.3 1.6 -1
v 1.3 2.4 -1
v 1.4 1.6 -1
v 1.4 2.4 -1
v -1.2 0 -1.2
v -1.2 3.8 -1.2
v 1.2 0 -1.2
v 1.2 3.8 -1.2
v -1.4 0 -1.3
v -1.4 3.9 -1.3
v -1.3 0 -1.3
v -1.3 3.9 -1.3
v -1.3 4 -1.3
v 1.3 0 -1.3
v 1.3 3.9 -1.3
v 1.3 4 -1.3
v 1.4 0 -1.3
v 1.4 3.9 -1.3
v -1.3 0 -1.4
v -1.3 3.9 -1.4
v -1.2 0 -1.4
v -1.2 3.8 -1.4
v 1.2 0 -1.4
v 1.2 3.8 -1.4
v 1.3 0 -1.4
v 1.3 3.9 -1.4
v -1.3 0 1.4
v -1.2 0 1.4
v 1.2 0 1.4
v 1.3 0 1.4
v -1.4 0 1.3
v -1.3 0 1.3
v 1.3 0 1.3
v 1.4 0 1.3
v -1.4 0 1.2
v -1.3 0 1.2
v -1.2 0 1.2
v 1.2 0 1.2
v 1.3 0 1.2
v 1.4 0 1.2
v -1.4 0 -1.2
v -1.3 0 -1.2
v -1.2 0 -1.2
v 1.2 0 -1.2
v 1.3 0 -1.2
v 1.4 0 -1.2
v -1.4 0 -1.3
v -1.3 0 -1.3
v 1.3 0 -1.3
v 1.4 0 -1.3
v -1.3 0 -1.4
v -1.2 0 -1.4
v 1.2 0 -1.4
v 1.3 0 -1.4
v 1.3 1.6 -0.9
v 1.4 1.6 -0.9
v 1.3 1.6 -1
v 1.4 1.6 -1
v -1.2 3.8 1.4
v 1.2 3.8 1.4
v -1.4 3.8 1.2
v -1.3 3.8 1.2
v -1.2 3.8 1.2
v 1.2 3.8 1.2
v 1.3 3.8 1.2
v 1.4 3.8 1.2
v -1.4 3.8 -1.2
v -1.3 3.8 -1.2
v -1.2 3.8 -1.2
v 1.2 3.8 -1.2
v 1.3 3.8 -1.2
v 1.4 3.8 -1.2
v -1.2 3.8 -1.4
v 1.2 3.8 -1.4
v 1.3 2.4 -0.9
v 1.4 2.4 -0.9
v 1.3 2.4 -1
v 1.4 2.4 -1
v -1.3 3.9 1.4
v 1.3 3.9 1.4
v -1.4 3.9 1.3
v -1.3 3.9 1.3
v 1.3 3.9 1.3
v 1.4 3.9 1.3
v -1.2 3.9 1.2
v 1.2 3.9 1.2
v -1.2 3.9 -1.2
v 1.2 3.9 -1.2
v -1.4 3.9 -1.3
v -1.3 3.9 -1.3
v 1.3 3.9 -1.3
v 1.4 3.9 -1.3
v -1.3 3.9 -1.4
v 1.3 3.9 -1.4
v -1.3 4 1.3
v 1.3 4 1.3
v -1.2 4 1.2
v 1.2 4 1.2
v -1.2 4 -1.2
v 1.2 4 -1.2
v -1.3 4 -1.3
v 1.3 4 -1.3

# faces
f 5/3/1 2/3/1 1/3/1
f 6/3/1 4/3/1 3/3/1
f 7/3/1 5/3/1 1/3/1
f 7/3/1 6/3/1 5/3/1
f 8/3/1 4/3/1 6/3/1
f 8/3/1 6/3/1 7/3/1
f 15/2/1 12/2/1 11/2/1
f 16/2/1 12/2/1 15/2/1
f 17/3/1 10/3/1 9/3/1
f 18/3/1 10/3/1 17/3/1
f 19/3/1 14/3/1 13/3/1
f 20/3/1 14/3/1 19/3/1
f 21/3/1 19/3/1 18/3/1
f 22/3/1 19/3/1 21/3/1
f 27/3/1 24/3/1 23/3/1
f 28/3/1 24/3/1 27/3/1
f 29/3/1 26/3/1 25/3/1
f 30/3/1 26/3/1 29/3/1
f 33/3/1 32/3/1 31/3/1
f 34/3/1 32/3/1 33/3/1
f 35/3/2 36/3/2 39/3/2
f 39/3/2 36/3/2 40/3/2
f 37/3/2 38/3/2 41/3/2
f 41/3/2 38/3/2 42/3/2
f 43/3/2 44/3/2 45/3/2
f 45/3/2 44/3/2 46/3/2
f 49/2/2 50/2/2 53/2/2
f 53/2/2 50/2/2 54/2/2
f 49/2/2 53/2/2 55/2/2
f 54/2/2 50/2/2 56/2/2
f 49/2/2 55/2/2 57/2/2
f 55/2/2 56/2/2 57/2/2
f 56/2/2 50/2/2 58/2/2
f 57/2/2 56/2/2 58/2/2
f 47/3/2 48/3/2 59/3/2
f 59/3/2 48/3/2 60/3/2
f 51/3/2 52/3/2 61/3/2
f 61/3/2 52/3/2 62/3/2
f 60/3/2 61/3/2 63/3/2
f 63/3/2 61/3/2 64/3/2
f 69/3/2 70/3/2 71/3/2
f 71/3/2 70/3/2 72/3/2
f 65/3/2 66/3/2 73/3/2
f 67/3/2 68/3/2 74/3/2
f 65/3/2 73/3/2 75/3/2
f 73/3/2 74/3/2 75/3/2
f 74/3/2 68/3/2 76/3/2
f 75/3/2 74/3/2 76/3/2
f 79/3/3 78/3/3 77/3/3
f 80/3/3 78/3/3 79/3/3
f 82/3/3 78/3/3 80/3/3
f 83/3/3 82/3/3 81/3/3
f 84/3/3 78/3/3 82/3/3
f 84/3/3 82/3/3 83/3/3
f 87/3/3 86/3/3 85/3/3
f 88/3/3 86/3/3 87/3/3
f 91/3/3 89/3/3 88/3/3
f 92/3/3 89/3/3 91/3/3
f 93/3/3 91/3/3 90/3/3
f 94/3/3 91/3/3 93/3/3
f 97/1/3 96/1/3 95/1/3
f 98/1/3 96/1/3 97/1/3
f 101/3/3 100/3/3 99/3/3
f 102/3/3 100/3/3 101/3/3
f 105/3/3 104/3/3 103/3/3
f 106/3/3 104/3/3 105/3/3
f 109/3/3 108/3/3 107/3/3
f 110/3/3 108/3/3 109/3/3
f 113/3/3 112/3/3 111/3/3
f 114/3/3 112/3/3 113/3/3
f 115/3/4 116/3/4 117/3/4
f 117/3/4 116/3/4 118/3/4
f 119/3/4 120/3/4 121/3/4
f 121/3/4 120/3/4 122/3/4
f 123/3/4 124/3/4 125/3/4
f 125/3/4 124/3/4 126/3/4
f 127/3/4 128/3/4 129/3/4
f 129/3/4 128/3/4 130/3/4
f 131/1/4 132/1/4 133/1/4
f 133/1/4 132/1/4 134/1/4
f 135/3/4 136/3/4 137/3/4
f 137/3/4 136/3/4 138/3/4
f 138/3/4 139/3/4 141/3/4
f 141/3/4 139/3/4 142/3/4
f 140/3/4 141/3/4 143/3/4
f 143/3/4 141/3/4 144/3/4
f 145/3/4 146/3/4 147/3/4
f 147/3/4 146/3/4 148/3/4
f 148/3/4 146/3/4 150/3/4
f 149/3/4 150/3/4 151/3/4
f 150/3/4 146/3/4 152/3/4
f 151/3/4 150/3/4 152/3/4
f 158/3/5 154/3/5 153/3/5
f 159/3/5 156/3/5 155/3/5
f 161/3/5 158/3/5 157/3/5
f 162/3/5 154/3/5 158/3/5
f 162/3/5 158/3/5 161/3/5
f 163/3/5 154/3/5 162/3/5
f 164/3/5 160/3/5 159/3/5
f 164/3/5 159/3/5 155/3/5
f 165/3/5 160/3/5 164/3/5
f 166/3/5 160/3/5 165/3/5
f 168/2/5 163/2/5 162/2/5
f 169/1/5 164/1/5 163/1/5
f 169/2/5 163/2/5 168/2/5
f 170/2/5 165/2/5 164/2/5
f 170/1/5 164/1/5 169/1/5
f 171/2/5 165/2/5 170/2/5
f 173/3/5 169/3/5 168/3/5
f 173/3/5 168/3/5 167/3/5
f 174/3/5 169/3/5 173/3/5
f 175/3/5 172/3/5 171/3/5
f 175/3/5 171/3/5 170/3/5
f 176/3/5 172/3/5 175/3/5
f 177/3/5 169/3/5 174/3/5
f 178/3/5 169/3/5 177/3/5
f 179/3/5 175/3/5 170/3/5
f 180/3/5 175/3/5 179/3/5
f 183/3/5 182/3/5 181/3/5
f 184/3/5 182/3/5 183/3/5
f 189/3/5 186/3/5 185/3/5
f 190/3/5 186/3/5 189/3/5
f 193/3/5 188/3/5 187/3/5
f 194/3/5 188/3/5 193/3/5
f 197/3/5 192/3/5 191/3/5
f 198/3/5 192/3/5 197/3/5
f 199/3/5 196/3/5 195/3/5
f 200/3/5 196/3/5 199/3/5
f 201/3/6 202/3/6 203/3/6
f 203/3/6 202/3/6 204/3/6
f 205/3/6 206/3/6 208/3/6
f 208/3/6 206/3/6 209/3/6
f 211/1/6 212/1/6 213/1/6
f 213/1/6 212/1/6 214/1/6
f 207/3/6 208/3/6 215/3/6
f 215/3/6 208/3/6 216/3/6
f 209/3/6 210/3/6 217/3/6
f 217/3/6 210/3/6 218/3/6
f 216/3/6 217/3/6 219/3/6
f 219/3/6 217/3/6 220/3/6
f 221/3/6 222/3/6 223/3/6
f 223/3/6 222/3/6 224/3/6
f 221/3/6 223/3/6 225/3/6
f 224/3/6 222/3/6 226/3/6
f 221/3/6 225/3/6 227/3/6
f 225/3/6 226/3/6 227/3/6
f 226/3/6 222/3/6 228/3/6
f 227/3/6 226/3/6 228/3/6
