# MagicaVoxel @ Ephtracy

# group
o 

# material
mtllib Butaca.mtl
usemtl palette

# normals
vn -1 0 0
vn 1 0 0
vn 0 0 1
vn 0 0 -1
vn 0 -1 0
vn 0 1 0

# texcoords
vt 0.0644531 0.5
vt 0.107422 0.5
vt 0.271484 0.5
vt 0.294922 0.5

# verts
v 0 2.2 -0.2
v 0 2.2 -0.5
v 0 2.3 -0.5
v 0 2.3 -1.7
v 0 2.5 -0.2
v 0 2.5 -1.7
v 0 2.7 -0.2
v 0 2.7 -0.3
v 0 2.7 -1.6
v 0 2.7 -1.7
v 0 3.3 -0.3
v 0 3.3 -1.6
v 0.1 2 -0.2
v 0.1 2 -0.4
v 0.1 2 -1.5
v 0.1 2 -1.7
v 0.1 2.2 -0.2
v 0.1 2.2 -0.4
v 0.1 2.2 -0.5
v 0.1 2.2 -1.5
v 0.1 2.2 -1.7
v 0.1 2.3 -0.5
v 0.1 2.3 -1.7
v 1.1 2 -0.2
v 1.1 2 -0.4
v 1.1 2 -1.5
v 1.1 2 -1.7
v 1.1 2.2 -0.2
v 1.1 2.2 -0.4
v 1.1 2.2 -1.5
v 1.1 2.2 -1.7
v 0.2 2.7 -0.3
v 0.2 2.7 -0.5
v 0.2 2.7 -1.4
v 0.2 2.7 -1.6
v 0.2 3.2 -0.5
v 0.2 3.2 -1.4
v 0.2 3.3 -0.3
v 0.2 3.3 -1.6
v 0.3 2 -0.2
v 0.3 2 -0.4
v 0.3 2 -1.5
v 0.3 2 -1.7
v 0.3 2.2 -0.2
v 0.3 2.2 -0.4
v 0.3 2.2 -1.5
v 0.3 2.2 -1.7
v 0.3 2.4 -0.5
v 0.3 2.4 -1.4
v 0.3 2.7 -0.5
v 0.3 2.7 -1.4
v 0.3 3.2 -0.5
v 0.3 3.2 -1.4
v 0.4 2.6 -1.4
v 0.4 2.6 -1.7
v 0.4 2.7 -1.4
v 0.4 2.7 -1.7
v 0.5 2.6 -0.2
v 0.5 2.6 -0.5
v 0.5 2.7 -0.2
v 0.5 2.7 -0.5
v 1.3 2 -0.2
v 1.3 2 -0.4
v 1.3 2 -1.5
v 1.3 2 -1.7
v 1.3 2.2 -0.2
v 1.3 2.2 -0.4
v 1.3 2.2 -1.5
v 1.3 2.2 -1.7
v 1.3 2.4 -0.2
v 1.3 2.4 -0.5
v 1.3 2.4 -1.4
v 1.3 2.4 -1.7
v 1.3 2.6 -0.2
v 1.3 2.6 -0.5
v 1.3 2.6 -1.4
v 1.3 2.6 -1.7
v 0 2.2 -0.2
v 0 2.5 -0.2
v 0 2.7 -0.2
v 0.1 2 -0.2
v 0.1 2.2 -0.2
v 0.3 2 -0.2
v 0.3 2.2 -0.2
v 0.4 2.4 -0.2
v 0.4 2.5 -0.2
v 0.5 2.6 -0.2
v 0.5 2.7 -0.2
v 1.1 2 -0.2
v 1.1 2.2 -0.2
v 1.3 2 -0.2
v 1.3 2.2 -0.2
v 1.3 2.4 -0.2
v 1.3 2.6 -0.2
v 0 2.7 -0.3
v 0 3.3 -0.3
v 0.2 2.7 -0.3
v 0.2 3.3 -0.3
v 0.2 2.7 -0.5
v 0.2 3.2 -0.5
v 0.3 2.7 -0.5
v 0.3 3.2 -0.5
v 0.3 2.4 -1.4
v 0.3 2.7 -1.4
v 0.4 2.6 -1.4
v 0.4 2.7 -1.4
v 1.2 2.4 -1.4
v 1.3 2.4 -1.4
v 1.3 2.6 -1.4
v 0.1 2 -1.5
v 0.1 2.2 -1.5
v 0.3 2 -1.5
v 0.3 2.2 -1.5
v 1.1 2 -1.5
v 1.1 2.2 -1.5
v 1.3 2 -1.5
v 1.3 2.2 -1.5
v 0.1 2 -0.4
v 0.1 2.2 -0.4
v 0.3 2 -0.4
v 0.3 2.2 -0.4
v 1.1 2 -0.4
v 1.1 2.2 -0.4
v 1.3 2 -0.4
v 1.3 2.2 -0.4
v 0 2.2 -0.5
v 0 2.3 -0.5
v 0.1 2.2 -0.5
v 0.1 2.3 -0.5
v 0.3 2.4 -0.5
v 0.3 2.7 -0.5
v 0.5 2.6 -0.5
v 0.5 2.7 -0.5
v 1.2 2.4 -0.5
v 1.3 2.4 -0.5
v 1.3 2.6 -0.5
v 0.2 2.7 -1.4
v 0.2 3.2 -1.4
v 0.3 2.7 -1.4
v 0.3 3.2 -1.4
v 0 2.7 -1.6
v 0 3.3 -1.6
v 0.2 2.7 -1.6
v 0.2 3.3 -1.6
v 0 2.3 -1.7
v 0 2.5 -1.7
v 0 2.7 -1.7
v 0.1 2 -1.7
v 0.1 2.2 -1.7
v 0.1 2.3 -1.7
v 0.3 2 -1.7
v 0.3 2.2 -1.7
v 0.4 2.4 -1.7
v 0.4 2.5 -1.7
v 0.4 2.6 -1.7
v 0.4 2.7 -1.7
v 1.1 2 -1.7
v 1.1 2.2 -1.7
v 1.3 2 -1.7
v 1.3 2.2 -1.7
v 1.3 2.4 -1.7
v 1.3 2.6 -1.7
v 0.1 2 -0.2
v 0.3 2 -0.2
v 1.1 2 -0.2
v 1.3 2 -0.2
v 0.1 2 -0.4
v 0.3 2 -0.4
v 1.1 2 -0.4
v 1.3 2 -0.4
v 0.1 2 -1.5
v 0.3 2 -1.5
v 1.1 2 -1.5
v 1.3 2 -1.5
v 0.1 2 -1.7
v 0.3 2 -1.7
v 1.1 2 -1.7
v 1.3 2 -1.7
v 0 2.2 -0.2
v 0.1 2.2 -0.2
v 0.3 2.2 -0.2
v 1.1 2.2 -0.2
v 0.1 2.2 -0.4
v 0.3 2.2 -0.4
v 1.1 2.2 -0.4
v 1.3 2.2 -0.4
v 0 2.2 -0.5
v 0.1 2.2 -0.5
v 0.1 2.2 -1.5
v 0.3 2.2 -1.5
v 1.1 2.2 -1.5
v 1.3 2.2 -1.5
v 0.3 2.2 -1.7
v 1.1 2.2 -1.7
v 0 2.3 -0.5
v 0.1 2.3 -0.5
v 0 2.3 -1.7
v 0.1 2.3 -1.7
v 0.3 2.4 -0.5
v 1.2 2.4 -0.5
v 1.3 2.4 -0.5
v 0.3 2.4 -1.4
v 1.2 2.4 -1.4
v 1.3 2.4 -1.4
v 0.5 2.6 -0.2
v 1.3 2.6 -0.2
v 0.5 2.6 -0.5
v 1.3 2.6 -0.5
v 0.4 2.6 -1.4
v 1.3 2.6 -1.4
v 0.4 2.6 -1.7
v 1.3 2.6 -1.7
v 0 2.7 -0.2
v 0.5 2.7 -0.2
v 0 2.7 -0.3
v 0.2 2.7 -0.3
v 0.2 2.7 -0.5
v 0.3 2.7 -0.5
v 0.5 2.7 -0.5
v 0.2 2.7 -1.4
v 0.3 2.7 -1.4
v 0.4 2.7 -1.4
v 0 2.7 -1.6
v 0.2 2.7 -1.6
v 0 2.7 -1.7
v 0.4 2.7 -1.7
v 0.2 3.2 -0.5
v 0.3 3.2 -0.5
v 0.2 3.2 -1.4
v 0.3 3.2 -1.4
v 0 3.3 -0.3
v 0.2 3.3 -0.3
v 0 3.3 -1.6
v 0.2 3.3 -1.6

# faces
f 3/2/1 2/2/1 1/2/1
f 5/2/1 3/2/1 1/2/1
f 5/2/1 4/2/1 3/2/1
f 6/2/1 4/2/1 5/2/1
f 7/1/1 6/1/1 5/1/1
f 8/1/1 6/1/1 7/1/1
f 9/1/1 6/1/1 8/1/1
f 10/1/1 6/1/1 9/1/1
f 11/1/1 9/1/1 8/1/1
f 12/1/1 9/1/1 11/1/1
f 17/3/1 14/3/1 13/3/1
f 18/3/1 14/3/1 17/3/1
f 20/3/1 16/3/1 15/3/1
f 21/3/1 16/3/1 20/3/1
f 22/2/1 20/2/1 19/2/1
f 22/2/1 21/2/1 20/2/1
f 23/2/1 21/2/1 22/2/1
f 28/3/1 25/3/1 24/3/1
f 29/3/1 25/3/1 28/3/1
f 30/3/1 27/3/1 26/3/1
f 31/3/1 27/3/1 30/3/1
f 32/1/2 33/1/2 36/1/2
f 34/1/2 35/1/2 37/1/2
f 32/1/2 36/1/2 38/1/2
f 36/1/2 37/1/2 38/1/2
f 37/1/2 35/1/2 39/1/2
f 38/1/2 37/1/2 39/1/2
f 40/3/2 41/3/2 44/3/2
f 44/3/2 41/3/2 45/3/2
f 42/3/2 43/3/2 46/3/2
f 46/3/2 43/3/2 47/3/2
f 48/1/2 49/1/2 50/1/2
f 50/1/2 49/1/2 51/1/2
f 50/1/2 51/1/2 52/1/2
f 52/1/2 51/1/2 53/1/2
f 54/1/2 55/1/2 56/1/2
f 56/1/2 55/1/2 57/1/2
f 58/1/2 59/1/2 60/1/2
f 60/1/2 59/1/2 61/1/2
f 62/3/2 63/3/2 66/3/2
f 66/3/2 63/3/2 67/3/2
f 64/3/2 65/3/2 68/3/2
f 68/3/2 65/3/2 69/3/2
f 66/2/2 67/2/2 70/2/2
f 67/2/2 68/2/2 70/2/2
f 68/2/2 69/2/2 70/2/2
f 70/2/2 69/2/2 71/2/2
f 71/2/2 69/2/2 72/2/2
f 72/2/2 69/2/2 73/2/2
f 70/1/2 71/1/2 74/1/2
f 74/1/2 71/1/2 75/1/2
f 72/1/2 73/1/2 76/1/2
f 76/1/2 73/1/2 77/1/2
f 82/2/3 79/2/3 78/2/3
f 83/3/3 82/3/3 81/3/3
f 84/2/3 79/2/3 82/2/3
f 84/3/3 82/3/3 83/3/3
f 85/2/3 79/2/3 84/2/3
f 86/1/3 80/1/3 79/1/3
f 86/2/3 79/2/3 85/2/3
f 87/1/3 86/1/3 85/1/3
f 87/1/3 80/1/3 86/1/3
f 88/1/3 80/1/3 87/1/3
f 90/2/3 85/2/3 84/2/3
f 91/3/3 90/3/3 89/3/3
f 92/2/3 85/2/3 90/2/3
f 92/3/3 90/3/3 91/3/3
f 93/1/3 87/1/3 85/1/3
f 93/2/3 85/2/3 92/2/3
f 94/1/3 87/1/3 93/1/3
f 97/1/3 96/1/3 95/1/3
f 98/1/3 96/1/3 97/1/3
f 101/1/3 100/1/3 99/1/3
f 102/1/3 100/1/3 101/1/3
f 105/1/3 104/1/3 103/1/3
f 106/1/3 104/1/3 105/1/3
f 107/1/3 105/1/3 103/1/3
f 108/1/3 105/1/3 107/1/3
f 109/1/3 105/1/3 108/1/3
f 112/3/3 111/3/3 110/3/3
f 113/3/3 111/3/3 112/3/3
f 116/3/3 115/3/3 114/3/3
f 117/3/3 115/3/3 116/3/3
f 118/3/4 119/3/4 120/3/4
f 120/3/4 119/3/4 121/3/4
f 122/3/4 123/3/4 124/3/4
f 124/3/4 123/3/4 125/3/4
f 126/2/4 127/2/4 128/2/4
f 128/2/4 127/2/4 129/2/4
f 130/1/4 131/1/4 132/1/4
f 132/1/4 131/1/4 133/1/4
f 130/1/4 132/1/4 134/1/4
f 134/1/4 132/1/4 135/1/4
f 135/1/4 132/1/4 136/1/4
f 137/1/4 138/1/4 139/1/4
f 139/1/4 138/1/4 140/1/4
f 141/1/4 142/1/4 143/1/4
f 143/1/4 142/1/4 144/1/4
f 145/2/4 146/2/4 150/2/4
f 148/3/4 149/3/4 151/3/4
f 149/2/4 150/2/4 152/2/4
f 151/3/4 149/3/4 152/3/4
f 150/2/4 146/2/4 153/2/4
f 152/2/4 150/2/4 153/2/4
f 146/1/4 147/1/4 154/1/4
f 153/2/4 146/2/4 154/2/4
f 154/1/4 147/1/4 155/1/4
f 155/1/4 147/1/4 156/1/4
f 152/2/4 153/2/4 158/2/4
f 157/3/4 158/3/4 159/3/4
f 158/2/4 153/2/4 160/2/4
f 159/3/4 158/3/4 160/3/4
f 153/1/4 154/1/4 161/1/4
f 160/2/4 153/2/4 161/2/4
f 154/1/4 155/1/4 161/1/4
f 161/1/4 155/1/4 162/1/4
f 167/3/5 164/3/5 163/3/5
f 168/3/5 164/3/5 167/3/5
f 169/3/5 166/3/5 165/3/5
f 170/3/5 166/3/5 169/3/5
f 175/3/5 172/3/5 171/3/5
f 176/3/5 172/3/5 175/3/5
f 177/3/5 174/3/5 173/3/5
f 178/3/5 174/3/5 177/3/5
f 183/2/5 180/2/5 179/2/5
f 184/2/5 182/2/5 181/2/5
f 185/2/5 182/2/5 184/2/5
f 187/2/5 183/2/5 179/2/5
f 187/2/5 186/2/5 185/2/5
f 187/2/5 185/2/5 184/2/5
f 187/2/5 184/2/5 183/2/5
f 188/2/5 186/2/5 187/2/5
f 189/2/5 186/2/5 188/2/5
f 190/2/5 186/2/5 189/2/5
f 191/2/5 186/2/5 190/2/5
f 192/2/5 186/2/5 191/2/5
f 193/2/5 191/2/5 190/2/5
f 194/2/5 191/2/5 193/2/5
f 197/2/5 196/2/5 195/2/5
f 198/2/5 196/2/5 197/2/5
f 199/4/6 200/4/6 202/4/6
f 200/2/6 201/2/6 203/2/6
f 202/4/6 200/4/6 203/4/6
f 203/2/6 201/2/6 204/2/6
f 205/1/6 206/1/6 207/1/6
f 207/1/6 206/1/6 208/1/6
f 209/1/6 210/1/6 211/1/6
f 211/1/6 210/1/6 212/1/6
f 213/1/6 214/1/6 215/1/6
f 215/1/6 214/1/6 216/1/6
f 216/1/6 214/1/6 217/1/6
f 217/1/6 214/1/6 218/1/6
f 218/1/6 214/1/6 219/1/6
f 220/1/6 221/1/6 224/1/6
f 221/1/6 222/1/6 224/1/6
f 223/1/6 224/1/6 225/1/6
f 224/1/6 222/1/6 226/1/6
f 225/1/6 224/1/6 226/1/6
f 227/1/6 228/1/6 229/1/6
f 229/1/6 228/1/6 230/1/6
f 231/1/6 232/1/6 233/1/6
f 233/1/6 232/1/6 234/1/6
