# MagicaVoxel @ Ephtracy

# group
o 

# material
mtllib FuenteGrande.mtl
usemtl palette

# normals
vn -1 0 0
vn 1 0 0
vn 0 0 1
vn 0 0 -1
vn 0 -1 0
vn 0 1 0

# texcoords
vt 0.927734 0.5
vt 0.966797 0.5

# verts
v 0 2 0
v 0 2 -0.6
v 0 2.1 -0.1
v 0 2.1 -0.5
v 0 2.6 -0.1
v 0 2.6 -0.5
v 0 2.7 0
v 0 2.7 -0.6
v 0.1 2.1 -0.1
v 0.1 2.1 -0.5
v 0.1 2.3 -0.1
v 0.1 2.3 -0.2
v 0.1 2.3 -0.4
v 0.1 2.3 -0.5
v 0.1 2.4 -0.1
v 0.1 2.4 -0.2
v 0.1 2.4 -0.4
v 0.1 2.4 -0.5
v 0.1 2.6 -0.1
v 0.1 2.6 -0.5
v 0.1 2.7 -0.1
v 0.1 2.7 -0.5
v 0.1 2.8 -0.1
v 0.1 2.8 -0.5
v 0.2 2.9 -0.2
v 0.2 2.9 -0.4
v 0.2 3 -0.2
v 0.2 3 -0.4
v 0.5 2.7 -0.2
v 0.5 2.7 -0.4
v 0.5 2.8 -0.2
v 0.5 2.8 -0.4
v 0.5 2.9 -0.2
v 0.5 2.9 -0.4
v 0.2 2.7 -0.2
v 0.2 2.7 -0.4
v 0.2 2.8 -0.2
v 0.2 2.8 -0.4
v 0.6 2 0
v 0.6 2 -0.6
v 0.6 2.7 0
v 0.6 2.7 -0.1
v 0.6 2.7 -0.5
v 0.6 2.7 -0.6
v 0.6 2.8 -0.1
v 0.6 2.8 -0.2
v 0.6 2.8 -0.4
v 0.6 2.8 -0.5
v 0.6 3 -0.2
v 0.6 3 -0.4
v 0 2 0
v 0 2.7 0
v 0.6 2 0
v 0.6 2.7 0
v 0.1 2.7 -0.1
v 0.1 2.8 -0.1
v 0.6 2.7 -0.1
v 0.6 2.8 -0.1
v 0.2 2.9 -0.2
v 0.2 3 -0.2
v 0.5 2.8 -0.2
v 0.5 2.9 -0.2
v 0.6 2.8 -0.2
v 0.6 3 -0.2
v 0.2 2.7 -0.4
v 0.2 2.8 -0.4
v 0.3 2.7 -0.4
v 0.5 2.7 -0.4
v 0.5 2.8 -0.4
v 0 2.1 -0.5
v 0 2.6 -0.5
v 0.1 2.1 -0.5
v 0.1 2.3 -0.5
v 0.1 2.4 -0.5
v 0.1 2.6 -0.5
v 0 2.1 -0.1
v 0 2.6 -0.1
v 0.1 2.1 -0.1
v 0.1 2.3 -0.1
v 0.1 2.4 -0.1
v 0.1 2.6 -0.1
v 0.2 2.7 -0.2
v 0.2 2.8 -0.2
v 0.3 2.7 -0.2
v 0.5 2.7 -0.2
v 0.5 2.8 -0.2
v 0.2 2.9 -0.4
v 0.2 3 -0.4
v 0.5 2.8 -0.4
v 0.5 2.9 -0.4
v 0.6 2.8 -0.4
v 0.6 3 -0.4
v 0.1 2.7 -0.5
v 0.1 2.8 -0.5
v 0.6 2.7 -0.5
v 0.6 2.8 -0.5
v 0 2 -0.6
v 0 2.7 -0.6
v 0.6 2 -0.6
v 0.6 2.7 -0.6
v 0 2 0
v 0.6 2 0
v 0 2 -0.6
v 0.6 2 -0.6
v 0 2.6 -0.1
v 0.1 2.6 -0.1
v 0 2.6 -0.5
v 0.1 2.6 -0.5
v 0.2 2.9 -0.2
v 0.5 2.9 -0.2
v 0.2 2.9 -0.4
v 0.5 2.9 -0.4
v 0 2.1 -0.1
v 0.1 2.1 -0.1
v 0 2.1 -0.5
v 0.1 2.1 -0.5
v 0 2.7 0
v 0.6 2.7 0
v 0.1 2.7 -0.1
v 0.6 2.7 -0.1
v 0.2 2.7 -0.2
v 0.3 2.7 -0.2
v 0.5 2.7 -0.2
v 0.2 2.7 -0.4
v 0.3 2.7 -0.4
v 0.5 2.7 -0.4
v 0.1 2.7 -0.5
v 0.6 2.7 -0.5
v 0 2.7 -0.6
v 0.6 2.7 -0.6
v 0.1 2.8 -0.1
v 0.6 2.8 -0.1
v 0.2 2.8 -0.2
v 0.5 2.8 -0.2
v 0.6 2.8 -0.2
v 0.2 2.8 -0.4
v 0.5 2.8 -0.4
v 0.6 2.8 -0.4
v 0.1 2.8 -0.5
v 0.6 2.8 -0.5
v 0.2 3 -0.2
v 0.6 3 -0.2
v 0.2 3 -0.4
v 0.6 3 -0.4

# faces
f 3/1/1 2/1/1 1/1/1
f 4/1/1 2/1/1 3/1/1
f 5/1/1 3/1/1 1/1/1
f 6/1/1 2/1/1 4/1/1
f 7/1/1 5/1/1 1/1/1
f 7/1/1 6/1/1 5/1/1
f 8/1/1 2/1/1 6/1/1
f 8/1/1 6/1/1 7/1/1
f 11/1/1 10/1/1 9/1/1
f 12/1/1 10/1/1 11/1/1
f 13/1/1 10/1/1 12/1/1
f 14/1/1 10/1/1 13/1/1
f 15/2/1 12/2/1 11/2/1
f 16/1/1 13/1/1 12/1/1
f 16/2/1 12/2/1 15/2/1
f 17/2/1 14/2/1 13/2/1
f 17/1/1 13/1/1 16/1/1
f 18/2/1 14/2/1 17/2/1
f 19/1/1 16/1/1 15/1/1
f 19/1/1 17/1/1 16/1/1
f 19/1/1 18/1/1 17/1/1
f 20/1/1 18/1/1 19/1/1
f 23/2/1 22/2/1 21/2/1
f 24/2/1 22/2/1 23/2/1
f 27/2/1 26/2/1 25/2/1
f 28/2/1 26/2/1 27/2/1
f 31/2/1 30/2/1 29/2/1
f 32/2/1 30/2/1 31/2/1
f 33/2/1 32/2/1 31/2/1
f 34/2/1 32/2/1 33/2/1
f 35/2/2 36/2/2 37/2/2
f 37/2/2 36/2/2 38/2/2
f 39/1/2 40/1/2 41/1/2
f 41/1/2 40/1/2 42/1/2
f 42/1/2 40/1/2 43/1/2
f 43/1/2 40/1/2 44/1/2
f 42/2/2 43/2/2 45/2/2
f 45/2/2 43/2/2 46/2/2
f 46/2/2 43/2/2 47/2/2
f 47/2/2 43/2/2 48/2/2
f 46/2/2 47/2/2 49/2/2
f 49/2/2 47/2/2 50/2/2
f 53/1/3 52/1/3 51/1/3
f 54/1/3 52/1/3 53/1/3
f 57/2/3 56/2/3 55/2/3
f 58/2/3 56/2/3 57/2/3
f 62/2/3 60/2/3 59/2/3
f 63/2/3 62/2/3 61/2/3
f 64/2/3 60/2/3 62/2/3
f 64/2/3 62/2/3 63/2/3
f 67/2/3 66/2/3 65/2/3
f 68/2/3 66/2/3 67/2/3
f 69/2/3 66/2/3 68/2/3
f 72/1/3 71/1/3 70/1/3
f 73/1/3 71/1/3 72/1/3
f 74/1/3 71/1/3 73/1/3
f 75/1/3 71/1/3 74/1/3
f 76/1/4 77/1/4 78/1/4
f 78/1/4 77/1/4 79/1/4
f 79/1/4 77/1/4 80/1/4
f 80/1/4 77/1/4 81/1/4
f 82/2/4 83/2/4 84/2/4
f 84/2/4 83/2/4 85/2/4
f 85/2/4 83/2/4 86/2/4
f 87/2/4 88/2/4 90/2/4
f 89/2/4 90/2/4 91/2/4
f 90/2/4 88/2/4 92/2/4
f 91/2/4 90/2/4 92/2/4
f 93/2/4 94/2/4 95/2/4
f 95/2/4 94/2/4 96/2/4
f 97/1/4 98/1/4 99/1/4
f 99/1/4 98/1/4 100/1/4
f 103/1/5 102/1/5 101/1/5
f 104/1/5 102/1/5 103/1/5
f 107/1/5 106/1/5 105/1/5
f 108/1/5 106/1/5 107/1/5
f 111/2/5 110/2/5 109/2/5
f 112/2/5 110/2/5 111/2/5
f 113/1/6 114/1/6 115/1/6
f 115/1/6 114/1/6 116/1/6
f 117/1/6 118/1/6 119/1/6
f 119/1/6 118/1/6 120/1/6
f 121/1/6 122/1/6 124/1/6
f 122/2/6 123/2/6 125/2/6
f 124/1/6 122/1/6 125/1/6
f 125/2/6 123/2/6 126/2/6
f 117/1/6 119/1/6 127/1/6
f 117/1/6 127/1/6 129/1/6
f 127/1/6 128/1/6 129/1/6
f 129/1/6 128/1/6 130/1/6
f 131/2/6 132/2/6 133/2/6
f 133/2/6 132/2/6 134/2/6
f 134/2/6 132/2/6 135/2/6
f 131/2/6 133/2/6 136/2/6
f 131/2/6 136/2/6 139/2/6
f 137/2/6 138/2/6 139/2/6
f 136/2/6 137/2/6 139/2/6
f 139/2/6 138/2/6 140/2/6
f 141/2/6 142/2/6 143/2/6
f 143/2/6 142/2/6 144/2/6
