# MagicaVoxel @ Ephtracy

# group
o 

# material
mtllib MaquinaExpendedoraRoja.mtl
usemtl palette

# normals
vn -1 0 0
vn 1 0 0
vn 0 0 1
vn 0 0 -1
vn 0 -1 0
vn 0 1 0

# texcoords
vt 0.736328 0.5
vt 0.740234 0.5
vt 0.748047 0.5
vt 0.810547 0.5
vt 0.826172 0.5
vt 0.833984 0.5
vt 0.923828 0.5
vt 0.939453 0.5

# verts
v 0 2 -0.1
v 0 2 -0.7
v 0 3.9 -0.1
v 0 3.9 -0.7
v 0.1 3.9 -0.2
v 0.1 3.9 -0.6
v 0.1 4 -0.2
v 0.1 4 -0.6
v 0.8 2.6 -0.1
v 0.8 2.6 -0.2
v 0.8 2.6 -0.4
v 0.8 2.6 -0.5
v 0.8 2.7 -0.1
v 0.8 2.7 -0.2
v 0.8 2.8 -0.1
v 0.8 2.8 -0.2
v 0.8 2.9 -0.1
v 0.8 2.9 -0.2
v 0.8 2.9 -0.4
v 0.8 2.9 -0.5
v 0.8 3 -0.1
v 0.8 3 -0.2
v 0.8 3 -0.4
v 0.8 3 -0.5
v 0.8 3.1 -0.1
v 0.8 3.1 -0.2
v 0.8 3.1 -0.4
v 0.8 3.1 -0.5
v 0.9 2.1 -0.1
v 0.9 2.1 -0.2
v 0.9 2.1 -0.4
v 0.9 2.1 -0.6
v 0.9 2.3 -0.2
v 0.9 2.5 -0.2
v 0.9 2.5 -0.4
v 0.9 2.5 -0.6
v 0.9 2.6 -0.1
v 0.9 2.6 -0.2
v 0.9 2.6 -0.5
v 0.9 2.6 -0.6
v 0.9 2.9 -0.5
v 0.9 2.9 -0.6
v 0.9 3 -0.5
v 0.9 3 -0.6
v 0.9 3.1 -0.1
v 0.9 3.1 -0.2
v 0.9 3.1 -0.4
v 0.9 3.1 -0.5
v 0.9 3.3 -0.2
v 0.9 3.3 -0.4
v 0.9 3.3 -0.6
v 0.9 3.4 -0.2
v 0.9 3.4 -0.4
v 0.9 3.4 -0.6
v 0.9 3.8 -0.1
v 0.9 3.8 -0.2
v 0.9 3.8 -0.4
v 0.9 3.8 -0.6
v 0.1 2.1 -0.1
v 0.1 2.1 -0.2
v 0.1 2.1 -0.4
v 0.1 2.1 -0.6
v 0.1 2.3 -0.2
v 0.1 2.5 -0.2
v 0.1 2.5 -0.4
v 0.1 2.5 -0.6
v 0.1 2.6 -0.2
v 0.1 2.6 -0.4
v 0.1 2.6 -0.6
v 0.1 2.8 -0.2
v 0.1 2.9 -0.2
v 0.1 2.9 -0.4
v 0.1 2.9 -0.6
v 0.1 3 -0.2
v 0.1 3 -0.4
v 0.1 3 -0.6
v 0.1 3.3 -0.2
v 0.1 3.3 -0.4
v 0.1 3.3 -0.6
v 0.1 3.4 -0.2
v 0.1 3.4 -0.4
v 0.1 3.4 -0.6
v 0.1 3.6 -0.2
v 0.1 3.8 -0.1
v 0.1 3.8 -0.2
v 0.1 3.8 -0.4
v 0.1 3.8 -0.6
v 0.9 3.9 -0.2
v 0.9 3.9 -0.6
v 0.9 4 -0.2
v 0.9 4 -0.6
v 1 2 -0.1
v 1 2 -0.7
v 1 2.6 -0.1
v 1 2.6 -0.2
v 1 3.1 -0.1
v 1 3.1 -0.2
v 1 3.9 -0.1
v 1 3.9 -0.7
v 0 2 -0.1
v 0 3.9 -0.1
v 0.1 2.1 -0.1
v 0.1 3.8 -0.1
v 0.8 2.6 -0.1
v 0.8 2.7 -0.1
v 0.8 2.8 -0.1
v 0.8 2.9 -0.1
v 0.8 3 -0.1
v 0.8 3.1 -0.1
v 0.9 2.1 -0.1
v 0.9 2.6 -0.1
v 0.9 2.7 -0.1
v 0.9 2.8 -0.1
v 0.9 2.9 -0.1
v 0.9 3 -0.1
v 0.9 3.1 -0.1
v 0.9 3.8 -0.1
v 1 2 -0.1
v 1 2.6 -0.1
v 1 3.1 -0.1
v 1 3.9 -0.1
v 0.1 2.1 -0.2
v 0.1 2.3 -0.2
v 0.1 2.5 -0.2
v 0.1 2.6 -0.2
v 0.1 2.8 -0.2
v 0.1 2.9 -0.2
v 0.1 3 -0.2
v 0.1 3.3 -0.2
v 0.1 3.4 -0.2
v 0.1 3.6 -0.2
v 0.1 3.8 -0.2
v 0.1 3.9 -0.2
v 0.1 4 -0.2
v 0.2 2.1 -0.2
v 0.2 2.3 -0.2
v 0.2 2.6 -0.2
v 0.2 2.8 -0.2
v 0.2 3 -0.2
v 0.2 3.2 -0.2
v 0.3 2.1 -0.2
v 0.3 2.3 -0.2
v 0.3 3.4 -0.2
v 0.3 3.6 -0.2
v 0.4 2.6 -0.2
v 0.4 2.8 -0.2
v 0.4 3 -0.2
v 0.4 3.2 -0.2
v 0.4 3.4 -0.2
v 0.4 3.6 -0.2
v 0.4 3.7 -0.2
v 0.5 2.1 -0.2
v 0.5 2.3 -0.2
v 0.5 2.6 -0.2
v 0.5 2.8 -0.2
v 0.5 3 -0.2
v 0.5 3.2 -0.2
v 0.5 3.4 -0.2
v 0.5 3.6 -0.2
v 0.5 3.7 -0.2
v 0.6 2.1 -0.2
v 0.6 2.3 -0.2
v 0.6 2.6 -0.2
v 0.6 2.8 -0.2
v 0.6 3.4 -0.2
v 0.6 3.6 -0.2
v 0.7 2.6 -0.2
v 0.7 2.8 -0.2
v 0.7 3 -0.2
v 0.7 3.2 -0.2
v 0.8 2.1 -0.2
v 0.8 2.3 -0.2
v 0.8 2.6 -0.2
v 0.8 2.7 -0.2
v 0.8 2.8 -0.2
v 0.8 2.9 -0.2
v 0.8 3 -0.2
v 0.8 3.1 -0.2
v 0.8 3.4 -0.2
v 0.8 3.6 -0.2
v 0.9 2.1 -0.2
v 0.9 2.3 -0.2
v 0.9 2.5 -0.2
v 0.9 2.6 -0.2
v 0.9 3.1 -0.2
v 0.9 3.3 -0.2
v 0.9 3.4 -0.2
v 0.9 3.8 -0.2
v 0.9 3.9 -0.2
v 0.9 4 -0.2
v 0.1 2.1 -0.6
v 0.1 2.5 -0.6
v 0.1 2.6 -0.6
v 0.1 2.9 -0.6
v 0.1 3 -0.6
v 0.1 3.3 -0.6
v 0.1 3.4 -0.6
v 0.1 3.8 -0.6
v 0.9 2.1 -0.6
v 0.9 2.5 -0.6
v 0.9 2.6 -0.6
v 0.9 2.9 -0.6
v 0.9 3 -0.6
v 0.9 3.3 -0.6
v 0.9 3.4 -0.6
v 0.9 3.8 -0.6
v 0.1 2.1 -0.4
v 0.1 2.5 -0.4
v 0.1 2.6 -0.4
v 0.1 2.9 -0.4
v 0.1 3 -0.4
v 0.1 3.3 -0.4
v 0.1 3.4 -0.4
v 0.1 3.8 -0.4
v 0.8 2.6 -0.4
v 0.8 2.9 -0.4
v 0.8 3 -0.4
v 0.8 3.1 -0.4
v 0.9 2.1 -0.4
v 0.9 2.5 -0.4
v 0.9 3.1 -0.4
v 0.9 3.3 -0.4
v 0.9 3.4 -0.4
v 0.9 3.8 -0.4
v 0.8 2.6 -0.5
v 0.8 2.9 -0.5
v 0.8 3 -0.5
v 0.8 3.1 -0.5
v 0.9 2.6 -0.5
v 0.9 2.9 -0.5
v 0.9 3 -0.5
v 0.9 3.1 -0.5
v 0.1 3.9 -0.6
v 0.1 4 -0.6
v 0.9 3.9 -0.6
v 0.9 4 -0.6
v 0 2 -0.7
v 0 3.9 -0.7
v 1 2 -0.7
v 1 3.9 -0.7
v 0 2 -0.1
v 1 2 -0.1
v 0 2 -0.7
v 1 2 -0.7
v 0.1 2.5 -0.4
v 0.9 2.5 -0.4
v 0.1 2.5 -0.6
v 0.9 2.5 -0.6
v 0.8 2.6 -0.1
v 0.9 2.6 -0.1
v 0.8 2.6 -0.2
v 0.9 2.6 -0.2
v 0.1 2.9 -0.4
v 0.8 2.9 -0.4
v 0.8 2.9 -0.5
v 0.9 2.9 -0.5
v 0.1 2.9 -0.6
v 0.9 2.9 -0.6
v 0.1 3.3 -0.4
v 0.9 3.3 -0.4
v 0.1 3.3 -0.6
v 0.9 3.3 -0.6
v 0.1 3.8 -0.1
v 0.9 3.8 -0.1
v 0.1 3.8 -0.2
v 0.9 3.8 -0.2
v 0.1 3.8 -0.4
v 0.9 3.8 -0.4
v 0.1 3.8 -0.6
v 0.9 3.8 -0.6
v 0.1 2.1 -0.1
v 0.9 2.1 -0.1
v 0.1 2.1 -0.2
v 0.2 2.1 -0.2
v 0.3 2.1 -0.2
v 0.5 2.1 -0.2
v 0.6 2.1 -0.2
v 0.8 2.1 -0.2
v 0.9 2.1 -0.2
v 0.1 2.1 -0.4
v 0.9 2.1 -0.4
v 0.1 2.1 -0.6
v 0.9 2.1 -0.6
v 0.1 2.6 -0.4
v 0.8 2.6 -0.4
v 0.8 2.6 -0.5
v 0.9 2.6 -0.5
v 0.1 2.6 -0.6
v 0.9 2.6 -0.6
v 0.1 3 -0.4
v 0.8 3 -0.4
v 0.8 3 -0.5
v 0.9 3 -0.5
v 0.1 3 -0.6
v 0.9 3 -0.6
v 0.8 3.1 -0.1
v 0.9 3.1 -0.1
v 0.8 3.1 -0.2
v 0.9 3.1 -0.2
v 0.8 3.1 -0.4
v 0.9 3.1 -0.4
v 0.8 3.1 -0.5
v 0.9 3.1 -0.5
v 0.1 3.4 -0.4
v 0.9 3.4 -0.4
v 0.1 3.4 -0.6
v 0.9 3.4 -0.6
v 0 3.9 -0.1
v 1 3.9 -0.1
v 0.1 3.9 -0.2
v 0.9 3.9 -0.2
v 0.1 3.9 -0.6
v 0.9 3.9 -0.6
v 0 3.9 -0.7
v 1 3.9 -0.7
v 0.1 4 -0.2
v 0.9 4 -0.2
v 0.1 4 -0.6
v 0.9 4 -0.6

# faces
f 3/4/1 2/4/1 1/4/1
f 4/4/1 2/4/1 3/4/1
f 7/3/1 6/3/1 5/3/1
f 8/3/1 6/3/1 7/3/1
f 13/3/1 10/3/1 9/3/1
f 14/3/1 10/3/1 13/3/1
f 15/7/1 14/7/1 13/7/1
f 16/7/1 14/7/1 15/7/1
f 17/3/1 16/3/1 15/3/1
f 18/3/1 16/3/1 17/3/1
f 19/3/1 12/3/1 11/3/1
f 20/3/1 12/3/1 19/3/1
f 21/7/1 18/7/1 17/7/1
f 22/7/1 18/7/1 21/7/1
f 25/3/1 22/3/1 21/3/1
f 26/3/1 22/3/1 25/3/1
f 27/3/1 24/3/1 23/3/1
f 28/3/1 24/3/1 27/3/1
f 33/4/1 30/4/1 29/4/1
f 34/4/1 33/4/1 29/4/1
f 35/4/1 32/4/1 31/4/1
f 36/4/1 32/4/1 35/4/1
f 37/4/1 34/4/1 29/4/1
f 38/4/1 34/4/1 37/4/1
f 41/4/1 40/4/1 39/4/1
f 42/4/1 40/4/1 41/4/1
f 48/4/1 44/4/1 43/4/1
f 49/4/1 46/4/1 45/4/1
f 50/4/1 48/4/1 47/4/1
f 51/4/1 44/4/1 48/4/1
f 51/4/1 48/4/1 50/4/1
f 52/4/1 49/4/1 45/4/1
f 55/4/1 52/4/1 45/4/1
f 56/4/1 52/4/1 55/4/1
f 57/4/1 54/4/1 53/4/1
f 58/4/1 54/4/1 57/4/1
f 59/4/2 60/4/2 63/4/2
f 59/4/2 63/4/2 64/4/2
f 61/4/2 62/4/2 65/4/2
f 65/4/2 62/4/2 66/4/2
f 59/4/2 64/4/2 67/4/2
f 59/4/2 67/4/2 70/4/2
f 59/4/2 70/4/2 71/4/2
f 68/4/2 69/4/2 72/4/2
f 72/4/2 69/4/2 73/4/2
f 59/4/2 71/4/2 74/4/2
f 59/4/2 74/4/2 77/4/2
f 75/4/2 76/4/2 78/4/2
f 78/4/2 76/4/2 79/4/2
f 59/4/2 77/4/2 80/4/2
f 59/4/2 80/4/2 83/4/2
f 59/4/2 83/4/2 84/4/2
f 84/4/2 83/4/2 85/4/2
f 81/4/2 82/4/2 86/4/2
f 86/4/2 82/4/2 87/4/2
f 88/3/2 89/3/2 90/3/2
f 90/3/2 89/3/2 91/3/2
f 92/4/2 93/4/2 94/4/2
f 94/4/2 93/4/2 95/4/2
f 94/3/2 95/3/2 96/3/2
f 95/4/2 93/4/2 97/4/2
f 96/3/2 95/3/2 97/3/2
f 96/4/2 97/4/2 98/4/2
f 97/4/2 93/4/2 99/4/2
f 98/4/2 97/4/2 99/4/2
f 102/4/3 101/4/3 100/4/3
f 103/4/3 101/4/3 102/4/3
f 110/4/3 102/4/3 100/4/3
f 111/3/3 105/3/3 104/3/3
f 112/7/3 106/7/3 105/7/3
f 112/3/3 105/3/3 111/3/3
f 113/3/3 107/3/3 106/3/3
f 113/7/3 106/7/3 112/7/3
f 114/7/3 108/7/3 107/7/3
f 114/3/3 107/3/3 113/3/3
f 115/3/3 109/3/3 108/3/3
f 115/7/3 108/7/3 114/7/3
f 116/3/3 109/3/3 115/3/3
f 117/4/3 101/4/3 103/4/3
f 118/4/3 110/4/3 100/4/3
f 118/4/3 111/4/3 110/4/3
f 119/3/3 114/3/3 113/3/3
f 119/4/3 111/4/3 118/4/3
f 119/3/3 116/3/3 115/3/3
f 119/3/3 112/3/3 111/3/3
f 119/3/3 115/3/3 114/3/3
f 119/3/3 113/3/3 112/3/3
f 120/4/3 117/4/3 116/4/3
f 120/3/3 116/3/3 119/3/3
f 121/4/3 101/4/3 117/4/3
f 121/4/3 117/4/3 120/4/3
f 135/6/3 123/6/3 122/6/3
f 136/8/3 124/8/3 123/8/3
f 136/6/3 123/6/3 135/6/3
f 137/3/3 125/3/3 124/3/3
f 137/5/3 126/5/3 125/5/3
f 138/8/3 127/8/3 126/8/3
f 138/5/3 126/5/3 137/5/3
f 139/3/3 128/3/3 127/3/3
f 139/8/3 129/8/3 128/8/3
f 140/8/3 129/8/3 139/8/3
f 141/5/3 136/5/3 135/5/3
f 142/8/3 124/8/3 136/8/3
f 142/5/3 136/5/3 141/5/3
f 143/3/3 130/3/3 129/3/3
f 143/6/3 131/6/3 130/6/3
f 144/8/3 132/8/3 131/8/3
f 144/6/3 131/6/3 143/6/3
f 145/3/3 137/3/3 124/3/3
f 145/1/3 138/1/3 137/1/3
f 146/8/3 127/8/3 138/8/3
f 146/1/3 138/1/3 145/1/3
f 147/3/3 139/3/3 127/3/3
f 147/6/3 140/6/3 139/6/3
f 148/8/3 129/8/3 140/8/3
f 148/6/3 140/6/3 147/6/3
f 149/2/3 144/2/3 143/2/3
f 149/3/3 143/3/3 129/3/3
f 150/8/3 132/8/3 144/8/3
f 150/2/3 144/2/3 149/2/3
f 151/8/3 132/8/3 150/8/3
f 152/1/3 142/1/3 141/1/3
f 153/8/3 124/8/3 142/8/3
f 153/1/3 142/1/3 152/1/3
f 154/3/3 145/3/3 124/3/3
f 154/5/3 146/5/3 145/5/3
f 155/8/3 127/8/3 146/8/3
f 155/5/3 146/5/3 154/5/3
f 156/3/3 147/3/3 127/3/3
f 156/2/3 148/2/3 147/2/3
f 157/8/3 129/8/3 148/8/3
f 157/2/3 148/2/3 156/2/3
f 158/3/3 149/3/3 129/3/3
f 158/6/3 150/6/3 149/6/3
f 158/6/3 151/6/3 150/6/3
f 159/6/3 151/6/3 158/6/3
f 160/8/3 132/8/3 151/8/3
f 160/6/3 151/6/3 159/6/3
f 161/8/3 153/8/3 152/8/3
f 162/8/3 124/8/3 153/8/3
f 162/8/3 153/8/3 161/8/3
f 163/6/3 155/6/3 154/6/3
f 163/3/3 154/3/3 124/3/3
f 164/8/3 127/8/3 155/8/3
f 164/6/3 155/6/3 163/6/3
f 165/5/3 159/5/3 158/5/3
f 165/3/3 158/3/3 129/3/3
f 166/8/3 160/8/3 159/8/3
f 166/5/3 159/5/3 165/5/3
f 167/3/3 163/3/3 124/3/3
f 167/1/3 164/1/3 163/1/3
f 168/8/3 127/8/3 164/8/3
f 168/1/3 164/1/3 167/1/3
f 169/3/3 156/3/3 127/3/3
f 169/5/3 157/5/3 156/5/3
f 170/8/3 129/8/3 157/8/3
f 170/5/3 157/5/3 169/5/3
f 171/1/3 162/1/3 161/1/3
f 172/8/3 124/8/3 162/8/3
f 172/1/3 162/1/3 171/1/3
f 173/3/3 167/3/3 124/3/3
f 173/8/3 168/8/3 167/8/3
f 174/8/3 168/8/3 173/8/3
f 175/8/3 127/8/3 168/8/3
f 175/8/3 168/8/3 174/8/3
f 176/3/3 169/3/3 127/3/3
f 176/8/3 127/8/3 175/8/3
f 177/8/3 170/8/3 169/8/3
f 177/3/3 169/3/3 176/3/3
f 178/8/3 170/8/3 177/8/3
f 179/6/3 166/6/3 165/6/3
f 179/3/3 165/3/3 129/3/3
f 180/8/3 160/8/3 166/8/3
f 180/6/3 166/6/3 179/6/3
f 181/6/3 172/6/3 171/6/3
f 182/8/3 124/8/3 172/8/3
f 182/6/3 172/6/3 181/6/3
f 183/3/3 173/3/3 124/3/3
f 183/8/3 124/8/3 182/8/3
f 184/3/3 173/3/3 183/3/3
f 185/8/3 170/8/3 178/8/3
f 186/3/3 179/3/3 129/3/3
f 186/8/3 170/8/3 185/8/3
f 186/8/3 129/8/3 170/8/3
f 187/8/3 180/8/3 179/8/3
f 187/3/3 179/3/3 186/3/3
f 188/8/3 160/8/3 180/8/3
f 188/8/3 180/8/3 187/8/3
f 188/8/3 132/8/3 160/8/3
f 189/3/3 134/3/3 133/3/3
f 190/3/3 134/3/3 189/3/3
f 199/4/3 192/4/3 191/4/3
f 200/4/3 192/4/3 199/4/3
f 201/4/3 194/4/3 193/4/3
f 202/4/3 194/4/3 201/4/3
f 203/4/3 196/4/3 195/4/3
f 204/4/3 196/4/3 203/4/3
f 205/4/3 198/4/3 197/4/3
f 206/4/3 198/4/3 205/4/3
f 209/8/4 210/8/4 215/8/4
f 215/8/4 210/8/4 216/8/4
f 211/8/4 212/8/4 217/8/4
f 217/8/4 212/8/4 218/8/4
f 207/8/4 208/8/4 219/8/4
f 219/8/4 208/8/4 220/8/4
f 218/8/4 212/8/4 221/8/4
f 221/8/4 212/8/4 222/8/4
f 213/8/4 214/8/4 223/8/4
f 223/8/4 214/8/4 224/8/4
f 225/3/4 226/3/4 229/3/4
f 229/3/4 226/3/4 230/3/4
f 227/3/4 228/3/4 231/3/4
f 231/3/4 228/3/4 232/3/4
f 233/3/4 234/3/4 235/3/4
f 235/3/4 234/3/4 236/3/4
f 237/4/4 238/4/4 239/4/4
f 239/4/4 238/4/4 240/4/4
f 243/4/5 242/4/5 241/4/5
f 244/4/5 242/4/5 243/4/5
f 247/3/5 246/3/5 245/3/5
f 248/3/5 246/3/5 247/3/5
f 251/3/5 250/3/5 249/3/5
f 252/3/5 250/3/5 251/3/5
f 255/3/5 254/3/5 253/3/5
f 257/3/5 255/3/5 253/3/5
f 257/3/5 256/3/5 255/3/5
f 258/3/5 256/3/5 257/3/5
f 261/3/5 260/3/5 259/3/5
f 262/3/5 260/3/5 261/3/5
f 265/4/5 264/4/5 263/4/5
f 266/4/5 264/4/5 265/4/5
f 269/4/5 268/4/5 267/4/5
f 270/4/5 268/4/5 269/4/5
f 271/4/6 272/4/6 273/4/6
f 273/4/6 272/4/6 274/4/6
f 274/4/6 272/4/6 275/4/6
f 275/4/6 272/4/6 276/4/6
f 276/4/6 272/4/6 277/4/6
f 277/4/6 272/4/6 278/4/6
f 278/4/6 272/4/6 279/4/6
f 280/4/6 281/4/6 282/4/6
f 282/4/6 281/4/6 283/4/6
f 284/3/6 285/3/6 286/3/6
f 284/3/6 286/3/6 288/3/6
f 286/3/6 287/3/6 288/3/6
f 288/3/6 287/3/6 289/3/6
f 290/3/6 291/3/6 292/3/6
f 290/3/6 292/3/6 294/3/6
f 292/3/6 293/3/6 294/3/6
f 294/3/6 293/3/6 295/3/6
f 296/3/6 297/3/6 298/3/6
f 298/3/6 297/3/6 299/3/6
f 300/3/6 301/3/6 302/3/6
f 302/3/6 301/3/6 303/3/6
f 304/3/6 305/3/6 306/3/6
f 306/3/6 305/3/6 307/3/6
f 308/4/6 309/4/6 310/4/6
f 310/4/6 309/4/6 311/4/6
f 308/4/6 310/4/6 312/4/6
f 311/4/6 309/4/6 313/4/6
f 308/4/6 312/4/6 314/4/6
f 312/4/6 313/4/6 314/4/6
f 313/4/6 309/4/6 315/4/6
f 314/4/6 313/4/6 315/4/6
f 316/3/6 317/3/6 318/3/6
f 318/3/6 317/3/6 319/3/6
