# MagicaVoxel @ Ephtracy

# group
o 

# material
mtllib Pared.mtl
usemtl palette

# normals
vn -1 0 0
vn 1 0 0
vn 0 0 1
vn 0 0 -1
vn 0 -1 0
vn 0 1 0

# texcoords
vt 0.689453 0.5
vt 0.791016 0.5
vt 0.814453 0.5

# verts
v 0 2 0
v 0 2 -4
v 0 2.4 0
v 0 2.4 -4
v 0.1 2.4 0
v 0.1 2.4 -4
v 0.1 5.9 0
v 0.1 5.9 -4
v 0.1 6 0
v 0.1 6 -4
v 0.7 2.4 0
v 0.7 2.4 -4
v 0.7 5.9 0
v 0.7 5.9 -4
v 0.7 6 0
v 0.7 6 -4
v 0.8 2 0
v 0.8 2 -4
v 0.8 2.4 0
v 0.8 2.4 -4
v 0 2 0
v 0 2.4 0
v 0.1 2.4 0
v 0.1 5.9 0
v 0.1 6 0
v 0.7 2.4 0
v 0.7 5.9 0
v 0.7 6 0
v 0.8 2 0
v 0.8 2.4 0
v 0 2 -4
v 0 2.4 -4
v 0.1 2.4 -4
v 0.1 5.9 -4
v 0.1 6 -4
v 0.7 2.4 -4
v 0.7 5.9 -4
v 0.7 6 -4
v 0.8 2 -4
v 0.8 2.4 -4
v 0 2 0
v 0.8 2 0
v 0 2 -4
v 0.8 2 -4
v 0 2.4 0
v 0.1 2.4 0
v 0.7 2.4 0
v 0.8 2.4 0
v 0 2.4 -4
v 0.1 2.4 -4
v 0.7 2.4 -4
v 0.8 2.4 -4
v 0.1 6 0
v 0.7 6 0
v 0.1 6 -4
v 0.7 6 -4

# faces
f 3/2/1 2/2/1 1/2/1
f 4/2/1 2/2/1 3/2/1
f 7/3/1 6/3/1 5/3/1
f 8/3/1 6/3/1 7/3/1
f 9/1/1 8/1/1 7/1/1
f 10/1/1 8/1/1 9/1/1
f 11/3/2 12/3/2 13/3/2
f 13/3/2 12/3/2 14/3/2
f 13/1/2 14/1/2 15/1/2
f 15/1/2 14/1/2 16/1/2
f 17/2/2 18/2/2 19/2/2
f 19/2/2 18/2/2 20/2/2
f 23/2/3 22/2/3 21/2/3
f 26/2/3 23/2/3 21/2/3
f 26/3/3 24/3/3 23/3/3
f 27/1/3 25/1/3 24/1/3
f 27/3/3 24/3/3 26/3/3
f 28/1/3 25/1/3 27/1/3
f 29/2/3 26/2/3 21/2/3
f 30/2/3 26/2/3 29/2/3
f 31/2/4 32/2/4 33/2/4
f 31/2/4 33/2/4 36/2/4
f 33/3/4 34/3/4 36/3/4
f 34/1/4 35/1/4 37/1/4
f 36/3/4 34/3/4 37/3/4
f 37/1/4 35/1/4 38/1/4
f 31/2/4 36/2/4 39/2/4
f 39/2/4 36/2/4 40/2/4
f 43/2/5 42/2/5 41/2/5
f 44/2/5 42/2/5 43/2/5
f 45/2/6 46/2/6 49/2/6
f 49/2/6 46/2/6 50/2/6
f 47/2/6 48/2/6 51/2/6
f 51/2/6 48/2/6 52/2/6
f 53/1/6 54/1/6 55/1/6
f 55/1/6 54/1/6 56/1/6
