# MagicaVoxel @ Ephtracy

# group
o 

# material
mtllib Portatil.mtl
usemtl palette

# normals
vn -1 0 0
vn 1 0 0
vn 0 0 1
vn 0 0 -1
vn 0 -1 0
vn 0 1 0

# texcoords
vt 0.708984 0.5
vt 0.865234 0.5
vt 0.916016 0.5
vt 0.919922 0.5

# verts
v 0 2 0
v 0 2 -0.5
v 0 2.1 0
v 0 2.1 -0.5
v 0.3 2.1 0
v 0.3 2.1 -0.1
v 0.3 2.1 -0.4
v 0.3 2.1 -0.5
v 0.3 2.2 -0.1
v 0.3 2.2 -0.2
v 0.3 2.2 -0.4
v 0.3 2.3 -0.1
v 0.3 2.3 -0.2
v 0.3 2.3 -0.3
v 0.3 2.3 -0.4
v 0.3 2.4 -0.1
v 0.3 2.4 -0.3
v 0.3 2.4 -0.4
v 0.3 2.5 0
v 0.3 2.5 -0.5
v 0.5 2 0
v 0.5 2 -0.5
v 0.5 2.5 0
v 0.5 2.5 -0.5
v 0 2 0
v 0 2.1 0
v 0.1 2 0
v 0.1 2.1 0
v 0.2 2 0
v 0.2 2.1 0
v 0.3 2.1 0
v 0.3 2.5 0
v 0.5 2 0
v 0.5 2.5 0
v 0 2 -0.5
v 0 2.1 -0.5
v 0.1 2 -0.5
v 0.1 2.1 -0.5
v 0.2 2 -0.5
v 0.2 2.1 -0.5
v 0.3 2.1 -0.5
v 0.3 2.5 -0.5
v 0.5 2 -0.5
v 0.5 2.5 -0.5
v 0 2 0
v 0.1 2 0
v 0.2 2 0
v 0.5 2 0
v 0.1 2 -0.1
v 0.2 2 -0.1
v 0.3 2 -0.1
v 0.1 2 -0.4
v 0.2 2 -0.4
v 0.3 2 -0.4
v 0 2 -0.5
v 0.1 2 -0.5
v 0.2 2 -0.5
v 0.5 2 -0.5
v 0 2.1 0
v 0.1 2.1 0
v 0.2 2.1 0
v 0.3 2.1 0
v 0.1 2.1 -0.1
v 0.2 2.1 -0.1
v 0.3 2.1 -0.1
v 0.1 2.1 -0.4
v 0.2 2.1 -0.4
v 0.3 2.1 -0.4
v 0 2.1 -0.5
v 0.1 2.1 -0.5
v 0.2 2.1 -0.5
v 0.3 2.1 -0.5
v 0.3 2.5 0
v 0.5 2.5 0
v 0.3 2.5 -0.5
v 0.5 2.5 -0.5

# faces
f 3/1/1 2/1/1 1/1/1
f 4/1/1 2/1/1 3/1/1
f 9/1/1 6/1/1 5/1/1
f 9/1/1 8/1/1 7/1/1
f 9/1/1 7/1/1 6/1/1
f 10/1/1 8/1/1 9/1/1
f 11/1/1 8/1/1 10/1/1
f 12/1/1 9/1/1 5/1/1
f 12/3/1 10/3/1 9/3/1
f 13/4/1 11/4/1 10/4/1
f 13/3/1 10/3/1 12/3/1
f 14/4/1 11/4/1 13/4/1
f 15/1/1 8/1/1 11/1/1
f 15/4/1 11/4/1 14/4/1
f 16/4/1 14/4/1 13/4/1
f 16/1/1 12/1/1 5/1/1
f 16/4/1 13/4/1 12/4/1
f 17/3/1 15/3/1 14/3/1
f 17/4/1 14/4/1 16/4/1
f 18/1/1 8/1/1 15/1/1
f 18/3/1 15/3/1 17/3/1
f 19/1/1 17/1/1 16/1/1
f 19/1/1 16/1/1 5/1/1
f 19/1/1 18/1/1 17/1/1
f 20/1/1 8/1/1 18/1/1
f 20/1/1 18/1/1 19/1/1
f 21/1/2 22/1/2 23/1/2
f 23/1/2 22/1/2 24/1/2
f 27/1/3 26/1/3 25/1/3
f 28/1/3 26/1/3 27/1/3
f 29/3/3 28/3/3 27/3/3
f 30/3/3 28/3/3 29/3/3
f 31/1/3 30/1/3 29/1/3
f 33/1/3 31/1/3 29/1/3
f 33/1/3 32/1/3 31/1/3
f 34/1/3 32/1/3 33/1/3
f 35/1/4 36/1/4 37/1/4
f 37/1/4 36/1/4 38/1/4
f 37/3/4 38/3/4 39/3/4
f 39/3/4 38/3/4 40/3/4
f 39/1/4 40/1/4 41/1/4
f 39/1/4 41/1/4 43/1/4
f 41/1/4 42/1/4 43/1/4
f 43/1/4 42/1/4 44/1/4
f 49/1/5 46/1/5 45/1/5
f 49/3/5 47/3/5 46/3/5
f 50/1/5 48/1/5 47/1/5
f 50/3/5 47/3/5 49/3/5
f 51/1/5 48/1/5 50/1/5
f 52/1/5 49/1/5 45/1/5
f 52/2/5 50/2/5 49/2/5
f 52/2/5 51/2/5 50/2/5
f 53/2/5 51/2/5 52/2/5
f 54/1/5 48/1/5 51/1/5
f 54/2/5 51/2/5 53/2/5
f 55/1/5 52/1/5 45/1/5
f 56/3/5 53/3/5 52/3/5
f 56/1/5 52/1/5 55/1/5
f 57/1/5 54/1/5 53/1/5
f 57/3/5 53/3/5 56/3/5
f 58/1/5 48/1/5 54/1/5
f 58/1/5 54/1/5 57/1/5
f 59/1/6 60/1/6 63/1/6
f 60/3/6 61/3/6 63/3/6
f 61/1/6 62/1/6 64/1/6
f 63/3/6 61/3/6 64/3/6
f 64/1/6 62/1/6 65/1/6
f 59/1/6 63/1/6 66/1/6
f 63/2/6 64/2/6 66/2/6
f 64/2/6 65/2/6 66/2/6
f 66/2/6 65/2/6 67/2/6
f 67/2/6 65/2/6 68/2/6
f 59/1/6 66/1/6 69/1/6
f 66/3/6 67/3/6 70/3/6
f 69/1/6 66/1/6 70/1/6
f 67/1/6 68/1/6 71/1/6
f 70/3/6 67/3/6 71/3/6
f 71/1/6 68/1/6 72/1/6
f 73/1/6 74/1/6 75/1/6
f 75/1/6 74/1/6 76/1/6
