# MagicaVoxel @ Ephtracy

# group
o 

# material
mtllib Taquillas Grises.mtl
usemtl palette

# normals
vn -1 0 0
vn 1 0 0
vn 0 0 1
vn 0 0 -1
vn 0 -1 0
vn 0 1 0

# texcoords
vt 0.720703 0.5
vt 0.736328 0.5
vt 0.900391 0.5
vt 0.923828 0.5

# verts
v 0 2 -0.3
v 0 2 -0.4
v 0 2 -0.6
v 0 2 -0.7
v 0 2.1 -0.3
v 0 2.1 -0.4
v 0 3.9 -0.3
v 0 3.9 -0.4
v 0 4 -0.3
v 0 4 -0.4
v 0 4 -0.6
v 0 4 -0.7
v 0.1 2.2 -0.2
v 0.1 2.2 -0.3
v 0.1 3 -0.2
v 0.1 3 -0.3
v 0.1 3.2 -0.2
v 0.1 3.2 -0.3
v 0.1 3.9 -0.2
v 0.1 3.9 -0.3
v 0.5 2.4 -0.1
v 0.5 2.4 -0.2
v 0.5 2.5 -0.1
v 0.5 2.5 -0.2
v 0.5 3.3 -0.1
v 0.5 3.3 -0.2
v 0.5 3.4 -0.1
v 0.5 3.4 -0.2
v 0.6 2.2 -0.2
v 0.6 2.2 -0.3
v 0.6 2.4 -0.1
v 0.6 2.4 -0.2
v 0.6 2.5 -0.1
v 0.6 2.5 -0.2
v 0.6 3 -0.2
v 0.6 3 -0.3
v 0.6 3.2 -0.2
v 0.6 3.2 -0.3
v 0.6 3.3 -0.1
v 0.6 3.3 -0.2
v 0.6 3.4 -0.1
v 0.6 3.4 -0.2
v 0.6 3.9 -0.2
v 0.6 3.9 -0.3
v 0.7 2 -0.3
v 0.7 2 -0.4
v 0.7 2 -0.6
v 0.7 2 -0.7
v 0.7 2.1 -0.3
v 0.7 2.1 -0.4
v 0.7 3.9 -0.3
v 0.7 3.9 -0.4
v 0.7 4 -0.3
v 0.7 4 -0.4
v 0.7 4 -0.6
v 0.7 4 -0.7
v 0.5 2.4 -0.1
v 0.5 2.5 -0.1
v 0.5 3.3 -0.1
v 0.5 3.4 -0.1
v 0.6 2.4 -0.1
v 0.6 2.5 -0.1
v 0.6 3.3 -0.1
v 0.6 3.4 -0.1
v 0.1 2.2 -0.2
v 0.1 3 -0.2
v 0.1 3.2 -0.2
v 0.1 3.9 -0.2
v 0.5 2.4 -0.2
v 0.5 2.5 -0.2
v 0.5 3.3 -0.2
v 0.5 3.4 -0.2
v 0.6 2.2 -0.2
v 0.6 2.4 -0.2
v 0.6 2.5 -0.2
v 0.6 3 -0.2
v 0.6 3.2 -0.2
v 0.6 3.3 -0.2
v 0.6 3.4 -0.2
v 0.6 3.9 -0.2
v 0 2 -0.3
v 0 2.1 -0.3
v 0 3.9 -0.3
v 0 4 -0.3
v 0.1 2 -0.3
v 0.1 2.1 -0.3
v 0.1 2.2 -0.3
v 0.1 3 -0.3
v 0.1 3.2 -0.3
v 0.1 3.9 -0.3
v 0.1 4 -0.3
v 0.6 2 -0.3
v 0.6 2.1 -0.3
v 0.6 2.2 -0.3
v 0.6 3 -0.3
v 0.6 3.2 -0.3
v 0.6 3.9 -0.3
v 0.6 4 -0.3
v 0.7 2 -0.3
v 0.7 2.1 -0.3
v 0.7 3.9 -0.3
v 0.7 4 -0.3
v 0 2 -0.7
v 0 4 -0.7
v 0.7 2 -0.7
v 0.7 4 -0.7
v 0 2 -0.3
v 0.1 2 -0.3
v 0.6 2 -0.3
v 0.7 2 -0.3
v 0 2 -0.4
v 0.1 2 -0.4
v 0.6 2 -0.4
v 0.7 2 -0.4
v 0 2 -0.6
v 0.7 2 -0.6
v 0 2 -0.7
v 0.7 2 -0.7
v 0.1 2.2 -0.2
v 0.6 2.2 -0.2
v 0.1 2.2 -0.3
v 0.6 2.2 -0.3
v 0.5 2.4 -0.1
v 0.6 2.4 -0.1
v 0.5 2.4 -0.2
v 0.6 2.4 -0.2
v 0.1 3.2 -0.2
v 0.6 3.2 -0.2
v 0.1 3.2 -0.3
v 0.6 3.2 -0.3
v 0.5 3.3 -0.1
v 0.6 3.3 -0.1
v 0.5 3.3 -0.2
v 0.6 3.3 -0.2
v 0.5 2.5 -0.1
v 0.6 2.5 -0.1
v 0.5 2.5 -0.2
v 0.6 2.5 -0.2
v 0.1 3 -0.2
v 0.6 3 -0.2
v 0.1 3 -0.3
v 0.6 3 -0.3
v 0.5 3.4 -0.1
v 0.6 3.4 -0.1
v 0.5 3.4 -0.2
v 0.6 3.4 -0.2
v 0.1 3.9 -0.2
v 0.6 3.9 -0.2
v 0.1 3.9 -0.3
v 0.6 3.9 -0.3
v 0 4 -0.3
v 0.1 4 -0.3
v 0.6 4 -0.3
v 0.7 4 -0.3
v 0 4 -0.4
v 0.1 4 -0.4
v 0.6 4 -0.4
v 0.7 4 -0.4
v 0 4 -0.6
v 0.7 4 -0.6
v 0 4 -0.7
v 0.7 4 -0.7

# faces
f 5/3/1 2/3/1 1/3/1
f 6/4/1 3/4/1 2/4/1
f 6/3/1 2/3/1 5/3/1
f 7/4/1 6/4/1 5/4/1
f 8/4/1 3/4/1 6/4/1
f 8/4/1 6/4/1 7/4/1
f 9/3/1 8/3/1 7/3/1
f 10/4/1 3/4/1 8/4/1
f 10/3/1 8/3/1 9/3/1
f 11/3/1 4/3/1 3/3/1
f 11/4/1 3/4/1 10/4/1
f 12/3/1 4/3/1 11/3/1
f 15/1/1 14/1/1 13/1/1
f 16/1/1 14/1/1 15/1/1
f 19/1/1 18/1/1 17/1/1
f 20/1/1 18/1/1 19/1/1
f 23/2/1 22/2/1 21/2/1
f 24/2/1 22/2/1 23/2/1
f 27/2/1 26/2/1 25/2/1
f 28/2/1 26/2/1 27/2/1
f 29/1/2 30/1/2 32/1/2
f 31/2/2 32/2/2 33/2/2
f 32/1/2 30/1/2 34/1/2
f 33/2/2 32/2/2 34/2/2
f 34/1/2 30/1/2 35/1/2
f 35/1/2 30/1/2 36/1/2
f 37/1/2 38/1/2 40/1/2
f 39/2/2 40/2/2 41/2/2
f 40/1/2 38/1/2 42/1/2
f 41/2/2 40/2/2 42/2/2
f 42/1/2 38/1/2 43/1/2
f 43/1/2 38/1/2 44/1/2
f 45/3/2 46/3/2 49/3/2
f 46/4/2 47/4/2 50/4/2
f 49/3/2 46/3/2 50/3/2
f 49/4/2 50/4/2 51/4/2
f 50/4/2 47/4/2 52/4/2
f 51/4/2 50/4/2 52/4/2
f 51/3/2 52/3/2 53/3/2
f 52/4/2 47/4/2 54/4/2
f 53/3/2 52/3/2 54/3/2
f 47/3/2 48/3/2 55/3/2
f 54/4/2 47/4/2 55/4/2
f 55/3/2 48/3/2 56/3/2
f 61/2/3 58/2/3 57/2/3
f 62/2/3 58/2/3 61/2/3
f 63/2/3 60/2/3 59/2/3
f 64/2/3 60/2/3 63/2/3
f 69/1/3 66/1/3 65/1/3
f 70/1/3 66/1/3 69/1/3
f 71/1/3 68/1/3 67/1/3
f 72/1/3 68/1/3 71/1/3
f 73/1/3 69/1/3 65/1/3
f 74/1/3 69/1/3 73/1/3
f 75/1/3 66/1/3 70/1/3
f 76/1/3 66/1/3 75/1/3
f 77/1/3 71/1/3 67/1/3
f 78/1/3 71/1/3 77/1/3
f 79/1/3 68/1/3 72/1/3
f 80/1/3 68/1/3 79/1/3
f 85/3/3 82/3/3 81/3/3
f 86/4/3 83/4/3 82/4/3
f 86/3/3 82/3/3 85/3/3
f 87/4/3 83/4/3 86/4/3
f 88/4/3 83/4/3 87/4/3
f 89/4/3 83/4/3 88/4/3
f 90/3/3 84/3/3 83/3/3
f 90/4/3 83/4/3 89/4/3
f 91/3/3 84/3/3 90/3/3
f 92/4/3 86/4/3 85/4/3
f 92/4/3 87/4/3 86/4/3
f 93/4/3 87/4/3 92/4/3
f 94/4/3 87/4/3 93/4/3
f 95/4/3 89/4/3 88/4/3
f 96/4/3 89/4/3 95/4/3
f 97/4/3 91/4/3 90/4/3
f 98/4/3 91/4/3 97/4/3
f 99/3/3 93/3/3 92/3/3
f 100/4/3 94/4/3 93/4/3
f 100/3/3 93/3/3 99/3/3
f 100/4/3 96/4/3 95/4/3
f 100/4/3 95/4/3 94/4/3
f 100/4/3 97/4/3 96/4/3
f 101/3/3 98/3/3 97/3/3
f 101/4/3 97/4/3 100/4/3
f 102/3/3 98/3/3 101/3/3
f 103/3/4 104/3/4 105/3/4
f 105/3/4 104/3/4 106/3/4
f 111/3/5 108/3/5 107/3/5
f 112/4/5 109/4/5 108/4/5
f 112/3/5 108/3/5 111/3/5
f 113/3/5 110/3/5 109/3/5
f 113/4/5 109/4/5 112/4/5
f 114/3/5 110/3/5 113/3/5
f 115/4/5 112/4/5 111/4/5
f 115/4/5 113/4/5 112/4/5
f 115/4/5 114/4/5 113/4/5
f 116/4/5 114/4/5 115/4/5
f 117/3/5 116/3/5 115/3/5
f 118/3/5 116/3/5 117/3/5
f 121/1/5 120/1/5 119/1/5
f 122/1/5 120/1/5 121/1/5
f 125/2/5 124/2/5 123/2/5
f 126/2/5 124/2/5 125/2/5
f 129/1/5 128/1/5 127/1/5
f 130/1/5 128/1/5 129/1/5
f 133/2/5 132/2/5 131/2/5
f 134/2/5 132/2/5 133/2/5
f 135/2/6 136/2/6 137/2/6
f 137/2/6 136/2/6 138/2/6
f 139/1/6 140/1/6 141/1/6
f 141/1/6 140/1/6 142/1/6
f 143/2/6 144/2/6 145/2/6
f 145/2/6 144/2/6 146/2/6
f 147/1/6 148/1/6 149/1/6
f 149/1/6 148/1/6 150/1/6
f 151/3/6 152/3/6 155/3/6
f 152/4/6 153/4/6 156/4/6
f 155/3/6 152/3/6 156/3/6
f 153/3/6 154/3/6 157/3/6
f 156/4/6 153/4/6 157/4/6
f 157/3/6 154/3/6 158/3/6
f 155/4/6 156/4/6 159/4/6
f 156/4/6 157/4/6 159/4/6
f 157/4/6 158/4/6 159/4/6
f 159/4/6 158/4/6 160/4/6
f 159/3/6 160/3/6 161/3/6
f 161/3/6 160/3/6 162/3/6
